M48
; DRILL file {KiCad (5.1.5-0-10_14)} date Tuesday, February 11, 2020 at 10:10:26 PM
; FORMAT={-:-/ absolute / inch / decimal}
; #@! TF.CreationDate,2020-02-11T22:10:26-05:00
; #@! TF.GenerationSoftware,Kicad,Pcbnew,(5.1.5-0-10_14)
FMAT,2
INCH
T1C0.0354
T2C0.0472
T3C0.0984
%
G90
G05
T1
X6.1Y-4.1
X6.1Y-4.15
X6.1Y-4.2
X6.1Y-4.25
X3.1Y-5.1
X3.1Y-5.15
X3.1Y-5.2
X3.1Y-5.25
X7.1Y-5.1
X7.1Y-5.15
X7.1Y-5.2
X7.1Y-5.25
X5.1Y-4.1
X5.1Y-4.15
X5.1Y-4.2
X5.1Y-4.25
X6.1Y-2.1
X6.1Y-2.15
X6.1Y-2.2
X6.1Y-2.25
X5.1Y-3.1
X5.1Y-3.15
X5.1Y-3.2
X5.1Y-3.25
X4.1Y-5.1
X4.1Y-5.15
X4.1Y-5.2
X4.1Y-5.25
X3.1Y-2.1
X3.1Y-2.15
X3.1Y-2.2
X3.1Y-2.25
X5.1Y-1.1
X5.1Y-1.15
X5.1Y-1.2
X5.1Y-1.25
X7.1Y-3.1
X7.1Y-3.15
X7.1Y-3.2
X7.1Y-3.25
X8.1Y-4.1
X8.1Y-4.15
X8.1Y-4.2
X8.1Y-4.25
X6.1Y-1.1
X6.1Y-1.15
X6.1Y-1.2
X6.1Y-1.25
X3.1Y-1.1
X3.1Y-1.15
X3.1Y-1.2
X3.1Y-1.25
X7.1Y-1.1
X7.1Y-1.15
X7.1Y-1.2
X7.1Y-1.25
X8.1Y-2.1
X8.1Y-2.15
X8.1Y-2.2
X8.1Y-2.25
X3.1Y-4.1
X3.1Y-4.15
X3.1Y-4.2
X3.1Y-4.25
X6.1Y-5.1
X6.1Y-5.15
X6.1Y-5.2
X6.1Y-5.25
X4.1Y-4.1
X4.1Y-4.15
X4.1Y-4.2
X4.1Y-4.25
X5.1Y-6.1
X5.1Y-6.15
X5.1Y-6.2
X5.1Y-6.25
X8.1Y-6.1
X8.1Y-6.15
X8.1Y-6.2
X8.1Y-6.25
X7.1Y-6.1
X7.1Y-6.15
X7.1Y-6.2
X7.1Y-6.25
X3.1Y-6.1
X3.1Y-6.15
X3.1Y-6.2
X3.1Y-6.25
X6.1Y-3.1
X6.1Y-3.15
X6.1Y-3.2
X6.1Y-3.25
X4.1Y-2.1
X4.1Y-2.15
X4.1Y-2.2
X4.1Y-2.25
X3.1Y-3.1
X3.1Y-3.15
X3.1Y-3.2
X3.1Y-3.25
X4.1Y-6.1
X4.1Y-6.15
X4.1Y-6.2
X4.1Y-6.25
X5.1Y-5.1
X5.1Y-5.15
X5.1Y-5.2
X5.1Y-5.25
X7.1Y-4.1
X7.1Y-4.15
X7.1Y-4.2
X7.1Y-4.25
X8.1Y-5.1
X8.1Y-5.15
X8.1Y-5.2
X8.1Y-5.25
X5.1Y-2.1
X5.1Y-2.15
X5.1Y-2.2
X5.1Y-2.25
X7.1Y-2.1
X7.1Y-2.15
X7.1Y-2.2
X7.1Y-2.25
X8.1Y-3.1
X8.1Y-3.15
X8.1Y-3.2
X8.1Y-3.25
X6.1Y-6.1
X6.1Y-6.15
X6.1Y-6.2
X6.1Y-6.25
X4.1Y-3.1
X4.1Y-3.15
X4.1Y-3.2
X4.1Y-3.25
X4.1Y-1.1
X4.1Y-1.15
X4.1Y-1.2
X4.1Y-1.25
X8.1Y-1.1
X8.1Y-1.15
X8.1Y-1.2
X8.1Y-1.25
T2
X4.9803Y-6.5354
X5.1181Y-6.5354
X5.2559Y-6.5354
X5.3937Y-6.5354
X5.5315Y-6.5354
X5.6693Y-6.5354
X5.8071Y-6.5354
X5.9449Y-6.5354
X6.0827Y-6.5354
X6.2205Y-6.5354
T3
X2.7559Y-6.1811
X8.4449Y-6.1811
X8.4449Y-1.1811
X2.7559Y-1.1811
T0
M30
