<?xml version="1.0" standalone="no"?>
 <!DOCTYPE svg PUBLIC "-//W3C//DTD SVG 1.1//EN" 
 "http://www.w3.org/Graphics/SVG/1.1/DTD/svg11.dtd"> 
<svg xmlns="http://www.w3.org/2000/svg" version="1.1" 
    width="29.7002cm" height="21.0007cm" viewBox="0 0 116930 82680 ">
<title>SVG Picture created as neopixel_array-Edge_Cuts.svg date 2020/02/11 22:39:04 </title>
  <desc>Picture generated by PCBNEW </desc>
<g style="fill:#000000; fill-opacity:1;stroke:#000000; stroke-opacity:1;
stroke-linecap:round; stroke-linejoin:round; "
 transform="translate(0 0) scale(1 1)">
</g>
<g style="fill:#000000; fill-opacity:0.0; 
stroke:#000000; stroke-width:-0.000393701; stroke-opacity:1; 
stroke-linecap:round; stroke-linejoin:round;">
</g>
<g style="fill:#000000; fill-opacity:0.0; 
stroke:#000000; stroke-width:19.685; stroke-opacity:1; 
stroke-linecap:round; stroke-linejoin:round;">
<path d="M84645 63779
L86220 63779
" />
<path d="M86220 60039
L86220 63779
" />
<path d="M84645 60039
L86220 60039
" />
<path d="M27362 63779
L25787 63779
" />
<path d="M25787 60039
L25787 63779
" />
<path d="M27362 60039
L25787 60039
" />
<path d="M59448 50000
L59251 50000
" />
<path d="M72637 50984
L79330 50984
" />
<path d="M32677 50984
L39370 50984
" />
<path d="M39370 50984
L39370 50000
" />
<path d="M32677 50000
L32677 50984
" />
<path d="M49409 53346
L49409 52559
" />
<path d="M69291 53346
L69291 52559
" />
<path d="M62598 52559
L62598 53346
" />
<path d="M79330 53346
L79330 52559
" />
<path d="M69291 50984
L69291 50000
" />
<path d="M72637 50000
L72637 50984
" />
<path d="M59251 50984
L59251 50000
" />
<path d="M52559 52559
L52559 53346
" />
<path d="M62598 50000
L62598 50984
" />
<path d="M59251 52559
L52559 52559
" />
<path d="M52559 50984
L59251 50984
" />
<path d="M42716 50984
L49409 50984
" />
<path d="M49409 50984
L49409 50000
" />
<path d="M42716 50000
L42716 50984
" />
<path d="M62598 50984
L69291 50984
" />
<path d="M52559 50000
L52559 50984
" />
<path d="M42716 52559
L42716 53346
" />
<path d="M79330 52559
L72637 52559
" />
<path d="M69291 52559
L62598 52559
" />
<path d="M39370 53346
L39370 52559
" />
<path d="M32677 52559
L32677 53346
" />
<path d="M39370 52559
L32677 52559
" />
<path d="M49409 52559
L42716 52559
" />
<path d="M59251 53346
L59251 52559
" />
<path d="M79330 50984
L79330 50000
" />
<path d="M72637 52559
L72637 53346
" />
<path d="M72637 40944
L79330 40944
" />
<path d="M32677 40944
L39370 40944
" />
<path d="M39370 40944
L39370 40157
" />
<path d="M32677 40157
L32677 40944
" />
<path d="M49409 43307
L49409 42519
" />
<path d="M69291 43307
L69291 42519
" />
<path d="M62598 42519
L62598 43307
" />
<path d="M79330 43307
L79330 42519
" />
<path d="M69291 40944
L69291 40157
" />
<path d="M72637 40157
L72637 40944
" />
<path d="M59251 40944
L59251 40157
" />
<path d="M52559 42519
L52559 43307
" />
<path d="M62598 40157
L62598 40944
" />
<path d="M59251 42519
L52559 42519
" />
<path d="M52559 40944
L59251 40944
" />
<path d="M42716 40944
L49409 40944
" />
<path d="M49409 40944
L49409 40157
" />
<path d="M42716 40157
L42716 40944
" />
<path d="M62598 40944
L69291 40944
" />
<path d="M52559 40157
L52559 40944
" />
<path d="M42716 42519
L42716 43307
" />
<path d="M79330 42519
L72637 42519
" />
<path d="M69291 42519
L62598 42519
" />
<path d="M39370 43307
L39370 42519
" />
<path d="M32677 42519
L32677 43307
" />
<path d="M39370 42519
L32677 42519
" />
<path d="M49409 42519
L42716 42519
" />
<path d="M59251 43307
L59251 42519
" />
<path d="M79330 40944
L79330 39960
" />
<path d="M72637 42519
L72637 43307
" />
<path d="M72637 31102
L79330 31102
" />
<path d="M32677 31102
L39370 31102
" />
<path d="M39370 31102
L39370 30118
" />
<path d="M32677 30118
L32677 31102
" />
<path d="M49409 33464
L49409 32677
" />
<path d="M69291 33464
L69291 32677
" />
<path d="M62598 32677
L62598 33464
" />
<path d="M79330 33464
L79330 32677
" />
<path d="M69291 31102
L69291 30118
" />
<path d="M72637 30118
L72637 31102
" />
<path d="M59251 31102
L59251 30118
" />
<path d="M52559 32677
L52559 33464
" />
<path d="M62598 30118
L62598 31102
" />
<path d="M59251 32677
L52559 32677
" />
<path d="M52559 31102
L59251 31102
" />
<path d="M42716 31102
L49409 31102
" />
<path d="M49409 31102
L49409 30118
" />
<path d="M42716 30118
L42716 31102
" />
<path d="M62598 31102
L69291 31102
" />
<path d="M52559 30118
L52559 31102
" />
<path d="M42716 32677
L42716 33464
" />
<path d="M79330 32677
L72637 32677
" />
<path d="M69291 32677
L62598 32677
" />
<path d="M39370 33464
L39370 32677
" />
<path d="M32677 32677
L32677 33464
" />
<path d="M39370 32677
L32677 32677
" />
<path d="M49409 32677
L42716 32677
" />
<path d="M59251 33464
L59251 32677
" />
<path d="M79330 31102
L79330 30118
" />
<path d="M72637 32677
L72637 33464
" />
<path d="M25787 13385
L29330 13385
" />
<path d="M25787 10039
L25787 13385
" />
<path d="M29330 10039
L25787 10039
" />
<path d="M27362 63779
L29330 63779
" />
<path d="M29330 60039
L27362 60039
" />
<path d="M84645 63779
L82677 63779
" />
<path d="M82677 60039
L84645 60039
" />
<path d="M86220 10039
L82677 10039
" />
<path d="M86220 13385
L86220 10039
" />
<path d="M82677 13385
L86220 13385
" />
<path d="M64173 63779
L82677 63779
" />
<path d="M47834 63779
L29330 63779
" />
<path d="M47834 67519
L47834 63779
" />
<path d="M64173 67519
L47834 67519
" />
<path d="M64173 63779
L64173 67519
" />
<path d="M49409 13385
L49409 12795
" />
<path d="M41732 13385
L41732 20078
" />
<path d="M69291 13385
L69291 12795
" />
<path d="M61614 13385
L61614 20078
" />
<path d="M61614 20078
L62598 20078
" />
<path d="M62598 21062
L69291 21062
" />
<path d="M62598 12795
L62598 13385
" />
<path d="M70275 13385
L69291 13385
" />
<path d="M62598 13385
L61614 13385
" />
<path d="M70275 20078
L70275 13385
" />
<path d="M79330 13385
L79330 12795
" />
<path d="M71653 13385
L71653 20078
" />
<path d="M71653 20078
L72637 20078
" />
<path d="M52559 20078
L52559 21062
" />
<path d="M60236 20078
L60236 13385
" />
<path d="M52559 13385
L51574 13385
" />
<path d="M52559 21062
L59251 21062
" />
<path d="M52559 12795
L52559 13385
" />
<path d="M59251 20078
L60236 20078
" />
<path d="M59251 12795
L52559 12795
" />
<path d="M49409 21062
L49409 20078
" />
<path d="M42716 20078
L42716 21062
" />
<path d="M41732 20078
L42716 20078
" />
<path d="M42716 21062
L49409 21062
" />
<path d="M42716 12795
L42716 13385
" />
<path d="M50393 13385
L49409 13385
" />
<path d="M42716 13385
L41732 13385
" />
<path d="M50393 20078
L50393 13385
" />
<path d="M49409 20078
L50393 20078
" />
<path d="M72637 13385
L71653 13385
" />
<path d="M80314 20078
L80314 13385
" />
<path d="M79330 20078
L80314 20078
" />
<path d="M79330 12795
L72637 12795
" />
<path d="M69291 21062
L69291 20078
" />
<path d="M69291 12795
L62598 12795
" />
<path d="M72637 20078
L72637 21062
" />
<path d="M51574 13385
L51574 20078
" />
<path d="M51574 20078
L52559 20078
" />
<path d="M59251 21062
L59251 20078
" />
<path d="M32677 13385
L31692 13385
" />
<path d="M39370 13385
L39370 12795
" />
<path d="M32677 21062
L39370 21062
" />
<path d="M32677 12795
L32677 13385
" />
<path d="M39370 20078
L40354 20078
" />
<path d="M39370 12795
L32677 12795
" />
<path d="M31692 13385
L31692 20078
" />
<path d="M31692 20078
L32677 20078
" />
<path d="M40354 20078
L40354 13385
" />
<path d="M39370 21062
L39370 20078
" />
<path d="M32677 20078
L32677 21062
" />
<path d="M40354 13385
L39370 13385
" />
<path d="M49409 12795
L42716 12795
" />
<path d="M59251 13385
L59251 12795
" />
<path d="M60236 13385
L59251 13385
" />
<path d="M72637 21062
L79330 21062
" />
<path d="M72637 12795
L72637 13385
" />
<path d="M80314 13385
L79330 13385
" />
<path d="M69291 20078
L70275 20078
" />
<path d="M62598 20078
L62598 21062
" />
<path d="M79330 21062
L79330 20078
" />
<path d="M39370 23425
L39370 22637
" />
<path d="M31692 23425
L31692 30118
" />
<path d="M31692 30118
L32677 30118
" />
<path d="M32677 22637
L32677 23425
" />
<path d="M40354 23425
L39370 23425
" />
<path d="M32677 23425
L31692 23425
" />
<path d="M40354 30118
L40354 23425
" />
<path d="M39370 30118
L40354 30118
" />
<path d="M39370 22637
L32677 22637
" />
<path d="M49409 23425
L49409 22637
" />
<path d="M41732 23425
L41732 30118
" />
<path d="M41732 30118
L42716 30118
" />
<path d="M42716 22637
L42716 23425
" />
<path d="M50393 23425
L49409 23425
" />
<path d="M42716 23425
L41732 23425
" />
<path d="M50393 30118
L50393 23425
" />
<path d="M49409 30118
L50393 30118
" />
<path d="M49409 22637
L42716 22637
" />
<path d="M59251 23425
L59251 22637
" />
<path d="M51574 23425
L51574 30118
" />
<path d="M51574 30118
L52559 30118
" />
<path d="M52559 22637
L52559 23425
" />
<path d="M60236 23425
L59251 23425
" />
<path d="M52559 23425
L51574 23425
" />
<path d="M60236 30118
L60236 23425
" />
<path d="M59251 30118
L60236 30118
" />
<path d="M59251 22637
L52559 22637
" />
<path d="M69291 23425
L69291 22637
" />
<path d="M61614 23425
L61614 30118
" />
<path d="M61614 30118
L62598 30118
" />
<path d="M62598 22637
L62598 23425
" />
<path d="M70275 23425
L69291 23425
" />
<path d="M62598 23425
L61614 23425
" />
<path d="M70275 30118
L70275 23425
" />
<path d="M69291 30118
L70275 30118
" />
<path d="M69291 22637
L62598 22637
" />
<path d="M79330 23425
L79330 22637
" />
<path d="M71653 23425
L71653 30118
" />
<path d="M71653 30118
L72637 30118
" />
<path d="M72637 22637
L72637 23425
" />
<path d="M80314 23425
L79330 23425
" />
<path d="M72637 23425
L71653 23425
" />
<path d="M80314 30118
L80314 23425
" />
<path d="M79330 30118
L80314 30118
" />
<path d="M79330 22637
L72637 22637
" />
<path d="M71653 33464
L71653 40157
" />
<path d="M71653 40157
L72637 40157
" />
<path d="M80314 33464
L79330 33464
" />
<path d="M72637 33464
L71653 33464
" />
<path d="M80314 39960
L80314 33464
" />
<path d="M79330 39960
L80314 39960
" />
<path d="M61614 33464
L61614 40157
" />
<path d="M61614 40157
L62598 40157
" />
<path d="M70275 33464
L69291 33464
" />
<path d="M62598 33464
L61614 33464
" />
<path d="M70275 40157
L70275 33464
" />
<path d="M69291 40157
L70275 40157
" />
<path d="M51771 33464
L51771 40157
" />
<path d="M51771 40157
L52559 40157
" />
<path d="M60433 33464
L59251 33464
" />
<path d="M52559 33464
L51771 33464
" />
<path d="M60433 40157
L60433 33464
" />
<path d="M59251 40157
L60433 40157
" />
<path d="M41732 33464
L41732 40157
" />
<path d="M41732 40157
L42716 40157
" />
<path d="M50393 33464
L49409 33464
" />
<path d="M42716 33464
L41732 33464
" />
<path d="M50393 40157
L50393 33464
" />
<path d="M49409 40157
L50393 40157
" />
<path d="M31692 33464
L31692 40157
" />
<path d="M31692 40157
L32677 40157
" />
<path d="M40354 33464
L39370 33464
" />
<path d="M32677 33464
L31692 33464
" />
<path d="M40354 40157
L40354 33464
" />
<path d="M39370 40157
L40354 40157
" />
<path d="M31692 43307
L31692 50000
" />
<path d="M31692 50000
L32677 50000
" />
<path d="M40354 43307
L39370 43307
" />
<path d="M32677 43307
L31692 43307
" />
<path d="M40354 50000
L40354 43307
" />
<path d="M39370 50000
L40354 50000
" />
<path d="M41732 43307
L41732 50000
" />
<path d="M41732 50000
L42716 50000
" />
<path d="M50393 43307
L49409 43307
" />
<path d="M42716 43307
L41732 43307
" />
<path d="M50393 50000
L50393 43307
" />
<path d="M49409 50000
L50393 50000
" />
<path d="M51771 43307
L51771 50000
" />
<path d="M51771 50000
L52559 50000
" />
<path d="M60433 43307
L59251 43307
" />
<path d="M52559 43307
L51771 43307
" />
<path d="M60433 50000
L60433 43307
" />
<path d="M59448 50000
L60433 50000
" />
<path d="M61614 43307
L61614 50000
" />
<path d="M61614 50000
L62598 50000
" />
<path d="M70275 43307
L69291 43307
" />
<path d="M62598 43307
L61614 43307
" />
<path d="M70275 50000
L70275 43307
" />
<path d="M69291 50000
L70275 50000
" />
<path d="M71653 43307
L71653 50000
" />
<path d="M71653 50000
L72637 50000
" />
<path d="M80314 43307
L79330 43307
" />
<path d="M72637 43307
L71653 43307
" />
<path d="M80314 50000
L80314 43307
" />
<path d="M79330 50000
L80314 50000
" />
<path d="M71653 53346
L71653 60039
" />
<path d="M71653 60039
L72637 60039
" />
<path d="M72637 60826
L79330 60826
" />
<path d="M80314 53346
L79330 53346
" />
<path d="M72637 53346
L71653 53346
" />
<path d="M80314 60039
L80314 53346
" />
<path d="M79330 60039
L80314 60039
" />
<path d="M72637 60039
L72637 60826
" />
<path d="M79330 60826
L79330 60039
" />
<path d="M61614 53346
L61614 60039
" />
<path d="M61614 60039
L62598 60039
" />
<path d="M62598 60826
L69291 60826
" />
<path d="M70275 53346
L69291 53346
" />
<path d="M62598 53346
L61614 53346
" />
<path d="M70275 60039
L70275 53346
" />
<path d="M69291 60039
L70275 60039
" />
<path d="M62598 60039
L62598 60826
" />
<path d="M69291 60826
L69291 60039
" />
<path d="M51574 53346
L51574 60039
" />
<path d="M51574 60039
L52559 60039
" />
<path d="M52559 60826
L59251 60826
" />
<path d="M60236 53346
L59251 53346
" />
<path d="M52559 53346
L51574 53346
" />
<path d="M60236 60039
L60236 53346
" />
<path d="M59251 60039
L60236 60039
" />
<path d="M52559 60039
L52559 60826
" />
<path d="M59251 60826
L59251 60039
" />
<path d="M41732 53346
L41732 60039
" />
<path d="M41732 60039
L42716 60039
" />
<path d="M42716 60826
L49409 60826
" />
<path d="M50393 53346
L49409 53346
" />
<path d="M42716 53346
L41732 53346
" />
<path d="M50393 60039
L50393 53346
" />
<path d="M49409 60039
L50393 60039
" />
<path d="M42716 60039
L42716 60826
" />
<path d="M49409 60826
L49409 60039
" />
<path d="M31692 60039
L32677 60039
" />
<path d="M31692 53346
L31692 60039
" />
<path d="M32677 53346
L31692 53346
" />
<path d="M40354 53346
L39370 53346
" />
<path d="M40354 60039
L40354 53346
" />
<path d="M39370 60039
L40354 60039
" />
<path d="M39370 60826
L39370 60039
" />
<path d="M32677 60826
L39370 60826
" />
<path d="M32677 60039
L32677 60826
" />
<path d="M30314 60039
L29330 60039
" />
<path d="M30314 53346
L30314 60039
" />
<path d="M29330 53346
L30314 53346
" />
<path d="M29330 50000
L29330 53346
" />
<path d="M30314 50000
L29330 50000
" />
<path d="M30314 43503
L30314 50000
" />
<path d="M29330 43503
L30314 43503
" />
<path d="M29330 39960
L29330 43503
" />
<path d="M30314 39960
L29330 39960
" />
<path d="M30314 33464
L30314 39960
" />
<path d="M29330 33464
L30314 33464
" />
<path d="M29330 30118
L29330 33464
" />
<path d="M30314 30118
L29330 30118
" />
<path d="M30314 23425
L30314 30118
" />
<path d="M29330 23425
L30314 23425
" />
<path d="M29330 20078
L29330 23425
" />
<path d="M30314 20078
L29330 20078
" />
<path d="M30314 13385
L30314 20078
" />
<path d="M29330 13385
L30314 13385
" />
<path d="M32677 10039
L29330 10039
" />
<path d="M32677 10629
L32677 10039
" />
<path d="M39370 10629
L32677 10629
" />
<path d="M39370 10039
L39370 10629
" />
<path d="M42716 10039
L39370 10039
" />
<path d="M42716 10629
L42716 10039
" />
<path d="M49409 10629
L42716 10629
" />
<path d="M49409 10039
L49409 10629
" />
<path d="M52755 10039
L49409 10039
" />
<path d="M52755 10629
L52755 10039
" />
<path d="M59251 10629
L52755 10629
" />
<path d="M59251 10039
L59251 10629
" />
<path d="M62795 10039
L59251 10039
" />
<path d="M62795 10629
L62795 10039
" />
<path d="M69291 10629
L62795 10629
" />
<path d="M69291 10039
L69291 10629
" />
<path d="M72637 10039
L69291 10039
" />
<path d="M72637 10629
L72637 10039
" />
<path d="M79330 10629
L72637 10629
" />
<path d="M79330 10039
L79330 10629
" />
<path d="M82677 10039
L79330 10039
" />
<path d="M81692 13385
L82677 13385
" />
<path d="M81692 20078
L81692 13385
" />
<path d="M82677 20078
L81692 20078
" />
<path d="M82677 23425
L82677 20078
" />
<path d="M81692 23425
L82677 23425
" />
<path d="M81692 30118
L81692 23425
" />
<path d="M82677 30118
L81692 30118
" />
<path d="M82677 33464
L82677 30118
" />
<path d="M81692 33464
L82677 33464
" />
<path d="M81692 39960
L81692 33464
" />
<path d="M82677 39960
L81692 39960
" />
<path d="M82677 43503
L82677 39960
" />
<path d="M81692 43503
L82677 43503
" />
<path d="M81692 50000
L81692 43503
" />
<path d="M82677 50000
L81692 50000
" />
<path d="M82677 53346
L82677 50000
" />
<path d="M81692 53346
L82677 53346
" />
<path d="M81692 60039
L81692 53346
" />
<path d="M82677 60039
L81692 60039
" />
<g >
</g>
<g >
</g>
<g >
</g>
<g >
</g>
<g >
</g>
<g >
</g>
<g >
</g>
<g >
</g>
<g >
</g>
<g >
</g>
<g >
</g>
<g >
</g>
<g >
</g>
<g >
</g>
<g >
</g>
<g >
</g>
<g >
</g>
<g >
</g>
<g >
</g>
<g >
</g>
<g >
</g>
<g >
</g>
<g >
</g>
<g >
</g>
<g >
</g>
<g >
</g>
<g >
</g>
<g >
</g>
<g >
</g>
<g >
</g>
<g >
</g>
<g >
</g>
<g >
</g>
<g >
</g>
<g >
</g>
<g >
</g>
<g >
</g>
<g >
</g>
<g >
</g>
<g >
</g>
<g >
</g>
<g >
</g>
<g >
</g>
<g >
</g>
<g >
</g>
<g >
</g>
<g >
</g>
<g >
</g>
<g >
</g>
<g >
</g>
<g >
</g>
<g >
</g>
<g >
</g>
<g >
</g>
<g >
</g>
<g >
</g>
<g >
</g>
<g >
</g>
<g >
</g>
<g >
</g>
<g >
</g>
<g >
</g>
<g >
</g>
<g >
</g>
<g >
</g>
<g >
</g>
<g >
</g>
<g >
</g>
<g >
</g>
<g >
</g>
<g >
</g>
<g >
</g>
<g >
</g>
<g >
</g>
<g >
</g>
<g >
</g>
<g >
</g>
<g >
</g>
</g> 
</svg>
