G04 #@! TF.GenerationSoftware,KiCad,Pcbnew,(5.1.5-0-10_14)*
G04 #@! TF.CreationDate,2020-01-26T13:01:26-05:00*
G04 #@! TF.ProjectId,neopixel_array,6e656f70-6978-4656-9c5f-61727261792e,rev?*
G04 #@! TF.SameCoordinates,Original*
G04 #@! TF.FileFunction,Legend,Top*
G04 #@! TF.FilePolarity,Positive*
%FSLAX46Y46*%
G04 Gerber Fmt 4.6, Leading zero omitted, Abs format (unit mm)*
G04 Created by KiCad (PCBNEW (5.1.5-0-10_14)) date 2020-01-26 13:01:26*
%MOMM*%
%LPD*%
G04 APERTURE LIST*
%ADD10C,0.120000*%
%ADD11C,0.150000*%
G04 APERTURE END LIST*
D10*
X206820000Y-159405000D02*
X207285000Y-159405000D01*
X204195000Y-159405000D02*
X204660000Y-159405000D01*
X206820429Y-154590521D02*
G75*
G02X206820000Y-159099684I-1080429J-2254479D01*
G01*
X204659571Y-154590521D02*
G75*
G03X204660000Y-159099684I1080429J-2254479D01*
G01*
X206820827Y-154057185D02*
G75*
G02X207284830Y-159405000I-1080827J-2787815D01*
G01*
X204659173Y-154057185D02*
G75*
G03X204195170Y-159405000I1080827J-2787815D01*
G01*
X79820827Y-32632815D02*
G75*
G03X80284830Y-27285000I-1080827J2787815D01*
G01*
X77659173Y-32632815D02*
G75*
G02X77195170Y-27285000I1080827J2787815D01*
G01*
X79820429Y-32099479D02*
G75*
G03X79820000Y-27590316I-1080429J2254479D01*
G01*
X77659571Y-32099479D02*
G75*
G02X77660000Y-27590316I1080429J2254479D01*
G01*
X80285000Y-27285000D02*
X79820000Y-27285000D01*
X77660000Y-27285000D02*
X77195000Y-27285000D01*
X77660000Y-52685000D02*
X77195000Y-52685000D01*
X80285000Y-52685000D02*
X79820000Y-52685000D01*
X77659571Y-57499479D02*
G75*
G02X77660000Y-52990316I1080429J2254479D01*
G01*
X79820429Y-57499479D02*
G75*
G03X79820000Y-52990316I-1080429J2254479D01*
G01*
X77659173Y-58032815D02*
G75*
G02X77195170Y-52685000I1080827J2787815D01*
G01*
X79820827Y-58032815D02*
G75*
G03X80284830Y-52685000I-1080827J2787815D01*
G01*
X79820827Y-83432815D02*
G75*
G03X80284830Y-78085000I-1080827J2787815D01*
G01*
X77659173Y-83432815D02*
G75*
G02X77195170Y-78085000I1080827J2787815D01*
G01*
X79820429Y-82899479D02*
G75*
G03X79820000Y-78390316I-1080429J2254479D01*
G01*
X77659571Y-82899479D02*
G75*
G02X77660000Y-78390316I1080429J2254479D01*
G01*
X80285000Y-78085000D02*
X79820000Y-78085000D01*
X77660000Y-78085000D02*
X77195000Y-78085000D01*
X77660000Y-103485000D02*
X77195000Y-103485000D01*
X80285000Y-103485000D02*
X79820000Y-103485000D01*
X77659571Y-108299479D02*
G75*
G02X77660000Y-103790316I1080429J2254479D01*
G01*
X79820429Y-108299479D02*
G75*
G03X79820000Y-103790316I-1080429J2254479D01*
G01*
X77659173Y-108832815D02*
G75*
G02X77195170Y-103485000I1080827J2787815D01*
G01*
X79820827Y-108832815D02*
G75*
G03X80284830Y-103485000I-1080827J2787815D01*
G01*
X77660000Y-128885000D02*
X77195000Y-128885000D01*
X80285000Y-128885000D02*
X79820000Y-128885000D01*
X77659571Y-133699479D02*
G75*
G02X77660000Y-129190316I1080429J2254479D01*
G01*
X79820429Y-133699479D02*
G75*
G03X79820000Y-129190316I-1080429J2254479D01*
G01*
X77659173Y-134232815D02*
G75*
G02X77195170Y-128885000I1080827J2787815D01*
G01*
X79820827Y-134232815D02*
G75*
G03X80284830Y-128885000I-1080827J2787815D01*
G01*
X77660000Y-154285000D02*
X77195000Y-154285000D01*
X80285000Y-154285000D02*
X79820000Y-154285000D01*
X77659571Y-159099479D02*
G75*
G02X77660000Y-154590316I1080429J2254479D01*
G01*
X79820429Y-159099479D02*
G75*
G03X79820000Y-154590316I-1080429J2254479D01*
G01*
X77659173Y-159632815D02*
G75*
G02X77195170Y-154285000I1080827J2787815D01*
G01*
X79820827Y-159632815D02*
G75*
G03X80284830Y-154285000I-1080827J2787815D01*
G01*
X103059173Y-27057185D02*
G75*
G03X102595170Y-32405000I1080827J-2787815D01*
G01*
X105220827Y-27057185D02*
G75*
G02X105684830Y-32405000I-1080827J-2787815D01*
G01*
X103059571Y-27590521D02*
G75*
G03X103060000Y-32099684I1080429J-2254479D01*
G01*
X105220429Y-27590521D02*
G75*
G02X105220000Y-32099684I-1080429J-2254479D01*
G01*
X102595000Y-32405000D02*
X103060000Y-32405000D01*
X105220000Y-32405000D02*
X105685000Y-32405000D01*
X105220000Y-57805000D02*
X105685000Y-57805000D01*
X102595000Y-57805000D02*
X103060000Y-57805000D01*
X105220429Y-52990521D02*
G75*
G02X105220000Y-57499684I-1080429J-2254479D01*
G01*
X103059571Y-52990521D02*
G75*
G03X103060000Y-57499684I1080429J-2254479D01*
G01*
X105220827Y-52457185D02*
G75*
G02X105684830Y-57805000I-1080827J-2787815D01*
G01*
X103059173Y-52457185D02*
G75*
G03X102595170Y-57805000I1080827J-2787815D01*
G01*
X103059173Y-77857185D02*
G75*
G03X102595170Y-83205000I1080827J-2787815D01*
G01*
X105220827Y-77857185D02*
G75*
G02X105684830Y-83205000I-1080827J-2787815D01*
G01*
X103059571Y-78390521D02*
G75*
G03X103060000Y-82899684I1080429J-2254479D01*
G01*
X105220429Y-78390521D02*
G75*
G02X105220000Y-82899684I-1080429J-2254479D01*
G01*
X102595000Y-83205000D02*
X103060000Y-83205000D01*
X105220000Y-83205000D02*
X105685000Y-83205000D01*
X105220000Y-108605000D02*
X105685000Y-108605000D01*
X102595000Y-108605000D02*
X103060000Y-108605000D01*
X105220429Y-103790521D02*
G75*
G02X105220000Y-108299684I-1080429J-2254479D01*
G01*
X103059571Y-103790521D02*
G75*
G03X103060000Y-108299684I1080429J-2254479D01*
G01*
X105220827Y-103257185D02*
G75*
G02X105684830Y-108605000I-1080827J-2787815D01*
G01*
X103059173Y-103257185D02*
G75*
G03X102595170Y-108605000I1080827J-2787815D01*
G01*
X105220000Y-134005000D02*
X105685000Y-134005000D01*
X102595000Y-134005000D02*
X103060000Y-134005000D01*
X105220429Y-129190521D02*
G75*
G02X105220000Y-133699684I-1080429J-2254479D01*
G01*
X103059571Y-129190521D02*
G75*
G03X103060000Y-133699684I1080429J-2254479D01*
G01*
X105220827Y-128657185D02*
G75*
G02X105684830Y-134005000I-1080827J-2787815D01*
G01*
X103059173Y-128657185D02*
G75*
G03X102595170Y-134005000I1080827J-2787815D01*
G01*
X105220000Y-159405000D02*
X105685000Y-159405000D01*
X102595000Y-159405000D02*
X103060000Y-159405000D01*
X105220429Y-154590521D02*
G75*
G02X105220000Y-159099684I-1080429J-2254479D01*
G01*
X103059571Y-154590521D02*
G75*
G03X103060000Y-159099684I1080429J-2254479D01*
G01*
X105220827Y-154057185D02*
G75*
G02X105684830Y-159405000I-1080827J-2787815D01*
G01*
X103059173Y-154057185D02*
G75*
G03X102595170Y-159405000I1080827J-2787815D01*
G01*
X130620827Y-32632815D02*
G75*
G03X131084830Y-27285000I-1080827J2787815D01*
G01*
X128459173Y-32632815D02*
G75*
G02X127995170Y-27285000I1080827J2787815D01*
G01*
X130620429Y-32099479D02*
G75*
G03X130620000Y-27590316I-1080429J2254479D01*
G01*
X128459571Y-32099479D02*
G75*
G02X128460000Y-27590316I1080429J2254479D01*
G01*
X131085000Y-27285000D02*
X130620000Y-27285000D01*
X128460000Y-27285000D02*
X127995000Y-27285000D01*
X128460000Y-52685000D02*
X127995000Y-52685000D01*
X131085000Y-52685000D02*
X130620000Y-52685000D01*
X128459571Y-57499479D02*
G75*
G02X128460000Y-52990316I1080429J2254479D01*
G01*
X130620429Y-57499479D02*
G75*
G03X130620000Y-52990316I-1080429J2254479D01*
G01*
X128459173Y-58032815D02*
G75*
G02X127995170Y-52685000I1080827J2787815D01*
G01*
X130620827Y-58032815D02*
G75*
G03X131084830Y-52685000I-1080827J2787815D01*
G01*
X130620827Y-83432815D02*
G75*
G03X131084830Y-78085000I-1080827J2787815D01*
G01*
X128459173Y-83432815D02*
G75*
G02X127995170Y-78085000I1080827J2787815D01*
G01*
X130620429Y-82899479D02*
G75*
G03X130620000Y-78390316I-1080429J2254479D01*
G01*
X128459571Y-82899479D02*
G75*
G02X128460000Y-78390316I1080429J2254479D01*
G01*
X131085000Y-78085000D02*
X130620000Y-78085000D01*
X128460000Y-78085000D02*
X127995000Y-78085000D01*
X128460000Y-103485000D02*
X127995000Y-103485000D01*
X131085000Y-103485000D02*
X130620000Y-103485000D01*
X128459571Y-108299479D02*
G75*
G02X128460000Y-103790316I1080429J2254479D01*
G01*
X130620429Y-108299479D02*
G75*
G03X130620000Y-103790316I-1080429J2254479D01*
G01*
X128459173Y-108832815D02*
G75*
G02X127995170Y-103485000I1080827J2787815D01*
G01*
X130620827Y-108832815D02*
G75*
G03X131084830Y-103485000I-1080827J2787815D01*
G01*
X128460000Y-128885000D02*
X127995000Y-128885000D01*
X131085000Y-128885000D02*
X130620000Y-128885000D01*
X128459571Y-133699479D02*
G75*
G02X128460000Y-129190316I1080429J2254479D01*
G01*
X130620429Y-133699479D02*
G75*
G03X130620000Y-129190316I-1080429J2254479D01*
G01*
X128459173Y-134232815D02*
G75*
G02X127995170Y-128885000I1080827J2787815D01*
G01*
X130620827Y-134232815D02*
G75*
G03X131084830Y-128885000I-1080827J2787815D01*
G01*
X128460000Y-154285000D02*
X127995000Y-154285000D01*
X131085000Y-154285000D02*
X130620000Y-154285000D01*
X128459571Y-159099479D02*
G75*
G02X128460000Y-154590316I1080429J2254479D01*
G01*
X130620429Y-159099479D02*
G75*
G03X130620000Y-154590316I-1080429J2254479D01*
G01*
X128459173Y-159632815D02*
G75*
G02X127995170Y-154285000I1080827J2787815D01*
G01*
X130620827Y-159632815D02*
G75*
G03X131084830Y-154285000I-1080827J2787815D01*
G01*
X156020000Y-32405000D02*
X156485000Y-32405000D01*
X153395000Y-32405000D02*
X153860000Y-32405000D01*
X156020429Y-27590521D02*
G75*
G02X156020000Y-32099684I-1080429J-2254479D01*
G01*
X153859571Y-27590521D02*
G75*
G03X153860000Y-32099684I1080429J-2254479D01*
G01*
X156020827Y-27057185D02*
G75*
G02X156484830Y-32405000I-1080827J-2787815D01*
G01*
X153859173Y-27057185D02*
G75*
G03X153395170Y-32405000I1080827J-2787815D01*
G01*
X156020000Y-57805000D02*
X156485000Y-57805000D01*
X153395000Y-57805000D02*
X153860000Y-57805000D01*
X156020429Y-52990521D02*
G75*
G02X156020000Y-57499684I-1080429J-2254479D01*
G01*
X153859571Y-52990521D02*
G75*
G03X153860000Y-57499684I1080429J-2254479D01*
G01*
X156020827Y-52457185D02*
G75*
G02X156484830Y-57805000I-1080827J-2787815D01*
G01*
X153859173Y-52457185D02*
G75*
G03X153395170Y-57805000I1080827J-2787815D01*
G01*
X153859173Y-77857185D02*
G75*
G03X153395170Y-83205000I1080827J-2787815D01*
G01*
X156020827Y-77857185D02*
G75*
G02X156484830Y-83205000I-1080827J-2787815D01*
G01*
X153859571Y-78390521D02*
G75*
G03X153860000Y-82899684I1080429J-2254479D01*
G01*
X156020429Y-78390521D02*
G75*
G02X156020000Y-82899684I-1080429J-2254479D01*
G01*
X153395000Y-83205000D02*
X153860000Y-83205000D01*
X156020000Y-83205000D02*
X156485000Y-83205000D01*
X156020000Y-108605000D02*
X156485000Y-108605000D01*
X153395000Y-108605000D02*
X153860000Y-108605000D01*
X156020429Y-103790521D02*
G75*
G02X156020000Y-108299684I-1080429J-2254479D01*
G01*
X153859571Y-103790521D02*
G75*
G03X153860000Y-108299684I1080429J-2254479D01*
G01*
X156020827Y-103257185D02*
G75*
G02X156484830Y-108605000I-1080827J-2787815D01*
G01*
X153859173Y-103257185D02*
G75*
G03X153395170Y-108605000I1080827J-2787815D01*
G01*
X156020000Y-134005000D02*
X156485000Y-134005000D01*
X153395000Y-134005000D02*
X153860000Y-134005000D01*
X156020429Y-129190521D02*
G75*
G02X156020000Y-133699684I-1080429J-2254479D01*
G01*
X153859571Y-129190521D02*
G75*
G03X153860000Y-133699684I1080429J-2254479D01*
G01*
X156020827Y-128657185D02*
G75*
G02X156484830Y-134005000I-1080827J-2787815D01*
G01*
X153859173Y-128657185D02*
G75*
G03X153395170Y-134005000I1080827J-2787815D01*
G01*
X156020000Y-159405000D02*
X156485000Y-159405000D01*
X153395000Y-159405000D02*
X153860000Y-159405000D01*
X156020429Y-154590521D02*
G75*
G02X156020000Y-159099684I-1080429J-2254479D01*
G01*
X153859571Y-154590521D02*
G75*
G03X153860000Y-159099684I1080429J-2254479D01*
G01*
X156020827Y-154057185D02*
G75*
G02X156484830Y-159405000I-1080827J-2787815D01*
G01*
X153859173Y-154057185D02*
G75*
G03X153395170Y-159405000I1080827J-2787815D01*
G01*
X181420827Y-32632815D02*
G75*
G03X181884830Y-27285000I-1080827J2787815D01*
G01*
X179259173Y-32632815D02*
G75*
G02X178795170Y-27285000I1080827J2787815D01*
G01*
X181420429Y-32099479D02*
G75*
G03X181420000Y-27590316I-1080429J2254479D01*
G01*
X179259571Y-32099479D02*
G75*
G02X179260000Y-27590316I1080429J2254479D01*
G01*
X181885000Y-27285000D02*
X181420000Y-27285000D01*
X179260000Y-27285000D02*
X178795000Y-27285000D01*
X179260000Y-52685000D02*
X178795000Y-52685000D01*
X181885000Y-52685000D02*
X181420000Y-52685000D01*
X179259571Y-57499479D02*
G75*
G02X179260000Y-52990316I1080429J2254479D01*
G01*
X181420429Y-57499479D02*
G75*
G03X181420000Y-52990316I-1080429J2254479D01*
G01*
X179259173Y-58032815D02*
G75*
G02X178795170Y-52685000I1080827J2787815D01*
G01*
X181420827Y-58032815D02*
G75*
G03X181884830Y-52685000I-1080827J2787815D01*
G01*
X181420827Y-83432815D02*
G75*
G03X181884830Y-78085000I-1080827J2787815D01*
G01*
X179259173Y-83432815D02*
G75*
G02X178795170Y-78085000I1080827J2787815D01*
G01*
X181420429Y-82899479D02*
G75*
G03X181420000Y-78390316I-1080429J2254479D01*
G01*
X179259571Y-82899479D02*
G75*
G02X179260000Y-78390316I1080429J2254479D01*
G01*
X181885000Y-78085000D02*
X181420000Y-78085000D01*
X179260000Y-78085000D02*
X178795000Y-78085000D01*
X179260000Y-103485000D02*
X178795000Y-103485000D01*
X181885000Y-103485000D02*
X181420000Y-103485000D01*
X179259571Y-108299479D02*
G75*
G02X179260000Y-103790316I1080429J2254479D01*
G01*
X181420429Y-108299479D02*
G75*
G03X181420000Y-103790316I-1080429J2254479D01*
G01*
X179259173Y-108832815D02*
G75*
G02X178795170Y-103485000I1080827J2787815D01*
G01*
X181420827Y-108832815D02*
G75*
G03X181884830Y-103485000I-1080827J2787815D01*
G01*
X179260000Y-128885000D02*
X178795000Y-128885000D01*
X181885000Y-128885000D02*
X181420000Y-128885000D01*
X179259571Y-133699479D02*
G75*
G02X179260000Y-129190316I1080429J2254479D01*
G01*
X181420429Y-133699479D02*
G75*
G03X181420000Y-129190316I-1080429J2254479D01*
G01*
X179259173Y-134232815D02*
G75*
G02X178795170Y-128885000I1080827J2787815D01*
G01*
X181420827Y-134232815D02*
G75*
G03X181884830Y-128885000I-1080827J2787815D01*
G01*
X179260000Y-154285000D02*
X178795000Y-154285000D01*
X181885000Y-154285000D02*
X181420000Y-154285000D01*
X179259571Y-159099479D02*
G75*
G02X179260000Y-154590316I1080429J2254479D01*
G01*
X181420429Y-159099479D02*
G75*
G03X181420000Y-154590316I-1080429J2254479D01*
G01*
X179259173Y-159632815D02*
G75*
G02X178795170Y-154285000I1080827J2787815D01*
G01*
X181420827Y-159632815D02*
G75*
G03X181884830Y-154285000I-1080827J2787815D01*
G01*
X204659173Y-27057185D02*
G75*
G03X204195170Y-32405000I1080827J-2787815D01*
G01*
X206820827Y-27057185D02*
G75*
G02X207284830Y-32405000I-1080827J-2787815D01*
G01*
X204659571Y-27590521D02*
G75*
G03X204660000Y-32099684I1080429J-2254479D01*
G01*
X206820429Y-27590521D02*
G75*
G02X206820000Y-32099684I-1080429J-2254479D01*
G01*
X204195000Y-32405000D02*
X204660000Y-32405000D01*
X206820000Y-32405000D02*
X207285000Y-32405000D01*
X206820000Y-57805000D02*
X207285000Y-57805000D01*
X204195000Y-57805000D02*
X204660000Y-57805000D01*
X206820429Y-52990521D02*
G75*
G02X206820000Y-57499684I-1080429J-2254479D01*
G01*
X204659571Y-52990521D02*
G75*
G03X204660000Y-57499684I1080429J-2254479D01*
G01*
X206820827Y-52457185D02*
G75*
G02X207284830Y-57805000I-1080827J-2787815D01*
G01*
X204659173Y-52457185D02*
G75*
G03X204195170Y-57805000I1080827J-2787815D01*
G01*
X204659173Y-77857185D02*
G75*
G03X204195170Y-83205000I1080827J-2787815D01*
G01*
X206820827Y-77857185D02*
G75*
G02X207284830Y-83205000I-1080827J-2787815D01*
G01*
X204659571Y-78390521D02*
G75*
G03X204660000Y-82899684I1080429J-2254479D01*
G01*
X206820429Y-78390521D02*
G75*
G02X206820000Y-82899684I-1080429J-2254479D01*
G01*
X204195000Y-83205000D02*
X204660000Y-83205000D01*
X206820000Y-83205000D02*
X207285000Y-83205000D01*
X206820000Y-108605000D02*
X207285000Y-108605000D01*
X204195000Y-108605000D02*
X204660000Y-108605000D01*
X206820429Y-103790521D02*
G75*
G02X206820000Y-108299684I-1080429J-2254479D01*
G01*
X204659571Y-103790521D02*
G75*
G03X204660000Y-108299684I1080429J-2254479D01*
G01*
X206820827Y-103257185D02*
G75*
G02X207284830Y-108605000I-1080827J-2787815D01*
G01*
X204659173Y-103257185D02*
G75*
G03X204195170Y-108605000I1080827J-2787815D01*
G01*
X206820000Y-134005000D02*
X207285000Y-134005000D01*
X204195000Y-134005000D02*
X204660000Y-134005000D01*
X206820429Y-129190521D02*
G75*
G02X206820000Y-133699684I-1080429J-2254479D01*
G01*
X204659571Y-129190521D02*
G75*
G03X204660000Y-133699684I1080429J-2254479D01*
G01*
X206820827Y-128657185D02*
G75*
G02X207284830Y-134005000I-1080827J-2787815D01*
G01*
X204659173Y-128657185D02*
G75*
G03X204195170Y-134005000I1080827J-2787815D01*
G01*
X160400000Y-162100000D02*
X158900000Y-162100000D01*
X160400000Y-163840000D02*
X160400000Y-162100000D01*
X124340000Y-169460000D02*
X124340000Y-162340000D01*
X160160000Y-169460000D02*
X160160000Y-162340000D01*
X160160000Y-162340000D02*
X124340000Y-162340000D01*
X160160000Y-169460000D02*
X124340000Y-169460000D01*
X160160000Y-163900000D02*
X124340000Y-163900000D01*
X128055000Y-166000000D02*
G75*
G03X128055000Y-166000000I-1555000J0D01*
G01*
X131555000Y-166000000D02*
G75*
G03X131555000Y-166000000I-1555000J0D01*
G01*
X135055000Y-166000000D02*
G75*
G03X135055000Y-166000000I-1555000J0D01*
G01*
X138555000Y-166000000D02*
G75*
G03X138555000Y-166000000I-1555000J0D01*
G01*
X142055000Y-166000000D02*
G75*
G03X142055000Y-166000000I-1555000J0D01*
G01*
X145555000Y-166000000D02*
G75*
G03X145555000Y-166000000I-1555000J0D01*
G01*
X149055000Y-166000000D02*
G75*
G03X149055000Y-166000000I-1555000J0D01*
G01*
X152555000Y-166000000D02*
G75*
G03X152555000Y-166000000I-1555000J0D01*
G01*
X156055000Y-166000000D02*
G75*
G03X156055000Y-166000000I-1555000J0D01*
G01*
X157972989Y-164444508D02*
G75*
G02X158608000Y-164568000I27011J-1555492D01*
G01*
X159432109Y-165392258D02*
G75*
G02X159432000Y-166608000I-1432109J-607742D01*
G01*
X158607742Y-167432109D02*
G75*
G02X157392000Y-167432000I-607742J1432109D01*
G01*
X156567891Y-166607742D02*
G75*
G02X156568000Y-165392000I1432109J607742D01*
G01*
X157392413Y-164568615D02*
G75*
G02X158000000Y-164445000I607587J-1431385D01*
G01*
X198238748Y-157710000D02*
X198761252Y-157710000D01*
X198238748Y-156290000D02*
X198761252Y-156290000D01*
X198238748Y-132210000D02*
X198761252Y-132210000D01*
X198238748Y-130790000D02*
X198761252Y-130790000D01*
X198238748Y-106710000D02*
X198761252Y-106710000D01*
X198238748Y-105290000D02*
X198761252Y-105290000D01*
X198238748Y-81710000D02*
X198761252Y-81710000D01*
X198238748Y-80290000D02*
X198761252Y-80290000D01*
X198238748Y-56210000D02*
X198761252Y-56210000D01*
X198238748Y-54790000D02*
X198761252Y-54790000D01*
X198238748Y-30710000D02*
X198761252Y-30710000D01*
X198238748Y-29290000D02*
X198761252Y-29290000D01*
X187761252Y-156290000D02*
X187238748Y-156290000D01*
X187761252Y-157710000D02*
X187238748Y-157710000D01*
X187761252Y-132210000D02*
X187238748Y-132210000D01*
X187761252Y-130790000D02*
X187238748Y-130790000D01*
X187761252Y-105290000D02*
X187238748Y-105290000D01*
X187761252Y-106710000D02*
X187238748Y-106710000D01*
X187761252Y-80290000D02*
X187238748Y-80290000D01*
X187761252Y-81710000D02*
X187238748Y-81710000D01*
X187761252Y-54790000D02*
X187238748Y-54790000D01*
X187761252Y-56210000D02*
X187238748Y-56210000D01*
X187761252Y-29290000D02*
X187238748Y-29290000D01*
X187761252Y-30710000D02*
X187238748Y-30710000D01*
X162261252Y-156290000D02*
X161738748Y-156290000D01*
X162261252Y-157710000D02*
X161738748Y-157710000D01*
X162261252Y-130790000D02*
X161738748Y-130790000D01*
X162261252Y-132210000D02*
X161738748Y-132210000D01*
X162261252Y-105290000D02*
X161738748Y-105290000D01*
X162261252Y-106710000D02*
X161738748Y-106710000D01*
X162261252Y-80290000D02*
X161738748Y-80290000D01*
X162261252Y-81710000D02*
X161738748Y-81710000D01*
X162261252Y-54790000D02*
X161738748Y-54790000D01*
X162261252Y-56210000D02*
X161738748Y-56210000D01*
X162261252Y-29290000D02*
X161738748Y-29290000D01*
X162261252Y-30710000D02*
X161738748Y-30710000D01*
X136761252Y-156290000D02*
X136238748Y-156290000D01*
X136761252Y-157710000D02*
X136238748Y-157710000D01*
X136761252Y-130790000D02*
X136238748Y-130790000D01*
X136761252Y-132210000D02*
X136238748Y-132210000D01*
X136761252Y-105290000D02*
X136238748Y-105290000D01*
X136761252Y-106710000D02*
X136238748Y-106710000D01*
X136761252Y-80290000D02*
X136238748Y-80290000D01*
X136761252Y-81710000D02*
X136238748Y-81710000D01*
X136761252Y-54290000D02*
X136238748Y-54290000D01*
X136761252Y-55710000D02*
X136238748Y-55710000D01*
X136761252Y-29290000D02*
X136238748Y-29290000D01*
X136761252Y-30710000D02*
X136238748Y-30710000D01*
X111761252Y-157710000D02*
X111238748Y-157710000D01*
X111761252Y-156290000D02*
X111238748Y-156290000D01*
X111761252Y-130790000D02*
X111238748Y-130790000D01*
X111761252Y-132210000D02*
X111238748Y-132210000D01*
X111761252Y-106710000D02*
X111238748Y-106710000D01*
X111761252Y-105290000D02*
X111238748Y-105290000D01*
X111761252Y-81710000D02*
X111238748Y-81710000D01*
X111761252Y-80290000D02*
X111238748Y-80290000D01*
X111761252Y-56210000D02*
X111238748Y-56210000D01*
X111761252Y-54790000D02*
X111238748Y-54790000D01*
X111761252Y-30710000D02*
X111238748Y-30710000D01*
X111761252Y-29290000D02*
X111238748Y-29290000D01*
X85761252Y-156290000D02*
X85238748Y-156290000D01*
X85761252Y-157710000D02*
X85238748Y-157710000D01*
X85761252Y-132210000D02*
X85238748Y-132210000D01*
X85761252Y-130790000D02*
X85238748Y-130790000D01*
X85761252Y-105290000D02*
X85238748Y-105290000D01*
X85761252Y-106710000D02*
X85238748Y-106710000D01*
X85736252Y-80290000D02*
X85213748Y-80290000D01*
X85736252Y-81710000D02*
X85213748Y-81710000D01*
X85761252Y-54790000D02*
X85238748Y-54790000D01*
X85761252Y-56210000D02*
X85238748Y-56210000D01*
X85761252Y-29290000D02*
X85238748Y-29290000D01*
X85761252Y-30710000D02*
X85238748Y-30710000D01*
D11*
X70976190Y-32952380D02*
X70976190Y-31952380D01*
X71309523Y-32666666D01*
X71642857Y-31952380D01*
X71642857Y-32952380D01*
X72071428Y-32047619D02*
X72119047Y-32000000D01*
X72214285Y-31952380D01*
X72452380Y-31952380D01*
X72547619Y-32000000D01*
X72595238Y-32047619D01*
X72642857Y-32142857D01*
X72642857Y-32238095D01*
X72595238Y-32380952D01*
X72023809Y-32952380D01*
X72642857Y-32952380D01*
X73071428Y-32857142D02*
X73119047Y-32904761D01*
X73071428Y-32952380D01*
X73023809Y-32904761D01*
X73071428Y-32857142D01*
X73071428Y-32952380D01*
X74023809Y-31952380D02*
X73547619Y-31952380D01*
X73500000Y-32428571D01*
X73547619Y-32380952D01*
X73642857Y-32333333D01*
X73880952Y-32333333D01*
X73976190Y-32380952D01*
X74023809Y-32428571D01*
X74071428Y-32523809D01*
X74071428Y-32761904D01*
X74023809Y-32857142D01*
X73976190Y-32904761D01*
X73880952Y-32952380D01*
X73642857Y-32952380D01*
X73547619Y-32904761D01*
X73500000Y-32857142D01*
X70976190Y-160452380D02*
X70976190Y-159452380D01*
X71309523Y-160166666D01*
X71642857Y-159452380D01*
X71642857Y-160452380D01*
X72071428Y-159547619D02*
X72119047Y-159500000D01*
X72214285Y-159452380D01*
X72452380Y-159452380D01*
X72547619Y-159500000D01*
X72595238Y-159547619D01*
X72642857Y-159642857D01*
X72642857Y-159738095D01*
X72595238Y-159880952D01*
X72023809Y-160452380D01*
X72642857Y-160452380D01*
X73071428Y-160357142D02*
X73119047Y-160404761D01*
X73071428Y-160452380D01*
X73023809Y-160404761D01*
X73071428Y-160357142D01*
X73071428Y-160452380D01*
X74023809Y-159452380D02*
X73547619Y-159452380D01*
X73500000Y-159928571D01*
X73547619Y-159880952D01*
X73642857Y-159833333D01*
X73880952Y-159833333D01*
X73976190Y-159880952D01*
X74023809Y-159928571D01*
X74071428Y-160023809D01*
X74071428Y-160261904D01*
X74023809Y-160357142D01*
X73976190Y-160404761D01*
X73880952Y-160452380D01*
X73642857Y-160452380D01*
X73547619Y-160404761D01*
X73500000Y-160357142D01*
X210476190Y-160452380D02*
X210476190Y-159452380D01*
X210809523Y-160166666D01*
X211142857Y-159452380D01*
X211142857Y-160452380D01*
X211571428Y-159547619D02*
X211619047Y-159500000D01*
X211714285Y-159452380D01*
X211952380Y-159452380D01*
X212047619Y-159500000D01*
X212095238Y-159547619D01*
X212142857Y-159642857D01*
X212142857Y-159738095D01*
X212095238Y-159880952D01*
X211523809Y-160452380D01*
X212142857Y-160452380D01*
X212571428Y-160357142D02*
X212619047Y-160404761D01*
X212571428Y-160452380D01*
X212523809Y-160404761D01*
X212571428Y-160357142D01*
X212571428Y-160452380D01*
X213523809Y-159452380D02*
X213047619Y-159452380D01*
X213000000Y-159928571D01*
X213047619Y-159880952D01*
X213142857Y-159833333D01*
X213380952Y-159833333D01*
X213476190Y-159880952D01*
X213523809Y-159928571D01*
X213571428Y-160023809D01*
X213571428Y-160261904D01*
X213523809Y-160357142D01*
X213476190Y-160404761D01*
X213380952Y-160452380D01*
X213142857Y-160452380D01*
X213047619Y-160404761D01*
X213000000Y-160357142D01*
X211976190Y-32952380D02*
X211976190Y-31952380D01*
X212309523Y-32666666D01*
X212642857Y-31952380D01*
X212642857Y-32952380D01*
X213071428Y-32047619D02*
X213119047Y-32000000D01*
X213214285Y-31952380D01*
X213452380Y-31952380D01*
X213547619Y-32000000D01*
X213595238Y-32047619D01*
X213642857Y-32142857D01*
X213642857Y-32238095D01*
X213595238Y-32380952D01*
X213023809Y-32952380D01*
X213642857Y-32952380D01*
X214071428Y-32857142D02*
X214119047Y-32904761D01*
X214071428Y-32952380D01*
X214023809Y-32904761D01*
X214071428Y-32857142D01*
X214071428Y-32952380D01*
X215023809Y-31952380D02*
X214547619Y-31952380D01*
X214500000Y-32428571D01*
X214547619Y-32380952D01*
X214642857Y-32333333D01*
X214880952Y-32333333D01*
X214976190Y-32380952D01*
X215023809Y-32428571D01*
X215071428Y-32523809D01*
X215071428Y-32761904D01*
X215023809Y-32857142D01*
X214976190Y-32904761D01*
X214880952Y-32952380D01*
X214642857Y-32952380D01*
X214547619Y-32904761D01*
X214500000Y-32857142D01*
X202232380Y-158059285D02*
X201232380Y-158059285D01*
X201232380Y-157821190D01*
X201280000Y-157678333D01*
X201375238Y-157583095D01*
X201470476Y-157535476D01*
X201660952Y-157487857D01*
X201803809Y-157487857D01*
X201994285Y-157535476D01*
X202089523Y-157583095D01*
X202184761Y-157678333D01*
X202232380Y-157821190D01*
X202232380Y-158059285D01*
X201232380Y-157154523D02*
X201232380Y-156535476D01*
X201613333Y-156868809D01*
X201613333Y-156725952D01*
X201660952Y-156630714D01*
X201708571Y-156583095D01*
X201803809Y-156535476D01*
X202041904Y-156535476D01*
X202137142Y-156583095D01*
X202184761Y-156630714D01*
X202232380Y-156725952D01*
X202232380Y-157011666D01*
X202184761Y-157106904D01*
X202137142Y-157154523D01*
X201232380Y-155678333D02*
X201232380Y-155868809D01*
X201280000Y-155964047D01*
X201327619Y-156011666D01*
X201470476Y-156106904D01*
X201660952Y-156154523D01*
X202041904Y-156154523D01*
X202137142Y-156106904D01*
X202184761Y-156059285D01*
X202232380Y-155964047D01*
X202232380Y-155773571D01*
X202184761Y-155678333D01*
X202137142Y-155630714D01*
X202041904Y-155583095D01*
X201803809Y-155583095D01*
X201708571Y-155630714D01*
X201660952Y-155678333D01*
X201613333Y-155773571D01*
X201613333Y-155964047D01*
X201660952Y-156059285D01*
X201708571Y-156106904D01*
X201803809Y-156154523D01*
X83152380Y-30583095D02*
X82152380Y-30583095D01*
X82152380Y-30345000D01*
X82200000Y-30202142D01*
X82295238Y-30106904D01*
X82390476Y-30059285D01*
X82580952Y-30011666D01*
X82723809Y-30011666D01*
X82914285Y-30059285D01*
X83009523Y-30106904D01*
X83104761Y-30202142D01*
X83152380Y-30345000D01*
X83152380Y-30583095D01*
X83152380Y-29059285D02*
X83152380Y-29630714D01*
X83152380Y-29345000D02*
X82152380Y-29345000D01*
X82295238Y-29440238D01*
X82390476Y-29535476D01*
X82438095Y-29630714D01*
X83152380Y-55983095D02*
X82152380Y-55983095D01*
X82152380Y-55745000D01*
X82200000Y-55602142D01*
X82295238Y-55506904D01*
X82390476Y-55459285D01*
X82580952Y-55411666D01*
X82723809Y-55411666D01*
X82914285Y-55459285D01*
X83009523Y-55506904D01*
X83104761Y-55602142D01*
X83152380Y-55745000D01*
X83152380Y-55983095D01*
X82247619Y-55030714D02*
X82200000Y-54983095D01*
X82152380Y-54887857D01*
X82152380Y-54649761D01*
X82200000Y-54554523D01*
X82247619Y-54506904D01*
X82342857Y-54459285D01*
X82438095Y-54459285D01*
X82580952Y-54506904D01*
X83152380Y-55078333D01*
X83152380Y-54459285D01*
X83152380Y-81383095D02*
X82152380Y-81383095D01*
X82152380Y-81145000D01*
X82200000Y-81002142D01*
X82295238Y-80906904D01*
X82390476Y-80859285D01*
X82580952Y-80811666D01*
X82723809Y-80811666D01*
X82914285Y-80859285D01*
X83009523Y-80906904D01*
X83104761Y-81002142D01*
X83152380Y-81145000D01*
X83152380Y-81383095D01*
X82152380Y-80478333D02*
X82152380Y-79859285D01*
X82533333Y-80192619D01*
X82533333Y-80049761D01*
X82580952Y-79954523D01*
X82628571Y-79906904D01*
X82723809Y-79859285D01*
X82961904Y-79859285D01*
X83057142Y-79906904D01*
X83104761Y-79954523D01*
X83152380Y-80049761D01*
X83152380Y-80335476D01*
X83104761Y-80430714D01*
X83057142Y-80478333D01*
X83152380Y-106783095D02*
X82152380Y-106783095D01*
X82152380Y-106545000D01*
X82200000Y-106402142D01*
X82295238Y-106306904D01*
X82390476Y-106259285D01*
X82580952Y-106211666D01*
X82723809Y-106211666D01*
X82914285Y-106259285D01*
X83009523Y-106306904D01*
X83104761Y-106402142D01*
X83152380Y-106545000D01*
X83152380Y-106783095D01*
X82485714Y-105354523D02*
X83152380Y-105354523D01*
X82104761Y-105592619D02*
X82819047Y-105830714D01*
X82819047Y-105211666D01*
X83152380Y-132183095D02*
X82152380Y-132183095D01*
X82152380Y-131945000D01*
X82200000Y-131802142D01*
X82295238Y-131706904D01*
X82390476Y-131659285D01*
X82580952Y-131611666D01*
X82723809Y-131611666D01*
X82914285Y-131659285D01*
X83009523Y-131706904D01*
X83104761Y-131802142D01*
X83152380Y-131945000D01*
X83152380Y-132183095D01*
X82152380Y-130706904D02*
X82152380Y-131183095D01*
X82628571Y-131230714D01*
X82580952Y-131183095D01*
X82533333Y-131087857D01*
X82533333Y-130849761D01*
X82580952Y-130754523D01*
X82628571Y-130706904D01*
X82723809Y-130659285D01*
X82961904Y-130659285D01*
X83057142Y-130706904D01*
X83104761Y-130754523D01*
X83152380Y-130849761D01*
X83152380Y-131087857D01*
X83104761Y-131183095D01*
X83057142Y-131230714D01*
X83152380Y-157583095D02*
X82152380Y-157583095D01*
X82152380Y-157345000D01*
X82200000Y-157202142D01*
X82295238Y-157106904D01*
X82390476Y-157059285D01*
X82580952Y-157011666D01*
X82723809Y-157011666D01*
X82914285Y-157059285D01*
X83009523Y-157106904D01*
X83104761Y-157202142D01*
X83152380Y-157345000D01*
X83152380Y-157583095D01*
X82152380Y-156154523D02*
X82152380Y-156345000D01*
X82200000Y-156440238D01*
X82247619Y-156487857D01*
X82390476Y-156583095D01*
X82580952Y-156630714D01*
X82961904Y-156630714D01*
X83057142Y-156583095D01*
X83104761Y-156535476D01*
X83152380Y-156440238D01*
X83152380Y-156249761D01*
X83104761Y-156154523D01*
X83057142Y-156106904D01*
X82961904Y-156059285D01*
X82723809Y-156059285D01*
X82628571Y-156106904D01*
X82580952Y-156154523D01*
X82533333Y-156249761D01*
X82533333Y-156440238D01*
X82580952Y-156535476D01*
X82628571Y-156583095D01*
X82723809Y-156630714D01*
X100632380Y-30583095D02*
X99632380Y-30583095D01*
X99632380Y-30345000D01*
X99680000Y-30202142D01*
X99775238Y-30106904D01*
X99870476Y-30059285D01*
X100060952Y-30011666D01*
X100203809Y-30011666D01*
X100394285Y-30059285D01*
X100489523Y-30106904D01*
X100584761Y-30202142D01*
X100632380Y-30345000D01*
X100632380Y-30583095D01*
X99632380Y-29678333D02*
X99632380Y-29011666D01*
X100632380Y-29440238D01*
X100632380Y-55983095D02*
X99632380Y-55983095D01*
X99632380Y-55745000D01*
X99680000Y-55602142D01*
X99775238Y-55506904D01*
X99870476Y-55459285D01*
X100060952Y-55411666D01*
X100203809Y-55411666D01*
X100394285Y-55459285D01*
X100489523Y-55506904D01*
X100584761Y-55602142D01*
X100632380Y-55745000D01*
X100632380Y-55983095D01*
X100060952Y-54840238D02*
X100013333Y-54935476D01*
X99965714Y-54983095D01*
X99870476Y-55030714D01*
X99822857Y-55030714D01*
X99727619Y-54983095D01*
X99680000Y-54935476D01*
X99632380Y-54840238D01*
X99632380Y-54649761D01*
X99680000Y-54554523D01*
X99727619Y-54506904D01*
X99822857Y-54459285D01*
X99870476Y-54459285D01*
X99965714Y-54506904D01*
X100013333Y-54554523D01*
X100060952Y-54649761D01*
X100060952Y-54840238D01*
X100108571Y-54935476D01*
X100156190Y-54983095D01*
X100251428Y-55030714D01*
X100441904Y-55030714D01*
X100537142Y-54983095D01*
X100584761Y-54935476D01*
X100632380Y-54840238D01*
X100632380Y-54649761D01*
X100584761Y-54554523D01*
X100537142Y-54506904D01*
X100441904Y-54459285D01*
X100251428Y-54459285D01*
X100156190Y-54506904D01*
X100108571Y-54554523D01*
X100060952Y-54649761D01*
X100632380Y-81383095D02*
X99632380Y-81383095D01*
X99632380Y-81145000D01*
X99680000Y-81002142D01*
X99775238Y-80906904D01*
X99870476Y-80859285D01*
X100060952Y-80811666D01*
X100203809Y-80811666D01*
X100394285Y-80859285D01*
X100489523Y-80906904D01*
X100584761Y-81002142D01*
X100632380Y-81145000D01*
X100632380Y-81383095D01*
X100632380Y-80335476D02*
X100632380Y-80145000D01*
X100584761Y-80049761D01*
X100537142Y-80002142D01*
X100394285Y-79906904D01*
X100203809Y-79859285D01*
X99822857Y-79859285D01*
X99727619Y-79906904D01*
X99680000Y-79954523D01*
X99632380Y-80049761D01*
X99632380Y-80240238D01*
X99680000Y-80335476D01*
X99727619Y-80383095D01*
X99822857Y-80430714D01*
X100060952Y-80430714D01*
X100156190Y-80383095D01*
X100203809Y-80335476D01*
X100251428Y-80240238D01*
X100251428Y-80049761D01*
X100203809Y-79954523D01*
X100156190Y-79906904D01*
X100060952Y-79859285D01*
X100632380Y-107259285D02*
X99632380Y-107259285D01*
X99632380Y-107021190D01*
X99680000Y-106878333D01*
X99775238Y-106783095D01*
X99870476Y-106735476D01*
X100060952Y-106687857D01*
X100203809Y-106687857D01*
X100394285Y-106735476D01*
X100489523Y-106783095D01*
X100584761Y-106878333D01*
X100632380Y-107021190D01*
X100632380Y-107259285D01*
X100632380Y-105735476D02*
X100632380Y-106306904D01*
X100632380Y-106021190D02*
X99632380Y-106021190D01*
X99775238Y-106116428D01*
X99870476Y-106211666D01*
X99918095Y-106306904D01*
X99632380Y-105116428D02*
X99632380Y-105021190D01*
X99680000Y-104925952D01*
X99727619Y-104878333D01*
X99822857Y-104830714D01*
X100013333Y-104783095D01*
X100251428Y-104783095D01*
X100441904Y-104830714D01*
X100537142Y-104878333D01*
X100584761Y-104925952D01*
X100632380Y-105021190D01*
X100632380Y-105116428D01*
X100584761Y-105211666D01*
X100537142Y-105259285D01*
X100441904Y-105306904D01*
X100251428Y-105354523D01*
X100013333Y-105354523D01*
X99822857Y-105306904D01*
X99727619Y-105259285D01*
X99680000Y-105211666D01*
X99632380Y-105116428D01*
X100632380Y-132659285D02*
X99632380Y-132659285D01*
X99632380Y-132421190D01*
X99680000Y-132278333D01*
X99775238Y-132183095D01*
X99870476Y-132135476D01*
X100060952Y-132087857D01*
X100203809Y-132087857D01*
X100394285Y-132135476D01*
X100489523Y-132183095D01*
X100584761Y-132278333D01*
X100632380Y-132421190D01*
X100632380Y-132659285D01*
X100632380Y-131135476D02*
X100632380Y-131706904D01*
X100632380Y-131421190D02*
X99632380Y-131421190D01*
X99775238Y-131516428D01*
X99870476Y-131611666D01*
X99918095Y-131706904D01*
X100632380Y-130183095D02*
X100632380Y-130754523D01*
X100632380Y-130468809D02*
X99632380Y-130468809D01*
X99775238Y-130564047D01*
X99870476Y-130659285D01*
X99918095Y-130754523D01*
X100632380Y-158059285D02*
X99632380Y-158059285D01*
X99632380Y-157821190D01*
X99680000Y-157678333D01*
X99775238Y-157583095D01*
X99870476Y-157535476D01*
X100060952Y-157487857D01*
X100203809Y-157487857D01*
X100394285Y-157535476D01*
X100489523Y-157583095D01*
X100584761Y-157678333D01*
X100632380Y-157821190D01*
X100632380Y-158059285D01*
X100632380Y-156535476D02*
X100632380Y-157106904D01*
X100632380Y-156821190D02*
X99632380Y-156821190D01*
X99775238Y-156916428D01*
X99870476Y-157011666D01*
X99918095Y-157106904D01*
X99727619Y-156154523D02*
X99680000Y-156106904D01*
X99632380Y-156011666D01*
X99632380Y-155773571D01*
X99680000Y-155678333D01*
X99727619Y-155630714D01*
X99822857Y-155583095D01*
X99918095Y-155583095D01*
X100060952Y-155630714D01*
X100632380Y-156202142D01*
X100632380Y-155583095D01*
X133952380Y-31059285D02*
X132952380Y-31059285D01*
X132952380Y-30821190D01*
X133000000Y-30678333D01*
X133095238Y-30583095D01*
X133190476Y-30535476D01*
X133380952Y-30487857D01*
X133523809Y-30487857D01*
X133714285Y-30535476D01*
X133809523Y-30583095D01*
X133904761Y-30678333D01*
X133952380Y-30821190D01*
X133952380Y-31059285D01*
X133952380Y-29535476D02*
X133952380Y-30106904D01*
X133952380Y-29821190D02*
X132952380Y-29821190D01*
X133095238Y-29916428D01*
X133190476Y-30011666D01*
X133238095Y-30106904D01*
X132952380Y-29202142D02*
X132952380Y-28583095D01*
X133333333Y-28916428D01*
X133333333Y-28773571D01*
X133380952Y-28678333D01*
X133428571Y-28630714D01*
X133523809Y-28583095D01*
X133761904Y-28583095D01*
X133857142Y-28630714D01*
X133904761Y-28678333D01*
X133952380Y-28773571D01*
X133952380Y-29059285D01*
X133904761Y-29154523D01*
X133857142Y-29202142D01*
X133952380Y-56459285D02*
X132952380Y-56459285D01*
X132952380Y-56221190D01*
X133000000Y-56078333D01*
X133095238Y-55983095D01*
X133190476Y-55935476D01*
X133380952Y-55887857D01*
X133523809Y-55887857D01*
X133714285Y-55935476D01*
X133809523Y-55983095D01*
X133904761Y-56078333D01*
X133952380Y-56221190D01*
X133952380Y-56459285D01*
X133952380Y-54935476D02*
X133952380Y-55506904D01*
X133952380Y-55221190D02*
X132952380Y-55221190D01*
X133095238Y-55316428D01*
X133190476Y-55411666D01*
X133238095Y-55506904D01*
X133285714Y-54078333D02*
X133952380Y-54078333D01*
X132904761Y-54316428D02*
X133619047Y-54554523D01*
X133619047Y-53935476D01*
X133952380Y-81859285D02*
X132952380Y-81859285D01*
X132952380Y-81621190D01*
X133000000Y-81478333D01*
X133095238Y-81383095D01*
X133190476Y-81335476D01*
X133380952Y-81287857D01*
X133523809Y-81287857D01*
X133714285Y-81335476D01*
X133809523Y-81383095D01*
X133904761Y-81478333D01*
X133952380Y-81621190D01*
X133952380Y-81859285D01*
X133952380Y-80335476D02*
X133952380Y-80906904D01*
X133952380Y-80621190D02*
X132952380Y-80621190D01*
X133095238Y-80716428D01*
X133190476Y-80811666D01*
X133238095Y-80906904D01*
X132952380Y-79430714D02*
X132952380Y-79906904D01*
X133428571Y-79954523D01*
X133380952Y-79906904D01*
X133333333Y-79811666D01*
X133333333Y-79573571D01*
X133380952Y-79478333D01*
X133428571Y-79430714D01*
X133523809Y-79383095D01*
X133761904Y-79383095D01*
X133857142Y-79430714D01*
X133904761Y-79478333D01*
X133952380Y-79573571D01*
X133952380Y-79811666D01*
X133904761Y-79906904D01*
X133857142Y-79954523D01*
X133952380Y-107259285D02*
X132952380Y-107259285D01*
X132952380Y-107021190D01*
X133000000Y-106878333D01*
X133095238Y-106783095D01*
X133190476Y-106735476D01*
X133380952Y-106687857D01*
X133523809Y-106687857D01*
X133714285Y-106735476D01*
X133809523Y-106783095D01*
X133904761Y-106878333D01*
X133952380Y-107021190D01*
X133952380Y-107259285D01*
X133952380Y-105735476D02*
X133952380Y-106306904D01*
X133952380Y-106021190D02*
X132952380Y-106021190D01*
X133095238Y-106116428D01*
X133190476Y-106211666D01*
X133238095Y-106306904D01*
X132952380Y-104878333D02*
X132952380Y-105068809D01*
X133000000Y-105164047D01*
X133047619Y-105211666D01*
X133190476Y-105306904D01*
X133380952Y-105354523D01*
X133761904Y-105354523D01*
X133857142Y-105306904D01*
X133904761Y-105259285D01*
X133952380Y-105164047D01*
X133952380Y-104973571D01*
X133904761Y-104878333D01*
X133857142Y-104830714D01*
X133761904Y-104783095D01*
X133523809Y-104783095D01*
X133428571Y-104830714D01*
X133380952Y-104878333D01*
X133333333Y-104973571D01*
X133333333Y-105164047D01*
X133380952Y-105259285D01*
X133428571Y-105306904D01*
X133523809Y-105354523D01*
X133952380Y-132659285D02*
X132952380Y-132659285D01*
X132952380Y-132421190D01*
X133000000Y-132278333D01*
X133095238Y-132183095D01*
X133190476Y-132135476D01*
X133380952Y-132087857D01*
X133523809Y-132087857D01*
X133714285Y-132135476D01*
X133809523Y-132183095D01*
X133904761Y-132278333D01*
X133952380Y-132421190D01*
X133952380Y-132659285D01*
X133952380Y-131135476D02*
X133952380Y-131706904D01*
X133952380Y-131421190D02*
X132952380Y-131421190D01*
X133095238Y-131516428D01*
X133190476Y-131611666D01*
X133238095Y-131706904D01*
X132952380Y-130802142D02*
X132952380Y-130135476D01*
X133952380Y-130564047D01*
X133952380Y-158059285D02*
X132952380Y-158059285D01*
X132952380Y-157821190D01*
X133000000Y-157678333D01*
X133095238Y-157583095D01*
X133190476Y-157535476D01*
X133380952Y-157487857D01*
X133523809Y-157487857D01*
X133714285Y-157535476D01*
X133809523Y-157583095D01*
X133904761Y-157678333D01*
X133952380Y-157821190D01*
X133952380Y-158059285D01*
X133952380Y-156535476D02*
X133952380Y-157106904D01*
X133952380Y-156821190D02*
X132952380Y-156821190D01*
X133095238Y-156916428D01*
X133190476Y-157011666D01*
X133238095Y-157106904D01*
X133380952Y-155964047D02*
X133333333Y-156059285D01*
X133285714Y-156106904D01*
X133190476Y-156154523D01*
X133142857Y-156154523D01*
X133047619Y-156106904D01*
X133000000Y-156059285D01*
X132952380Y-155964047D01*
X132952380Y-155773571D01*
X133000000Y-155678333D01*
X133047619Y-155630714D01*
X133142857Y-155583095D01*
X133190476Y-155583095D01*
X133285714Y-155630714D01*
X133333333Y-155678333D01*
X133380952Y-155773571D01*
X133380952Y-155964047D01*
X133428571Y-156059285D01*
X133476190Y-156106904D01*
X133571428Y-156154523D01*
X133761904Y-156154523D01*
X133857142Y-156106904D01*
X133904761Y-156059285D01*
X133952380Y-155964047D01*
X133952380Y-155773571D01*
X133904761Y-155678333D01*
X133857142Y-155630714D01*
X133761904Y-155583095D01*
X133571428Y-155583095D01*
X133476190Y-155630714D01*
X133428571Y-155678333D01*
X133380952Y-155773571D01*
X151432380Y-31059285D02*
X150432380Y-31059285D01*
X150432380Y-30821190D01*
X150480000Y-30678333D01*
X150575238Y-30583095D01*
X150670476Y-30535476D01*
X150860952Y-30487857D01*
X151003809Y-30487857D01*
X151194285Y-30535476D01*
X151289523Y-30583095D01*
X151384761Y-30678333D01*
X151432380Y-30821190D01*
X151432380Y-31059285D01*
X151432380Y-29535476D02*
X151432380Y-30106904D01*
X151432380Y-29821190D02*
X150432380Y-29821190D01*
X150575238Y-29916428D01*
X150670476Y-30011666D01*
X150718095Y-30106904D01*
X151432380Y-29059285D02*
X151432380Y-28868809D01*
X151384761Y-28773571D01*
X151337142Y-28725952D01*
X151194285Y-28630714D01*
X151003809Y-28583095D01*
X150622857Y-28583095D01*
X150527619Y-28630714D01*
X150480000Y-28678333D01*
X150432380Y-28773571D01*
X150432380Y-28964047D01*
X150480000Y-29059285D01*
X150527619Y-29106904D01*
X150622857Y-29154523D01*
X150860952Y-29154523D01*
X150956190Y-29106904D01*
X151003809Y-29059285D01*
X151051428Y-28964047D01*
X151051428Y-28773571D01*
X151003809Y-28678333D01*
X150956190Y-28630714D01*
X150860952Y-28583095D01*
X151432380Y-56459285D02*
X150432380Y-56459285D01*
X150432380Y-56221190D01*
X150480000Y-56078333D01*
X150575238Y-55983095D01*
X150670476Y-55935476D01*
X150860952Y-55887857D01*
X151003809Y-55887857D01*
X151194285Y-55935476D01*
X151289523Y-55983095D01*
X151384761Y-56078333D01*
X151432380Y-56221190D01*
X151432380Y-56459285D01*
X150527619Y-55506904D02*
X150480000Y-55459285D01*
X150432380Y-55364047D01*
X150432380Y-55125952D01*
X150480000Y-55030714D01*
X150527619Y-54983095D01*
X150622857Y-54935476D01*
X150718095Y-54935476D01*
X150860952Y-54983095D01*
X151432380Y-55554523D01*
X151432380Y-54935476D01*
X150432380Y-54316428D02*
X150432380Y-54221190D01*
X150480000Y-54125952D01*
X150527619Y-54078333D01*
X150622857Y-54030714D01*
X150813333Y-53983095D01*
X151051428Y-53983095D01*
X151241904Y-54030714D01*
X151337142Y-54078333D01*
X151384761Y-54125952D01*
X151432380Y-54221190D01*
X151432380Y-54316428D01*
X151384761Y-54411666D01*
X151337142Y-54459285D01*
X151241904Y-54506904D01*
X151051428Y-54554523D01*
X150813333Y-54554523D01*
X150622857Y-54506904D01*
X150527619Y-54459285D01*
X150480000Y-54411666D01*
X150432380Y-54316428D01*
X151432380Y-81859285D02*
X150432380Y-81859285D01*
X150432380Y-81621190D01*
X150480000Y-81478333D01*
X150575238Y-81383095D01*
X150670476Y-81335476D01*
X150860952Y-81287857D01*
X151003809Y-81287857D01*
X151194285Y-81335476D01*
X151289523Y-81383095D01*
X151384761Y-81478333D01*
X151432380Y-81621190D01*
X151432380Y-81859285D01*
X150527619Y-80906904D02*
X150480000Y-80859285D01*
X150432380Y-80764047D01*
X150432380Y-80525952D01*
X150480000Y-80430714D01*
X150527619Y-80383095D01*
X150622857Y-80335476D01*
X150718095Y-80335476D01*
X150860952Y-80383095D01*
X151432380Y-80954523D01*
X151432380Y-80335476D01*
X151432380Y-79383095D02*
X151432380Y-79954523D01*
X151432380Y-79668809D02*
X150432380Y-79668809D01*
X150575238Y-79764047D01*
X150670476Y-79859285D01*
X150718095Y-79954523D01*
X151432380Y-107259285D02*
X150432380Y-107259285D01*
X150432380Y-107021190D01*
X150480000Y-106878333D01*
X150575238Y-106783095D01*
X150670476Y-106735476D01*
X150860952Y-106687857D01*
X151003809Y-106687857D01*
X151194285Y-106735476D01*
X151289523Y-106783095D01*
X151384761Y-106878333D01*
X151432380Y-107021190D01*
X151432380Y-107259285D01*
X150527619Y-106306904D02*
X150480000Y-106259285D01*
X150432380Y-106164047D01*
X150432380Y-105925952D01*
X150480000Y-105830714D01*
X150527619Y-105783095D01*
X150622857Y-105735476D01*
X150718095Y-105735476D01*
X150860952Y-105783095D01*
X151432380Y-106354523D01*
X151432380Y-105735476D01*
X150527619Y-105354523D02*
X150480000Y-105306904D01*
X150432380Y-105211666D01*
X150432380Y-104973571D01*
X150480000Y-104878333D01*
X150527619Y-104830714D01*
X150622857Y-104783095D01*
X150718095Y-104783095D01*
X150860952Y-104830714D01*
X151432380Y-105402142D01*
X151432380Y-104783095D01*
X151432380Y-132659285D02*
X150432380Y-132659285D01*
X150432380Y-132421190D01*
X150480000Y-132278333D01*
X150575238Y-132183095D01*
X150670476Y-132135476D01*
X150860952Y-132087857D01*
X151003809Y-132087857D01*
X151194285Y-132135476D01*
X151289523Y-132183095D01*
X151384761Y-132278333D01*
X151432380Y-132421190D01*
X151432380Y-132659285D01*
X150527619Y-131706904D02*
X150480000Y-131659285D01*
X150432380Y-131564047D01*
X150432380Y-131325952D01*
X150480000Y-131230714D01*
X150527619Y-131183095D01*
X150622857Y-131135476D01*
X150718095Y-131135476D01*
X150860952Y-131183095D01*
X151432380Y-131754523D01*
X151432380Y-131135476D01*
X150432380Y-130802142D02*
X150432380Y-130183095D01*
X150813333Y-130516428D01*
X150813333Y-130373571D01*
X150860952Y-130278333D01*
X150908571Y-130230714D01*
X151003809Y-130183095D01*
X151241904Y-130183095D01*
X151337142Y-130230714D01*
X151384761Y-130278333D01*
X151432380Y-130373571D01*
X151432380Y-130659285D01*
X151384761Y-130754523D01*
X151337142Y-130802142D01*
X151432380Y-158059285D02*
X150432380Y-158059285D01*
X150432380Y-157821190D01*
X150480000Y-157678333D01*
X150575238Y-157583095D01*
X150670476Y-157535476D01*
X150860952Y-157487857D01*
X151003809Y-157487857D01*
X151194285Y-157535476D01*
X151289523Y-157583095D01*
X151384761Y-157678333D01*
X151432380Y-157821190D01*
X151432380Y-158059285D01*
X150527619Y-157106904D02*
X150480000Y-157059285D01*
X150432380Y-156964047D01*
X150432380Y-156725952D01*
X150480000Y-156630714D01*
X150527619Y-156583095D01*
X150622857Y-156535476D01*
X150718095Y-156535476D01*
X150860952Y-156583095D01*
X151432380Y-157154523D01*
X151432380Y-156535476D01*
X150765714Y-155678333D02*
X151432380Y-155678333D01*
X150384761Y-155916428D02*
X151099047Y-156154523D01*
X151099047Y-155535476D01*
X184752380Y-31059285D02*
X183752380Y-31059285D01*
X183752380Y-30821190D01*
X183800000Y-30678333D01*
X183895238Y-30583095D01*
X183990476Y-30535476D01*
X184180952Y-30487857D01*
X184323809Y-30487857D01*
X184514285Y-30535476D01*
X184609523Y-30583095D01*
X184704761Y-30678333D01*
X184752380Y-30821190D01*
X184752380Y-31059285D01*
X183847619Y-30106904D02*
X183800000Y-30059285D01*
X183752380Y-29964047D01*
X183752380Y-29725952D01*
X183800000Y-29630714D01*
X183847619Y-29583095D01*
X183942857Y-29535476D01*
X184038095Y-29535476D01*
X184180952Y-29583095D01*
X184752380Y-30154523D01*
X184752380Y-29535476D01*
X183752380Y-28630714D02*
X183752380Y-29106904D01*
X184228571Y-29154523D01*
X184180952Y-29106904D01*
X184133333Y-29011666D01*
X184133333Y-28773571D01*
X184180952Y-28678333D01*
X184228571Y-28630714D01*
X184323809Y-28583095D01*
X184561904Y-28583095D01*
X184657142Y-28630714D01*
X184704761Y-28678333D01*
X184752380Y-28773571D01*
X184752380Y-29011666D01*
X184704761Y-29106904D01*
X184657142Y-29154523D01*
X184752380Y-56459285D02*
X183752380Y-56459285D01*
X183752380Y-56221190D01*
X183800000Y-56078333D01*
X183895238Y-55983095D01*
X183990476Y-55935476D01*
X184180952Y-55887857D01*
X184323809Y-55887857D01*
X184514285Y-55935476D01*
X184609523Y-55983095D01*
X184704761Y-56078333D01*
X184752380Y-56221190D01*
X184752380Y-56459285D01*
X183847619Y-55506904D02*
X183800000Y-55459285D01*
X183752380Y-55364047D01*
X183752380Y-55125952D01*
X183800000Y-55030714D01*
X183847619Y-54983095D01*
X183942857Y-54935476D01*
X184038095Y-54935476D01*
X184180952Y-54983095D01*
X184752380Y-55554523D01*
X184752380Y-54935476D01*
X183752380Y-54078333D02*
X183752380Y-54268809D01*
X183800000Y-54364047D01*
X183847619Y-54411666D01*
X183990476Y-54506904D01*
X184180952Y-54554523D01*
X184561904Y-54554523D01*
X184657142Y-54506904D01*
X184704761Y-54459285D01*
X184752380Y-54364047D01*
X184752380Y-54173571D01*
X184704761Y-54078333D01*
X184657142Y-54030714D01*
X184561904Y-53983095D01*
X184323809Y-53983095D01*
X184228571Y-54030714D01*
X184180952Y-54078333D01*
X184133333Y-54173571D01*
X184133333Y-54364047D01*
X184180952Y-54459285D01*
X184228571Y-54506904D01*
X184323809Y-54554523D01*
X184752380Y-81859285D02*
X183752380Y-81859285D01*
X183752380Y-81621190D01*
X183800000Y-81478333D01*
X183895238Y-81383095D01*
X183990476Y-81335476D01*
X184180952Y-81287857D01*
X184323809Y-81287857D01*
X184514285Y-81335476D01*
X184609523Y-81383095D01*
X184704761Y-81478333D01*
X184752380Y-81621190D01*
X184752380Y-81859285D01*
X183847619Y-80906904D02*
X183800000Y-80859285D01*
X183752380Y-80764047D01*
X183752380Y-80525952D01*
X183800000Y-80430714D01*
X183847619Y-80383095D01*
X183942857Y-80335476D01*
X184038095Y-80335476D01*
X184180952Y-80383095D01*
X184752380Y-80954523D01*
X184752380Y-80335476D01*
X183752380Y-80002142D02*
X183752380Y-79335476D01*
X184752380Y-79764047D01*
X184752380Y-107259285D02*
X183752380Y-107259285D01*
X183752380Y-107021190D01*
X183800000Y-106878333D01*
X183895238Y-106783095D01*
X183990476Y-106735476D01*
X184180952Y-106687857D01*
X184323809Y-106687857D01*
X184514285Y-106735476D01*
X184609523Y-106783095D01*
X184704761Y-106878333D01*
X184752380Y-107021190D01*
X184752380Y-107259285D01*
X183847619Y-106306904D02*
X183800000Y-106259285D01*
X183752380Y-106164047D01*
X183752380Y-105925952D01*
X183800000Y-105830714D01*
X183847619Y-105783095D01*
X183942857Y-105735476D01*
X184038095Y-105735476D01*
X184180952Y-105783095D01*
X184752380Y-106354523D01*
X184752380Y-105735476D01*
X184180952Y-105164047D02*
X184133333Y-105259285D01*
X184085714Y-105306904D01*
X183990476Y-105354523D01*
X183942857Y-105354523D01*
X183847619Y-105306904D01*
X183800000Y-105259285D01*
X183752380Y-105164047D01*
X183752380Y-104973571D01*
X183800000Y-104878333D01*
X183847619Y-104830714D01*
X183942857Y-104783095D01*
X183990476Y-104783095D01*
X184085714Y-104830714D01*
X184133333Y-104878333D01*
X184180952Y-104973571D01*
X184180952Y-105164047D01*
X184228571Y-105259285D01*
X184276190Y-105306904D01*
X184371428Y-105354523D01*
X184561904Y-105354523D01*
X184657142Y-105306904D01*
X184704761Y-105259285D01*
X184752380Y-105164047D01*
X184752380Y-104973571D01*
X184704761Y-104878333D01*
X184657142Y-104830714D01*
X184561904Y-104783095D01*
X184371428Y-104783095D01*
X184276190Y-104830714D01*
X184228571Y-104878333D01*
X184180952Y-104973571D01*
X184752380Y-132659285D02*
X183752380Y-132659285D01*
X183752380Y-132421190D01*
X183800000Y-132278333D01*
X183895238Y-132183095D01*
X183990476Y-132135476D01*
X184180952Y-132087857D01*
X184323809Y-132087857D01*
X184514285Y-132135476D01*
X184609523Y-132183095D01*
X184704761Y-132278333D01*
X184752380Y-132421190D01*
X184752380Y-132659285D01*
X183847619Y-131706904D02*
X183800000Y-131659285D01*
X183752380Y-131564047D01*
X183752380Y-131325952D01*
X183800000Y-131230714D01*
X183847619Y-131183095D01*
X183942857Y-131135476D01*
X184038095Y-131135476D01*
X184180952Y-131183095D01*
X184752380Y-131754523D01*
X184752380Y-131135476D01*
X184752380Y-130659285D02*
X184752380Y-130468809D01*
X184704761Y-130373571D01*
X184657142Y-130325952D01*
X184514285Y-130230714D01*
X184323809Y-130183095D01*
X183942857Y-130183095D01*
X183847619Y-130230714D01*
X183800000Y-130278333D01*
X183752380Y-130373571D01*
X183752380Y-130564047D01*
X183800000Y-130659285D01*
X183847619Y-130706904D01*
X183942857Y-130754523D01*
X184180952Y-130754523D01*
X184276190Y-130706904D01*
X184323809Y-130659285D01*
X184371428Y-130564047D01*
X184371428Y-130373571D01*
X184323809Y-130278333D01*
X184276190Y-130230714D01*
X184180952Y-130183095D01*
X184752380Y-158059285D02*
X183752380Y-158059285D01*
X183752380Y-157821190D01*
X183800000Y-157678333D01*
X183895238Y-157583095D01*
X183990476Y-157535476D01*
X184180952Y-157487857D01*
X184323809Y-157487857D01*
X184514285Y-157535476D01*
X184609523Y-157583095D01*
X184704761Y-157678333D01*
X184752380Y-157821190D01*
X184752380Y-158059285D01*
X183752380Y-157154523D02*
X183752380Y-156535476D01*
X184133333Y-156868809D01*
X184133333Y-156725952D01*
X184180952Y-156630714D01*
X184228571Y-156583095D01*
X184323809Y-156535476D01*
X184561904Y-156535476D01*
X184657142Y-156583095D01*
X184704761Y-156630714D01*
X184752380Y-156725952D01*
X184752380Y-157011666D01*
X184704761Y-157106904D01*
X184657142Y-157154523D01*
X183752380Y-155916428D02*
X183752380Y-155821190D01*
X183800000Y-155725952D01*
X183847619Y-155678333D01*
X183942857Y-155630714D01*
X184133333Y-155583095D01*
X184371428Y-155583095D01*
X184561904Y-155630714D01*
X184657142Y-155678333D01*
X184704761Y-155725952D01*
X184752380Y-155821190D01*
X184752380Y-155916428D01*
X184704761Y-156011666D01*
X184657142Y-156059285D01*
X184561904Y-156106904D01*
X184371428Y-156154523D01*
X184133333Y-156154523D01*
X183942857Y-156106904D01*
X183847619Y-156059285D01*
X183800000Y-156011666D01*
X183752380Y-155916428D01*
X202232380Y-31059285D02*
X201232380Y-31059285D01*
X201232380Y-30821190D01*
X201280000Y-30678333D01*
X201375238Y-30583095D01*
X201470476Y-30535476D01*
X201660952Y-30487857D01*
X201803809Y-30487857D01*
X201994285Y-30535476D01*
X202089523Y-30583095D01*
X202184761Y-30678333D01*
X202232380Y-30821190D01*
X202232380Y-31059285D01*
X201232380Y-30154523D02*
X201232380Y-29535476D01*
X201613333Y-29868809D01*
X201613333Y-29725952D01*
X201660952Y-29630714D01*
X201708571Y-29583095D01*
X201803809Y-29535476D01*
X202041904Y-29535476D01*
X202137142Y-29583095D01*
X202184761Y-29630714D01*
X202232380Y-29725952D01*
X202232380Y-30011666D01*
X202184761Y-30106904D01*
X202137142Y-30154523D01*
X202232380Y-28583095D02*
X202232380Y-29154523D01*
X202232380Y-28868809D02*
X201232380Y-28868809D01*
X201375238Y-28964047D01*
X201470476Y-29059285D01*
X201518095Y-29154523D01*
X202232380Y-56459285D02*
X201232380Y-56459285D01*
X201232380Y-56221190D01*
X201280000Y-56078333D01*
X201375238Y-55983095D01*
X201470476Y-55935476D01*
X201660952Y-55887857D01*
X201803809Y-55887857D01*
X201994285Y-55935476D01*
X202089523Y-55983095D01*
X202184761Y-56078333D01*
X202232380Y-56221190D01*
X202232380Y-56459285D01*
X201232380Y-55554523D02*
X201232380Y-54935476D01*
X201613333Y-55268809D01*
X201613333Y-55125952D01*
X201660952Y-55030714D01*
X201708571Y-54983095D01*
X201803809Y-54935476D01*
X202041904Y-54935476D01*
X202137142Y-54983095D01*
X202184761Y-55030714D01*
X202232380Y-55125952D01*
X202232380Y-55411666D01*
X202184761Y-55506904D01*
X202137142Y-55554523D01*
X201327619Y-54554523D02*
X201280000Y-54506904D01*
X201232380Y-54411666D01*
X201232380Y-54173571D01*
X201280000Y-54078333D01*
X201327619Y-54030714D01*
X201422857Y-53983095D01*
X201518095Y-53983095D01*
X201660952Y-54030714D01*
X202232380Y-54602142D01*
X202232380Y-53983095D01*
X202232380Y-81859285D02*
X201232380Y-81859285D01*
X201232380Y-81621190D01*
X201280000Y-81478333D01*
X201375238Y-81383095D01*
X201470476Y-81335476D01*
X201660952Y-81287857D01*
X201803809Y-81287857D01*
X201994285Y-81335476D01*
X202089523Y-81383095D01*
X202184761Y-81478333D01*
X202232380Y-81621190D01*
X202232380Y-81859285D01*
X201232380Y-80954523D02*
X201232380Y-80335476D01*
X201613333Y-80668809D01*
X201613333Y-80525952D01*
X201660952Y-80430714D01*
X201708571Y-80383095D01*
X201803809Y-80335476D01*
X202041904Y-80335476D01*
X202137142Y-80383095D01*
X202184761Y-80430714D01*
X202232380Y-80525952D01*
X202232380Y-80811666D01*
X202184761Y-80906904D01*
X202137142Y-80954523D01*
X201232380Y-80002142D02*
X201232380Y-79383095D01*
X201613333Y-79716428D01*
X201613333Y-79573571D01*
X201660952Y-79478333D01*
X201708571Y-79430714D01*
X201803809Y-79383095D01*
X202041904Y-79383095D01*
X202137142Y-79430714D01*
X202184761Y-79478333D01*
X202232380Y-79573571D01*
X202232380Y-79859285D01*
X202184761Y-79954523D01*
X202137142Y-80002142D01*
X202232380Y-107259285D02*
X201232380Y-107259285D01*
X201232380Y-107021190D01*
X201280000Y-106878333D01*
X201375238Y-106783095D01*
X201470476Y-106735476D01*
X201660952Y-106687857D01*
X201803809Y-106687857D01*
X201994285Y-106735476D01*
X202089523Y-106783095D01*
X202184761Y-106878333D01*
X202232380Y-107021190D01*
X202232380Y-107259285D01*
X201232380Y-106354523D02*
X201232380Y-105735476D01*
X201613333Y-106068809D01*
X201613333Y-105925952D01*
X201660952Y-105830714D01*
X201708571Y-105783095D01*
X201803809Y-105735476D01*
X202041904Y-105735476D01*
X202137142Y-105783095D01*
X202184761Y-105830714D01*
X202232380Y-105925952D01*
X202232380Y-106211666D01*
X202184761Y-106306904D01*
X202137142Y-106354523D01*
X201565714Y-104878333D02*
X202232380Y-104878333D01*
X201184761Y-105116428D02*
X201899047Y-105354523D01*
X201899047Y-104735476D01*
X202232380Y-132659285D02*
X201232380Y-132659285D01*
X201232380Y-132421190D01*
X201280000Y-132278333D01*
X201375238Y-132183095D01*
X201470476Y-132135476D01*
X201660952Y-132087857D01*
X201803809Y-132087857D01*
X201994285Y-132135476D01*
X202089523Y-132183095D01*
X202184761Y-132278333D01*
X202232380Y-132421190D01*
X202232380Y-132659285D01*
X201232380Y-131754523D02*
X201232380Y-131135476D01*
X201613333Y-131468809D01*
X201613333Y-131325952D01*
X201660952Y-131230714D01*
X201708571Y-131183095D01*
X201803809Y-131135476D01*
X202041904Y-131135476D01*
X202137142Y-131183095D01*
X202184761Y-131230714D01*
X202232380Y-131325952D01*
X202232380Y-131611666D01*
X202184761Y-131706904D01*
X202137142Y-131754523D01*
X201232380Y-130230714D02*
X201232380Y-130706904D01*
X201708571Y-130754523D01*
X201660952Y-130706904D01*
X201613333Y-130611666D01*
X201613333Y-130373571D01*
X201660952Y-130278333D01*
X201708571Y-130230714D01*
X201803809Y-130183095D01*
X202041904Y-130183095D01*
X202137142Y-130230714D01*
X202184761Y-130278333D01*
X202232380Y-130373571D01*
X202232380Y-130611666D01*
X202184761Y-130706904D01*
X202137142Y-130754523D01*
X141916666Y-160452380D02*
X141916666Y-161166666D01*
X141869047Y-161309523D01*
X141773809Y-161404761D01*
X141630952Y-161452380D01*
X141535714Y-161452380D01*
X142916666Y-161452380D02*
X142345238Y-161452380D01*
X142630952Y-161452380D02*
X142630952Y-160452380D01*
X142535714Y-160595238D01*
X142440476Y-160690476D01*
X142345238Y-160738095D01*
X194357142Y-157357142D02*
X194309523Y-157404761D01*
X194166666Y-157452380D01*
X194071428Y-157452380D01*
X193928571Y-157404761D01*
X193833333Y-157309523D01*
X193785714Y-157214285D01*
X193738095Y-157023809D01*
X193738095Y-156880952D01*
X193785714Y-156690476D01*
X193833333Y-156595238D01*
X193928571Y-156500000D01*
X194071428Y-156452380D01*
X194166666Y-156452380D01*
X194309523Y-156500000D01*
X194357142Y-156547619D01*
X194690476Y-156452380D02*
X195309523Y-156452380D01*
X194976190Y-156833333D01*
X195119047Y-156833333D01*
X195214285Y-156880952D01*
X195261904Y-156928571D01*
X195309523Y-157023809D01*
X195309523Y-157261904D01*
X195261904Y-157357142D01*
X195214285Y-157404761D01*
X195119047Y-157452380D01*
X194833333Y-157452380D01*
X194738095Y-157404761D01*
X194690476Y-157357142D01*
X196166666Y-156452380D02*
X195976190Y-156452380D01*
X195880952Y-156500000D01*
X195833333Y-156547619D01*
X195738095Y-156690476D01*
X195690476Y-156880952D01*
X195690476Y-157261904D01*
X195738095Y-157357142D01*
X195785714Y-157404761D01*
X195880952Y-157452380D01*
X196071428Y-157452380D01*
X196166666Y-157404761D01*
X196214285Y-157357142D01*
X196261904Y-157261904D01*
X196261904Y-157023809D01*
X196214285Y-156928571D01*
X196166666Y-156880952D01*
X196071428Y-156833333D01*
X195880952Y-156833333D01*
X195785714Y-156880952D01*
X195738095Y-156928571D01*
X195690476Y-157023809D01*
X194357142Y-131857142D02*
X194309523Y-131904761D01*
X194166666Y-131952380D01*
X194071428Y-131952380D01*
X193928571Y-131904761D01*
X193833333Y-131809523D01*
X193785714Y-131714285D01*
X193738095Y-131523809D01*
X193738095Y-131380952D01*
X193785714Y-131190476D01*
X193833333Y-131095238D01*
X193928571Y-131000000D01*
X194071428Y-130952380D01*
X194166666Y-130952380D01*
X194309523Y-131000000D01*
X194357142Y-131047619D01*
X194690476Y-130952380D02*
X195309523Y-130952380D01*
X194976190Y-131333333D01*
X195119047Y-131333333D01*
X195214285Y-131380952D01*
X195261904Y-131428571D01*
X195309523Y-131523809D01*
X195309523Y-131761904D01*
X195261904Y-131857142D01*
X195214285Y-131904761D01*
X195119047Y-131952380D01*
X194833333Y-131952380D01*
X194738095Y-131904761D01*
X194690476Y-131857142D01*
X196214285Y-130952380D02*
X195738095Y-130952380D01*
X195690476Y-131428571D01*
X195738095Y-131380952D01*
X195833333Y-131333333D01*
X196071428Y-131333333D01*
X196166666Y-131380952D01*
X196214285Y-131428571D01*
X196261904Y-131523809D01*
X196261904Y-131761904D01*
X196214285Y-131857142D01*
X196166666Y-131904761D01*
X196071428Y-131952380D01*
X195833333Y-131952380D01*
X195738095Y-131904761D01*
X195690476Y-131857142D01*
X194357142Y-106357142D02*
X194309523Y-106404761D01*
X194166666Y-106452380D01*
X194071428Y-106452380D01*
X193928571Y-106404761D01*
X193833333Y-106309523D01*
X193785714Y-106214285D01*
X193738095Y-106023809D01*
X193738095Y-105880952D01*
X193785714Y-105690476D01*
X193833333Y-105595238D01*
X193928571Y-105500000D01*
X194071428Y-105452380D01*
X194166666Y-105452380D01*
X194309523Y-105500000D01*
X194357142Y-105547619D01*
X194690476Y-105452380D02*
X195309523Y-105452380D01*
X194976190Y-105833333D01*
X195119047Y-105833333D01*
X195214285Y-105880952D01*
X195261904Y-105928571D01*
X195309523Y-106023809D01*
X195309523Y-106261904D01*
X195261904Y-106357142D01*
X195214285Y-106404761D01*
X195119047Y-106452380D01*
X194833333Y-106452380D01*
X194738095Y-106404761D01*
X194690476Y-106357142D01*
X196166666Y-105785714D02*
X196166666Y-106452380D01*
X195928571Y-105404761D02*
X195690476Y-106119047D01*
X196309523Y-106119047D01*
X194357142Y-81357142D02*
X194309523Y-81404761D01*
X194166666Y-81452380D01*
X194071428Y-81452380D01*
X193928571Y-81404761D01*
X193833333Y-81309523D01*
X193785714Y-81214285D01*
X193738095Y-81023809D01*
X193738095Y-80880952D01*
X193785714Y-80690476D01*
X193833333Y-80595238D01*
X193928571Y-80500000D01*
X194071428Y-80452380D01*
X194166666Y-80452380D01*
X194309523Y-80500000D01*
X194357142Y-80547619D01*
X194690476Y-80452380D02*
X195309523Y-80452380D01*
X194976190Y-80833333D01*
X195119047Y-80833333D01*
X195214285Y-80880952D01*
X195261904Y-80928571D01*
X195309523Y-81023809D01*
X195309523Y-81261904D01*
X195261904Y-81357142D01*
X195214285Y-81404761D01*
X195119047Y-81452380D01*
X194833333Y-81452380D01*
X194738095Y-81404761D01*
X194690476Y-81357142D01*
X195642857Y-80452380D02*
X196261904Y-80452380D01*
X195928571Y-80833333D01*
X196071428Y-80833333D01*
X196166666Y-80880952D01*
X196214285Y-80928571D01*
X196261904Y-81023809D01*
X196261904Y-81261904D01*
X196214285Y-81357142D01*
X196166666Y-81404761D01*
X196071428Y-81452380D01*
X195785714Y-81452380D01*
X195690476Y-81404761D01*
X195642857Y-81357142D01*
X194357142Y-55857142D02*
X194309523Y-55904761D01*
X194166666Y-55952380D01*
X194071428Y-55952380D01*
X193928571Y-55904761D01*
X193833333Y-55809523D01*
X193785714Y-55714285D01*
X193738095Y-55523809D01*
X193738095Y-55380952D01*
X193785714Y-55190476D01*
X193833333Y-55095238D01*
X193928571Y-55000000D01*
X194071428Y-54952380D01*
X194166666Y-54952380D01*
X194309523Y-55000000D01*
X194357142Y-55047619D01*
X194690476Y-54952380D02*
X195309523Y-54952380D01*
X194976190Y-55333333D01*
X195119047Y-55333333D01*
X195214285Y-55380952D01*
X195261904Y-55428571D01*
X195309523Y-55523809D01*
X195309523Y-55761904D01*
X195261904Y-55857142D01*
X195214285Y-55904761D01*
X195119047Y-55952380D01*
X194833333Y-55952380D01*
X194738095Y-55904761D01*
X194690476Y-55857142D01*
X195690476Y-55047619D02*
X195738095Y-55000000D01*
X195833333Y-54952380D01*
X196071428Y-54952380D01*
X196166666Y-55000000D01*
X196214285Y-55047619D01*
X196261904Y-55142857D01*
X196261904Y-55238095D01*
X196214285Y-55380952D01*
X195642857Y-55952380D01*
X196261904Y-55952380D01*
X194357142Y-30357142D02*
X194309523Y-30404761D01*
X194166666Y-30452380D01*
X194071428Y-30452380D01*
X193928571Y-30404761D01*
X193833333Y-30309523D01*
X193785714Y-30214285D01*
X193738095Y-30023809D01*
X193738095Y-29880952D01*
X193785714Y-29690476D01*
X193833333Y-29595238D01*
X193928571Y-29500000D01*
X194071428Y-29452380D01*
X194166666Y-29452380D01*
X194309523Y-29500000D01*
X194357142Y-29547619D01*
X194690476Y-29452380D02*
X195309523Y-29452380D01*
X194976190Y-29833333D01*
X195119047Y-29833333D01*
X195214285Y-29880952D01*
X195261904Y-29928571D01*
X195309523Y-30023809D01*
X195309523Y-30261904D01*
X195261904Y-30357142D01*
X195214285Y-30404761D01*
X195119047Y-30452380D01*
X194833333Y-30452380D01*
X194738095Y-30404761D01*
X194690476Y-30357142D01*
X196261904Y-30452380D02*
X195690476Y-30452380D01*
X195976190Y-30452380D02*
X195976190Y-29452380D01*
X195880952Y-29595238D01*
X195785714Y-29690476D01*
X195690476Y-29738095D01*
X190357142Y-157357142D02*
X190309523Y-157404761D01*
X190166666Y-157452380D01*
X190071428Y-157452380D01*
X189928571Y-157404761D01*
X189833333Y-157309523D01*
X189785714Y-157214285D01*
X189738095Y-157023809D01*
X189738095Y-156880952D01*
X189785714Y-156690476D01*
X189833333Y-156595238D01*
X189928571Y-156500000D01*
X190071428Y-156452380D01*
X190166666Y-156452380D01*
X190309523Y-156500000D01*
X190357142Y-156547619D01*
X190690476Y-156452380D02*
X191309523Y-156452380D01*
X190976190Y-156833333D01*
X191119047Y-156833333D01*
X191214285Y-156880952D01*
X191261904Y-156928571D01*
X191309523Y-157023809D01*
X191309523Y-157261904D01*
X191261904Y-157357142D01*
X191214285Y-157404761D01*
X191119047Y-157452380D01*
X190833333Y-157452380D01*
X190738095Y-157404761D01*
X190690476Y-157357142D01*
X191928571Y-156452380D02*
X192023809Y-156452380D01*
X192119047Y-156500000D01*
X192166666Y-156547619D01*
X192214285Y-156642857D01*
X192261904Y-156833333D01*
X192261904Y-157071428D01*
X192214285Y-157261904D01*
X192166666Y-157357142D01*
X192119047Y-157404761D01*
X192023809Y-157452380D01*
X191928571Y-157452380D01*
X191833333Y-157404761D01*
X191785714Y-157357142D01*
X191738095Y-157261904D01*
X191690476Y-157071428D01*
X191690476Y-156833333D01*
X191738095Y-156642857D01*
X191785714Y-156547619D01*
X191833333Y-156500000D01*
X191928571Y-156452380D01*
X190357142Y-131857142D02*
X190309523Y-131904761D01*
X190166666Y-131952380D01*
X190071428Y-131952380D01*
X189928571Y-131904761D01*
X189833333Y-131809523D01*
X189785714Y-131714285D01*
X189738095Y-131523809D01*
X189738095Y-131380952D01*
X189785714Y-131190476D01*
X189833333Y-131095238D01*
X189928571Y-131000000D01*
X190071428Y-130952380D01*
X190166666Y-130952380D01*
X190309523Y-131000000D01*
X190357142Y-131047619D01*
X190738095Y-131047619D02*
X190785714Y-131000000D01*
X190880952Y-130952380D01*
X191119047Y-130952380D01*
X191214285Y-131000000D01*
X191261904Y-131047619D01*
X191309523Y-131142857D01*
X191309523Y-131238095D01*
X191261904Y-131380952D01*
X190690476Y-131952380D01*
X191309523Y-131952380D01*
X191785714Y-131952380D02*
X191976190Y-131952380D01*
X192071428Y-131904761D01*
X192119047Y-131857142D01*
X192214285Y-131714285D01*
X192261904Y-131523809D01*
X192261904Y-131142857D01*
X192214285Y-131047619D01*
X192166666Y-131000000D01*
X192071428Y-130952380D01*
X191880952Y-130952380D01*
X191785714Y-131000000D01*
X191738095Y-131047619D01*
X191690476Y-131142857D01*
X191690476Y-131380952D01*
X191738095Y-131476190D01*
X191785714Y-131523809D01*
X191880952Y-131571428D01*
X192071428Y-131571428D01*
X192166666Y-131523809D01*
X192214285Y-131476190D01*
X192261904Y-131380952D01*
X190357142Y-106357142D02*
X190309523Y-106404761D01*
X190166666Y-106452380D01*
X190071428Y-106452380D01*
X189928571Y-106404761D01*
X189833333Y-106309523D01*
X189785714Y-106214285D01*
X189738095Y-106023809D01*
X189738095Y-105880952D01*
X189785714Y-105690476D01*
X189833333Y-105595238D01*
X189928571Y-105500000D01*
X190071428Y-105452380D01*
X190166666Y-105452380D01*
X190309523Y-105500000D01*
X190357142Y-105547619D01*
X190738095Y-105547619D02*
X190785714Y-105500000D01*
X190880952Y-105452380D01*
X191119047Y-105452380D01*
X191214285Y-105500000D01*
X191261904Y-105547619D01*
X191309523Y-105642857D01*
X191309523Y-105738095D01*
X191261904Y-105880952D01*
X190690476Y-106452380D01*
X191309523Y-106452380D01*
X191880952Y-105880952D02*
X191785714Y-105833333D01*
X191738095Y-105785714D01*
X191690476Y-105690476D01*
X191690476Y-105642857D01*
X191738095Y-105547619D01*
X191785714Y-105500000D01*
X191880952Y-105452380D01*
X192071428Y-105452380D01*
X192166666Y-105500000D01*
X192214285Y-105547619D01*
X192261904Y-105642857D01*
X192261904Y-105690476D01*
X192214285Y-105785714D01*
X192166666Y-105833333D01*
X192071428Y-105880952D01*
X191880952Y-105880952D01*
X191785714Y-105928571D01*
X191738095Y-105976190D01*
X191690476Y-106071428D01*
X191690476Y-106261904D01*
X191738095Y-106357142D01*
X191785714Y-106404761D01*
X191880952Y-106452380D01*
X192071428Y-106452380D01*
X192166666Y-106404761D01*
X192214285Y-106357142D01*
X192261904Y-106261904D01*
X192261904Y-106071428D01*
X192214285Y-105976190D01*
X192166666Y-105928571D01*
X192071428Y-105880952D01*
X190357142Y-81357142D02*
X190309523Y-81404761D01*
X190166666Y-81452380D01*
X190071428Y-81452380D01*
X189928571Y-81404761D01*
X189833333Y-81309523D01*
X189785714Y-81214285D01*
X189738095Y-81023809D01*
X189738095Y-80880952D01*
X189785714Y-80690476D01*
X189833333Y-80595238D01*
X189928571Y-80500000D01*
X190071428Y-80452380D01*
X190166666Y-80452380D01*
X190309523Y-80500000D01*
X190357142Y-80547619D01*
X190738095Y-80547619D02*
X190785714Y-80500000D01*
X190880952Y-80452380D01*
X191119047Y-80452380D01*
X191214285Y-80500000D01*
X191261904Y-80547619D01*
X191309523Y-80642857D01*
X191309523Y-80738095D01*
X191261904Y-80880952D01*
X190690476Y-81452380D01*
X191309523Y-81452380D01*
X191642857Y-80452380D02*
X192309523Y-80452380D01*
X191880952Y-81452380D01*
X190357142Y-55857142D02*
X190309523Y-55904761D01*
X190166666Y-55952380D01*
X190071428Y-55952380D01*
X189928571Y-55904761D01*
X189833333Y-55809523D01*
X189785714Y-55714285D01*
X189738095Y-55523809D01*
X189738095Y-55380952D01*
X189785714Y-55190476D01*
X189833333Y-55095238D01*
X189928571Y-55000000D01*
X190071428Y-54952380D01*
X190166666Y-54952380D01*
X190309523Y-55000000D01*
X190357142Y-55047619D01*
X190738095Y-55047619D02*
X190785714Y-55000000D01*
X190880952Y-54952380D01*
X191119047Y-54952380D01*
X191214285Y-55000000D01*
X191261904Y-55047619D01*
X191309523Y-55142857D01*
X191309523Y-55238095D01*
X191261904Y-55380952D01*
X190690476Y-55952380D01*
X191309523Y-55952380D01*
X192166666Y-54952380D02*
X191976190Y-54952380D01*
X191880952Y-55000000D01*
X191833333Y-55047619D01*
X191738095Y-55190476D01*
X191690476Y-55380952D01*
X191690476Y-55761904D01*
X191738095Y-55857142D01*
X191785714Y-55904761D01*
X191880952Y-55952380D01*
X192071428Y-55952380D01*
X192166666Y-55904761D01*
X192214285Y-55857142D01*
X192261904Y-55761904D01*
X192261904Y-55523809D01*
X192214285Y-55428571D01*
X192166666Y-55380952D01*
X192071428Y-55333333D01*
X191880952Y-55333333D01*
X191785714Y-55380952D01*
X191738095Y-55428571D01*
X191690476Y-55523809D01*
X190357142Y-30357142D02*
X190309523Y-30404761D01*
X190166666Y-30452380D01*
X190071428Y-30452380D01*
X189928571Y-30404761D01*
X189833333Y-30309523D01*
X189785714Y-30214285D01*
X189738095Y-30023809D01*
X189738095Y-29880952D01*
X189785714Y-29690476D01*
X189833333Y-29595238D01*
X189928571Y-29500000D01*
X190071428Y-29452380D01*
X190166666Y-29452380D01*
X190309523Y-29500000D01*
X190357142Y-29547619D01*
X190738095Y-29547619D02*
X190785714Y-29500000D01*
X190880952Y-29452380D01*
X191119047Y-29452380D01*
X191214285Y-29500000D01*
X191261904Y-29547619D01*
X191309523Y-29642857D01*
X191309523Y-29738095D01*
X191261904Y-29880952D01*
X190690476Y-30452380D01*
X191309523Y-30452380D01*
X192214285Y-29452380D02*
X191738095Y-29452380D01*
X191690476Y-29928571D01*
X191738095Y-29880952D01*
X191833333Y-29833333D01*
X192071428Y-29833333D01*
X192166666Y-29880952D01*
X192214285Y-29928571D01*
X192261904Y-30023809D01*
X192261904Y-30261904D01*
X192214285Y-30357142D01*
X192166666Y-30404761D01*
X192071428Y-30452380D01*
X191833333Y-30452380D01*
X191738095Y-30404761D01*
X191690476Y-30357142D01*
X164857142Y-157357142D02*
X164809523Y-157404761D01*
X164666666Y-157452380D01*
X164571428Y-157452380D01*
X164428571Y-157404761D01*
X164333333Y-157309523D01*
X164285714Y-157214285D01*
X164238095Y-157023809D01*
X164238095Y-156880952D01*
X164285714Y-156690476D01*
X164333333Y-156595238D01*
X164428571Y-156500000D01*
X164571428Y-156452380D01*
X164666666Y-156452380D01*
X164809523Y-156500000D01*
X164857142Y-156547619D01*
X165238095Y-156547619D02*
X165285714Y-156500000D01*
X165380952Y-156452380D01*
X165619047Y-156452380D01*
X165714285Y-156500000D01*
X165761904Y-156547619D01*
X165809523Y-156642857D01*
X165809523Y-156738095D01*
X165761904Y-156880952D01*
X165190476Y-157452380D01*
X165809523Y-157452380D01*
X166666666Y-156785714D02*
X166666666Y-157452380D01*
X166428571Y-156404761D02*
X166190476Y-157119047D01*
X166809523Y-157119047D01*
X164857142Y-131857142D02*
X164809523Y-131904761D01*
X164666666Y-131952380D01*
X164571428Y-131952380D01*
X164428571Y-131904761D01*
X164333333Y-131809523D01*
X164285714Y-131714285D01*
X164238095Y-131523809D01*
X164238095Y-131380952D01*
X164285714Y-131190476D01*
X164333333Y-131095238D01*
X164428571Y-131000000D01*
X164571428Y-130952380D01*
X164666666Y-130952380D01*
X164809523Y-131000000D01*
X164857142Y-131047619D01*
X165238095Y-131047619D02*
X165285714Y-131000000D01*
X165380952Y-130952380D01*
X165619047Y-130952380D01*
X165714285Y-131000000D01*
X165761904Y-131047619D01*
X165809523Y-131142857D01*
X165809523Y-131238095D01*
X165761904Y-131380952D01*
X165190476Y-131952380D01*
X165809523Y-131952380D01*
X166142857Y-130952380D02*
X166761904Y-130952380D01*
X166428571Y-131333333D01*
X166571428Y-131333333D01*
X166666666Y-131380952D01*
X166714285Y-131428571D01*
X166761904Y-131523809D01*
X166761904Y-131761904D01*
X166714285Y-131857142D01*
X166666666Y-131904761D01*
X166571428Y-131952380D01*
X166285714Y-131952380D01*
X166190476Y-131904761D01*
X166142857Y-131857142D01*
X164857142Y-106357142D02*
X164809523Y-106404761D01*
X164666666Y-106452380D01*
X164571428Y-106452380D01*
X164428571Y-106404761D01*
X164333333Y-106309523D01*
X164285714Y-106214285D01*
X164238095Y-106023809D01*
X164238095Y-105880952D01*
X164285714Y-105690476D01*
X164333333Y-105595238D01*
X164428571Y-105500000D01*
X164571428Y-105452380D01*
X164666666Y-105452380D01*
X164809523Y-105500000D01*
X164857142Y-105547619D01*
X165238095Y-105547619D02*
X165285714Y-105500000D01*
X165380952Y-105452380D01*
X165619047Y-105452380D01*
X165714285Y-105500000D01*
X165761904Y-105547619D01*
X165809523Y-105642857D01*
X165809523Y-105738095D01*
X165761904Y-105880952D01*
X165190476Y-106452380D01*
X165809523Y-106452380D01*
X166190476Y-105547619D02*
X166238095Y-105500000D01*
X166333333Y-105452380D01*
X166571428Y-105452380D01*
X166666666Y-105500000D01*
X166714285Y-105547619D01*
X166761904Y-105642857D01*
X166761904Y-105738095D01*
X166714285Y-105880952D01*
X166142857Y-106452380D01*
X166761904Y-106452380D01*
X164857142Y-81357142D02*
X164809523Y-81404761D01*
X164666666Y-81452380D01*
X164571428Y-81452380D01*
X164428571Y-81404761D01*
X164333333Y-81309523D01*
X164285714Y-81214285D01*
X164238095Y-81023809D01*
X164238095Y-80880952D01*
X164285714Y-80690476D01*
X164333333Y-80595238D01*
X164428571Y-80500000D01*
X164571428Y-80452380D01*
X164666666Y-80452380D01*
X164809523Y-80500000D01*
X164857142Y-80547619D01*
X165238095Y-80547619D02*
X165285714Y-80500000D01*
X165380952Y-80452380D01*
X165619047Y-80452380D01*
X165714285Y-80500000D01*
X165761904Y-80547619D01*
X165809523Y-80642857D01*
X165809523Y-80738095D01*
X165761904Y-80880952D01*
X165190476Y-81452380D01*
X165809523Y-81452380D01*
X166761904Y-81452380D02*
X166190476Y-81452380D01*
X166476190Y-81452380D02*
X166476190Y-80452380D01*
X166380952Y-80595238D01*
X166285714Y-80690476D01*
X166190476Y-80738095D01*
X164857142Y-55857142D02*
X164809523Y-55904761D01*
X164666666Y-55952380D01*
X164571428Y-55952380D01*
X164428571Y-55904761D01*
X164333333Y-55809523D01*
X164285714Y-55714285D01*
X164238095Y-55523809D01*
X164238095Y-55380952D01*
X164285714Y-55190476D01*
X164333333Y-55095238D01*
X164428571Y-55000000D01*
X164571428Y-54952380D01*
X164666666Y-54952380D01*
X164809523Y-55000000D01*
X164857142Y-55047619D01*
X165238095Y-55047619D02*
X165285714Y-55000000D01*
X165380952Y-54952380D01*
X165619047Y-54952380D01*
X165714285Y-55000000D01*
X165761904Y-55047619D01*
X165809523Y-55142857D01*
X165809523Y-55238095D01*
X165761904Y-55380952D01*
X165190476Y-55952380D01*
X165809523Y-55952380D01*
X166428571Y-54952380D02*
X166523809Y-54952380D01*
X166619047Y-55000000D01*
X166666666Y-55047619D01*
X166714285Y-55142857D01*
X166761904Y-55333333D01*
X166761904Y-55571428D01*
X166714285Y-55761904D01*
X166666666Y-55857142D01*
X166619047Y-55904761D01*
X166523809Y-55952380D01*
X166428571Y-55952380D01*
X166333333Y-55904761D01*
X166285714Y-55857142D01*
X166238095Y-55761904D01*
X166190476Y-55571428D01*
X166190476Y-55333333D01*
X166238095Y-55142857D01*
X166285714Y-55047619D01*
X166333333Y-55000000D01*
X166428571Y-54952380D01*
X164857142Y-30357142D02*
X164809523Y-30404761D01*
X164666666Y-30452380D01*
X164571428Y-30452380D01*
X164428571Y-30404761D01*
X164333333Y-30309523D01*
X164285714Y-30214285D01*
X164238095Y-30023809D01*
X164238095Y-29880952D01*
X164285714Y-29690476D01*
X164333333Y-29595238D01*
X164428571Y-29500000D01*
X164571428Y-29452380D01*
X164666666Y-29452380D01*
X164809523Y-29500000D01*
X164857142Y-29547619D01*
X165809523Y-30452380D02*
X165238095Y-30452380D01*
X165523809Y-30452380D02*
X165523809Y-29452380D01*
X165428571Y-29595238D01*
X165333333Y-29690476D01*
X165238095Y-29738095D01*
X166285714Y-30452380D02*
X166476190Y-30452380D01*
X166571428Y-30404761D01*
X166619047Y-30357142D01*
X166714285Y-30214285D01*
X166761904Y-30023809D01*
X166761904Y-29642857D01*
X166714285Y-29547619D01*
X166666666Y-29500000D01*
X166571428Y-29452380D01*
X166380952Y-29452380D01*
X166285714Y-29500000D01*
X166238095Y-29547619D01*
X166190476Y-29642857D01*
X166190476Y-29880952D01*
X166238095Y-29976190D01*
X166285714Y-30023809D01*
X166380952Y-30071428D01*
X166571428Y-30071428D01*
X166666666Y-30023809D01*
X166714285Y-29976190D01*
X166761904Y-29880952D01*
X139357142Y-157357142D02*
X139309523Y-157404761D01*
X139166666Y-157452380D01*
X139071428Y-157452380D01*
X138928571Y-157404761D01*
X138833333Y-157309523D01*
X138785714Y-157214285D01*
X138738095Y-157023809D01*
X138738095Y-156880952D01*
X138785714Y-156690476D01*
X138833333Y-156595238D01*
X138928571Y-156500000D01*
X139071428Y-156452380D01*
X139166666Y-156452380D01*
X139309523Y-156500000D01*
X139357142Y-156547619D01*
X140309523Y-157452380D02*
X139738095Y-157452380D01*
X140023809Y-157452380D02*
X140023809Y-156452380D01*
X139928571Y-156595238D01*
X139833333Y-156690476D01*
X139738095Y-156738095D01*
X140880952Y-156880952D02*
X140785714Y-156833333D01*
X140738095Y-156785714D01*
X140690476Y-156690476D01*
X140690476Y-156642857D01*
X140738095Y-156547619D01*
X140785714Y-156500000D01*
X140880952Y-156452380D01*
X141071428Y-156452380D01*
X141166666Y-156500000D01*
X141214285Y-156547619D01*
X141261904Y-156642857D01*
X141261904Y-156690476D01*
X141214285Y-156785714D01*
X141166666Y-156833333D01*
X141071428Y-156880952D01*
X140880952Y-156880952D01*
X140785714Y-156928571D01*
X140738095Y-156976190D01*
X140690476Y-157071428D01*
X140690476Y-157261904D01*
X140738095Y-157357142D01*
X140785714Y-157404761D01*
X140880952Y-157452380D01*
X141071428Y-157452380D01*
X141166666Y-157404761D01*
X141214285Y-157357142D01*
X141261904Y-157261904D01*
X141261904Y-157071428D01*
X141214285Y-156976190D01*
X141166666Y-156928571D01*
X141071428Y-156880952D01*
X139357142Y-131857142D02*
X139309523Y-131904761D01*
X139166666Y-131952380D01*
X139071428Y-131952380D01*
X138928571Y-131904761D01*
X138833333Y-131809523D01*
X138785714Y-131714285D01*
X138738095Y-131523809D01*
X138738095Y-131380952D01*
X138785714Y-131190476D01*
X138833333Y-131095238D01*
X138928571Y-131000000D01*
X139071428Y-130952380D01*
X139166666Y-130952380D01*
X139309523Y-131000000D01*
X139357142Y-131047619D01*
X140309523Y-131952380D02*
X139738095Y-131952380D01*
X140023809Y-131952380D02*
X140023809Y-130952380D01*
X139928571Y-131095238D01*
X139833333Y-131190476D01*
X139738095Y-131238095D01*
X140642857Y-130952380D02*
X141309523Y-130952380D01*
X140880952Y-131952380D01*
X139357142Y-106357142D02*
X139309523Y-106404761D01*
X139166666Y-106452380D01*
X139071428Y-106452380D01*
X138928571Y-106404761D01*
X138833333Y-106309523D01*
X138785714Y-106214285D01*
X138738095Y-106023809D01*
X138738095Y-105880952D01*
X138785714Y-105690476D01*
X138833333Y-105595238D01*
X138928571Y-105500000D01*
X139071428Y-105452380D01*
X139166666Y-105452380D01*
X139309523Y-105500000D01*
X139357142Y-105547619D01*
X140309523Y-106452380D02*
X139738095Y-106452380D01*
X140023809Y-106452380D02*
X140023809Y-105452380D01*
X139928571Y-105595238D01*
X139833333Y-105690476D01*
X139738095Y-105738095D01*
X141166666Y-105452380D02*
X140976190Y-105452380D01*
X140880952Y-105500000D01*
X140833333Y-105547619D01*
X140738095Y-105690476D01*
X140690476Y-105880952D01*
X140690476Y-106261904D01*
X140738095Y-106357142D01*
X140785714Y-106404761D01*
X140880952Y-106452380D01*
X141071428Y-106452380D01*
X141166666Y-106404761D01*
X141214285Y-106357142D01*
X141261904Y-106261904D01*
X141261904Y-106023809D01*
X141214285Y-105928571D01*
X141166666Y-105880952D01*
X141071428Y-105833333D01*
X140880952Y-105833333D01*
X140785714Y-105880952D01*
X140738095Y-105928571D01*
X140690476Y-106023809D01*
X139357142Y-81357142D02*
X139309523Y-81404761D01*
X139166666Y-81452380D01*
X139071428Y-81452380D01*
X138928571Y-81404761D01*
X138833333Y-81309523D01*
X138785714Y-81214285D01*
X138738095Y-81023809D01*
X138738095Y-80880952D01*
X138785714Y-80690476D01*
X138833333Y-80595238D01*
X138928571Y-80500000D01*
X139071428Y-80452380D01*
X139166666Y-80452380D01*
X139309523Y-80500000D01*
X139357142Y-80547619D01*
X140309523Y-81452380D02*
X139738095Y-81452380D01*
X140023809Y-81452380D02*
X140023809Y-80452380D01*
X139928571Y-80595238D01*
X139833333Y-80690476D01*
X139738095Y-80738095D01*
X141214285Y-80452380D02*
X140738095Y-80452380D01*
X140690476Y-80928571D01*
X140738095Y-80880952D01*
X140833333Y-80833333D01*
X141071428Y-80833333D01*
X141166666Y-80880952D01*
X141214285Y-80928571D01*
X141261904Y-81023809D01*
X141261904Y-81261904D01*
X141214285Y-81357142D01*
X141166666Y-81404761D01*
X141071428Y-81452380D01*
X140833333Y-81452380D01*
X140738095Y-81404761D01*
X140690476Y-81357142D01*
X139357142Y-55357142D02*
X139309523Y-55404761D01*
X139166666Y-55452380D01*
X139071428Y-55452380D01*
X138928571Y-55404761D01*
X138833333Y-55309523D01*
X138785714Y-55214285D01*
X138738095Y-55023809D01*
X138738095Y-54880952D01*
X138785714Y-54690476D01*
X138833333Y-54595238D01*
X138928571Y-54500000D01*
X139071428Y-54452380D01*
X139166666Y-54452380D01*
X139309523Y-54500000D01*
X139357142Y-54547619D01*
X140309523Y-55452380D02*
X139738095Y-55452380D01*
X140023809Y-55452380D02*
X140023809Y-54452380D01*
X139928571Y-54595238D01*
X139833333Y-54690476D01*
X139738095Y-54738095D01*
X141166666Y-54785714D02*
X141166666Y-55452380D01*
X140928571Y-54404761D02*
X140690476Y-55119047D01*
X141309523Y-55119047D01*
X139357142Y-30357142D02*
X139309523Y-30404761D01*
X139166666Y-30452380D01*
X139071428Y-30452380D01*
X138928571Y-30404761D01*
X138833333Y-30309523D01*
X138785714Y-30214285D01*
X138738095Y-30023809D01*
X138738095Y-29880952D01*
X138785714Y-29690476D01*
X138833333Y-29595238D01*
X138928571Y-29500000D01*
X139071428Y-29452380D01*
X139166666Y-29452380D01*
X139309523Y-29500000D01*
X139357142Y-29547619D01*
X140309523Y-30452380D02*
X139738095Y-30452380D01*
X140023809Y-30452380D02*
X140023809Y-29452380D01*
X139928571Y-29595238D01*
X139833333Y-29690476D01*
X139738095Y-29738095D01*
X140642857Y-29452380D02*
X141261904Y-29452380D01*
X140928571Y-29833333D01*
X141071428Y-29833333D01*
X141166666Y-29880952D01*
X141214285Y-29928571D01*
X141261904Y-30023809D01*
X141261904Y-30261904D01*
X141214285Y-30357142D01*
X141166666Y-30404761D01*
X141071428Y-30452380D01*
X140785714Y-30452380D01*
X140690476Y-30404761D01*
X140642857Y-30357142D01*
X114357142Y-157357142D02*
X114309523Y-157404761D01*
X114166666Y-157452380D01*
X114071428Y-157452380D01*
X113928571Y-157404761D01*
X113833333Y-157309523D01*
X113785714Y-157214285D01*
X113738095Y-157023809D01*
X113738095Y-156880952D01*
X113785714Y-156690476D01*
X113833333Y-156595238D01*
X113928571Y-156500000D01*
X114071428Y-156452380D01*
X114166666Y-156452380D01*
X114309523Y-156500000D01*
X114357142Y-156547619D01*
X115309523Y-157452380D02*
X114738095Y-157452380D01*
X115023809Y-157452380D02*
X115023809Y-156452380D01*
X114928571Y-156595238D01*
X114833333Y-156690476D01*
X114738095Y-156738095D01*
X115690476Y-156547619D02*
X115738095Y-156500000D01*
X115833333Y-156452380D01*
X116071428Y-156452380D01*
X116166666Y-156500000D01*
X116214285Y-156547619D01*
X116261904Y-156642857D01*
X116261904Y-156738095D01*
X116214285Y-156880952D01*
X115642857Y-157452380D01*
X116261904Y-157452380D01*
X114357142Y-131857142D02*
X114309523Y-131904761D01*
X114166666Y-131952380D01*
X114071428Y-131952380D01*
X113928571Y-131904761D01*
X113833333Y-131809523D01*
X113785714Y-131714285D01*
X113738095Y-131523809D01*
X113738095Y-131380952D01*
X113785714Y-131190476D01*
X113833333Y-131095238D01*
X113928571Y-131000000D01*
X114071428Y-130952380D01*
X114166666Y-130952380D01*
X114309523Y-131000000D01*
X114357142Y-131047619D01*
X115309523Y-131952380D02*
X114738095Y-131952380D01*
X115023809Y-131952380D02*
X115023809Y-130952380D01*
X114928571Y-131095238D01*
X114833333Y-131190476D01*
X114738095Y-131238095D01*
X116261904Y-131952380D02*
X115690476Y-131952380D01*
X115976190Y-131952380D02*
X115976190Y-130952380D01*
X115880952Y-131095238D01*
X115785714Y-131190476D01*
X115690476Y-131238095D01*
X114357142Y-106357142D02*
X114309523Y-106404761D01*
X114166666Y-106452380D01*
X114071428Y-106452380D01*
X113928571Y-106404761D01*
X113833333Y-106309523D01*
X113785714Y-106214285D01*
X113738095Y-106023809D01*
X113738095Y-105880952D01*
X113785714Y-105690476D01*
X113833333Y-105595238D01*
X113928571Y-105500000D01*
X114071428Y-105452380D01*
X114166666Y-105452380D01*
X114309523Y-105500000D01*
X114357142Y-105547619D01*
X115309523Y-106452380D02*
X114738095Y-106452380D01*
X115023809Y-106452380D02*
X115023809Y-105452380D01*
X114928571Y-105595238D01*
X114833333Y-105690476D01*
X114738095Y-105738095D01*
X115928571Y-105452380D02*
X116023809Y-105452380D01*
X116119047Y-105500000D01*
X116166666Y-105547619D01*
X116214285Y-105642857D01*
X116261904Y-105833333D01*
X116261904Y-106071428D01*
X116214285Y-106261904D01*
X116166666Y-106357142D01*
X116119047Y-106404761D01*
X116023809Y-106452380D01*
X115928571Y-106452380D01*
X115833333Y-106404761D01*
X115785714Y-106357142D01*
X115738095Y-106261904D01*
X115690476Y-106071428D01*
X115690476Y-105833333D01*
X115738095Y-105642857D01*
X115785714Y-105547619D01*
X115833333Y-105500000D01*
X115928571Y-105452380D01*
X114333333Y-81357142D02*
X114285714Y-81404761D01*
X114142857Y-81452380D01*
X114047619Y-81452380D01*
X113904761Y-81404761D01*
X113809523Y-81309523D01*
X113761904Y-81214285D01*
X113714285Y-81023809D01*
X113714285Y-80880952D01*
X113761904Y-80690476D01*
X113809523Y-80595238D01*
X113904761Y-80500000D01*
X114047619Y-80452380D01*
X114142857Y-80452380D01*
X114285714Y-80500000D01*
X114333333Y-80547619D01*
X114809523Y-81452380D02*
X115000000Y-81452380D01*
X115095238Y-81404761D01*
X115142857Y-81357142D01*
X115238095Y-81214285D01*
X115285714Y-81023809D01*
X115285714Y-80642857D01*
X115238095Y-80547619D01*
X115190476Y-80500000D01*
X115095238Y-80452380D01*
X114904761Y-80452380D01*
X114809523Y-80500000D01*
X114761904Y-80547619D01*
X114714285Y-80642857D01*
X114714285Y-80880952D01*
X114761904Y-80976190D01*
X114809523Y-81023809D01*
X114904761Y-81071428D01*
X115095238Y-81071428D01*
X115190476Y-81023809D01*
X115238095Y-80976190D01*
X115285714Y-80880952D01*
X114333333Y-55857142D02*
X114285714Y-55904761D01*
X114142857Y-55952380D01*
X114047619Y-55952380D01*
X113904761Y-55904761D01*
X113809523Y-55809523D01*
X113761904Y-55714285D01*
X113714285Y-55523809D01*
X113714285Y-55380952D01*
X113761904Y-55190476D01*
X113809523Y-55095238D01*
X113904761Y-55000000D01*
X114047619Y-54952380D01*
X114142857Y-54952380D01*
X114285714Y-55000000D01*
X114333333Y-55047619D01*
X114904761Y-55380952D02*
X114809523Y-55333333D01*
X114761904Y-55285714D01*
X114714285Y-55190476D01*
X114714285Y-55142857D01*
X114761904Y-55047619D01*
X114809523Y-55000000D01*
X114904761Y-54952380D01*
X115095238Y-54952380D01*
X115190476Y-55000000D01*
X115238095Y-55047619D01*
X115285714Y-55142857D01*
X115285714Y-55190476D01*
X115238095Y-55285714D01*
X115190476Y-55333333D01*
X115095238Y-55380952D01*
X114904761Y-55380952D01*
X114809523Y-55428571D01*
X114761904Y-55476190D01*
X114714285Y-55571428D01*
X114714285Y-55761904D01*
X114761904Y-55857142D01*
X114809523Y-55904761D01*
X114904761Y-55952380D01*
X115095238Y-55952380D01*
X115190476Y-55904761D01*
X115238095Y-55857142D01*
X115285714Y-55761904D01*
X115285714Y-55571428D01*
X115238095Y-55476190D01*
X115190476Y-55428571D01*
X115095238Y-55380952D01*
X114333333Y-30357142D02*
X114285714Y-30404761D01*
X114142857Y-30452380D01*
X114047619Y-30452380D01*
X113904761Y-30404761D01*
X113809523Y-30309523D01*
X113761904Y-30214285D01*
X113714285Y-30023809D01*
X113714285Y-29880952D01*
X113761904Y-29690476D01*
X113809523Y-29595238D01*
X113904761Y-29500000D01*
X114047619Y-29452380D01*
X114142857Y-29452380D01*
X114285714Y-29500000D01*
X114333333Y-29547619D01*
X114666666Y-29452380D02*
X115333333Y-29452380D01*
X114904761Y-30452380D01*
X88333333Y-157357142D02*
X88285714Y-157404761D01*
X88142857Y-157452380D01*
X88047619Y-157452380D01*
X87904761Y-157404761D01*
X87809523Y-157309523D01*
X87761904Y-157214285D01*
X87714285Y-157023809D01*
X87714285Y-156880952D01*
X87761904Y-156690476D01*
X87809523Y-156595238D01*
X87904761Y-156500000D01*
X88047619Y-156452380D01*
X88142857Y-156452380D01*
X88285714Y-156500000D01*
X88333333Y-156547619D01*
X89190476Y-156452380D02*
X89000000Y-156452380D01*
X88904761Y-156500000D01*
X88857142Y-156547619D01*
X88761904Y-156690476D01*
X88714285Y-156880952D01*
X88714285Y-157261904D01*
X88761904Y-157357142D01*
X88809523Y-157404761D01*
X88904761Y-157452380D01*
X89095238Y-157452380D01*
X89190476Y-157404761D01*
X89238095Y-157357142D01*
X89285714Y-157261904D01*
X89285714Y-157023809D01*
X89238095Y-156928571D01*
X89190476Y-156880952D01*
X89095238Y-156833333D01*
X88904761Y-156833333D01*
X88809523Y-156880952D01*
X88761904Y-156928571D01*
X88714285Y-157023809D01*
X88333333Y-131857142D02*
X88285714Y-131904761D01*
X88142857Y-131952380D01*
X88047619Y-131952380D01*
X87904761Y-131904761D01*
X87809523Y-131809523D01*
X87761904Y-131714285D01*
X87714285Y-131523809D01*
X87714285Y-131380952D01*
X87761904Y-131190476D01*
X87809523Y-131095238D01*
X87904761Y-131000000D01*
X88047619Y-130952380D01*
X88142857Y-130952380D01*
X88285714Y-131000000D01*
X88333333Y-131047619D01*
X89238095Y-130952380D02*
X88761904Y-130952380D01*
X88714285Y-131428571D01*
X88761904Y-131380952D01*
X88857142Y-131333333D01*
X89095238Y-131333333D01*
X89190476Y-131380952D01*
X89238095Y-131428571D01*
X89285714Y-131523809D01*
X89285714Y-131761904D01*
X89238095Y-131857142D01*
X89190476Y-131904761D01*
X89095238Y-131952380D01*
X88857142Y-131952380D01*
X88761904Y-131904761D01*
X88714285Y-131857142D01*
X88333333Y-106357142D02*
X88285714Y-106404761D01*
X88142857Y-106452380D01*
X88047619Y-106452380D01*
X87904761Y-106404761D01*
X87809523Y-106309523D01*
X87761904Y-106214285D01*
X87714285Y-106023809D01*
X87714285Y-105880952D01*
X87761904Y-105690476D01*
X87809523Y-105595238D01*
X87904761Y-105500000D01*
X88047619Y-105452380D01*
X88142857Y-105452380D01*
X88285714Y-105500000D01*
X88333333Y-105547619D01*
X89190476Y-105785714D02*
X89190476Y-106452380D01*
X88952380Y-105404761D02*
X88714285Y-106119047D01*
X89333333Y-106119047D01*
X88333333Y-81357142D02*
X88285714Y-81404761D01*
X88142857Y-81452380D01*
X88047619Y-81452380D01*
X87904761Y-81404761D01*
X87809523Y-81309523D01*
X87761904Y-81214285D01*
X87714285Y-81023809D01*
X87714285Y-80880952D01*
X87761904Y-80690476D01*
X87809523Y-80595238D01*
X87904761Y-80500000D01*
X88047619Y-80452380D01*
X88142857Y-80452380D01*
X88285714Y-80500000D01*
X88333333Y-80547619D01*
X88666666Y-80452380D02*
X89285714Y-80452380D01*
X88952380Y-80833333D01*
X89095238Y-80833333D01*
X89190476Y-80880952D01*
X89238095Y-80928571D01*
X89285714Y-81023809D01*
X89285714Y-81261904D01*
X89238095Y-81357142D01*
X89190476Y-81404761D01*
X89095238Y-81452380D01*
X88809523Y-81452380D01*
X88714285Y-81404761D01*
X88666666Y-81357142D01*
X88333333Y-55857142D02*
X88285714Y-55904761D01*
X88142857Y-55952380D01*
X88047619Y-55952380D01*
X87904761Y-55904761D01*
X87809523Y-55809523D01*
X87761904Y-55714285D01*
X87714285Y-55523809D01*
X87714285Y-55380952D01*
X87761904Y-55190476D01*
X87809523Y-55095238D01*
X87904761Y-55000000D01*
X88047619Y-54952380D01*
X88142857Y-54952380D01*
X88285714Y-55000000D01*
X88333333Y-55047619D01*
X88714285Y-55047619D02*
X88761904Y-55000000D01*
X88857142Y-54952380D01*
X89095238Y-54952380D01*
X89190476Y-55000000D01*
X89238095Y-55047619D01*
X89285714Y-55142857D01*
X89285714Y-55238095D01*
X89238095Y-55380952D01*
X88666666Y-55952380D01*
X89285714Y-55952380D01*
X88333333Y-30357142D02*
X88285714Y-30404761D01*
X88142857Y-30452380D01*
X88047619Y-30452380D01*
X87904761Y-30404761D01*
X87809523Y-30309523D01*
X87761904Y-30214285D01*
X87714285Y-30023809D01*
X87714285Y-29880952D01*
X87761904Y-29690476D01*
X87809523Y-29595238D01*
X87904761Y-29500000D01*
X88047619Y-29452380D01*
X88142857Y-29452380D01*
X88285714Y-29500000D01*
X88333333Y-29547619D01*
X89285714Y-30452380D02*
X88714285Y-30452380D01*
X89000000Y-30452380D02*
X89000000Y-29452380D01*
X88904761Y-29595238D01*
X88809523Y-29690476D01*
X88714285Y-29738095D01*
M02*
