<?xml version="1.0" standalone="no"?>
 <!DOCTYPE svg PUBLIC "-//W3C//DTD SVG 1.1//EN" 
 "http://www.w3.org/Graphics/SVG/1.1/DTD/svg11.dtd"> 
<svg xmlns="http://www.w3.org/2000/svg" version="1.1" 
    width="29.7002cm" height="21.0007cm" viewBox="0 0 116930 82680 ">
<title>SVG Picture created as neopixel_array-F_SilkS.svg date 2020/02/11 22:33:08 </title>
  <desc>Picture generated by PCBNEW </desc>
<g style="fill:#000000; fill-opacity:1;stroke:#000000; stroke-opacity:1;
stroke-linecap:round; stroke-linejoin:round; "
 transform="translate(0 0) scale(1 1)">
</g>
<g style="fill:#000000; fill-opacity:0.0; 
stroke:#000000; stroke-width:-0.000393701; stroke-opacity:1; 
stroke-linecap:round; stroke-linejoin:round;">
</g>
<g style="fill:#000000; fill-opacity:0.0; 
stroke:#000000; stroke-width:19.685; stroke-opacity:1; 
stroke-linecap:round; stroke-linejoin:round;">
<path d="M84645 63779
L86220 63779
" />
<path d="M86220 60039
L86220 63779
" />
<path d="M84645 60039
L86220 60039
" />
<path d="M27362 63779
L25787 63779
" />
<path d="M25787 60039
L25787 63779
" />
<path d="M27362 60039
L25787 60039
" />
<path d="M59448 50000
L59251 50000
" />
<path d="M72637 50984
L79330 50984
" />
<path d="M32677 50984
L39370 50984
" />
<path d="M39370 50984
L39370 50000
" />
<path d="M32677 50000
L32677 50984
" />
<path d="M49409 53346
L49409 52559
" />
<path d="M69291 53346
L69291 52559
" />
<path d="M62598 52559
L62598 53346
" />
<path d="M79330 53346
L79330 52559
" />
<path d="M69291 50984
L69291 50000
" />
<path d="M72637 50000
L72637 50984
" />
<path d="M59251 50984
L59251 50000
" />
<path d="M52559 52559
L52559 53346
" />
<path d="M62598 50000
L62598 50984
" />
<path d="M59251 52559
L52559 52559
" />
<path d="M52559 50984
L59251 50984
" />
<path d="M42716 50984
L49409 50984
" />
<path d="M49409 50984
L49409 50000
" />
<path d="M42716 50000
L42716 50984
" />
<path d="M62598 50984
L69291 50984
" />
<path d="M52559 50000
L52559 50984
" />
<path d="M42716 52559
L42716 53346
" />
<path d="M79330 52559
L72637 52559
" />
<path d="M69291 52559
L62598 52559
" />
<path d="M39370 53346
L39370 52559
" />
<path d="M32677 52559
L32677 53346
" />
<path d="M39370 52559
L32677 52559
" />
<path d="M49409 52559
L42716 52559
" />
<path d="M59251 53346
L59251 52559
" />
<path d="M79330 50984
L79330 50000
" />
<path d="M72637 52559
L72637 53346
" />
<path d="M72637 40944
L79330 40944
" />
<path d="M32677 40944
L39370 40944
" />
<path d="M39370 40944
L39370 40157
" />
<path d="M32677 40157
L32677 40944
" />
<path d="M49409 43307
L49409 42519
" />
<path d="M69291 43307
L69291 42519
" />
<path d="M62598 42519
L62598 43307
" />
<path d="M79330 43307
L79330 42519
" />
<path d="M69291 40944
L69291 40157
" />
<path d="M72637 40157
L72637 40944
" />
<path d="M59251 40944
L59251 40157
" />
<path d="M52559 42519
L52559 43307
" />
<path d="M62598 40157
L62598 40944
" />
<path d="M59251 42519
L52559 42519
" />
<path d="M52559 40944
L59251 40944
" />
<path d="M42716 40944
L49409 40944
" />
<path d="M49409 40944
L49409 40157
" />
<path d="M42716 40157
L42716 40944
" />
<path d="M62598 40944
L69291 40944
" />
<path d="M52559 40157
L52559 40944
" />
<path d="M42716 42519
L42716 43307
" />
<path d="M79330 42519
L72637 42519
" />
<path d="M69291 42519
L62598 42519
" />
<path d="M39370 43307
L39370 42519
" />
<path d="M32677 42519
L32677 43307
" />
<path d="M39370 42519
L32677 42519
" />
<path d="M49409 42519
L42716 42519
" />
<path d="M59251 43307
L59251 42519
" />
<path d="M79330 40944
L79330 39960
" />
<path d="M72637 42519
L72637 43307
" />
<path d="M72637 31102
L79330 31102
" />
<path d="M32677 31102
L39370 31102
" />
<path d="M39370 31102
L39370 30118
" />
<path d="M32677 30118
L32677 31102
" />
<path d="M49409 33464
L49409 32677
" />
<path d="M69291 33464
L69291 32677
" />
<path d="M62598 32677
L62598 33464
" />
<path d="M79330 33464
L79330 32677
" />
<path d="M69291 31102
L69291 30118
" />
<path d="M72637 30118
L72637 31102
" />
<path d="M59251 31102
L59251 30118
" />
<path d="M52559 32677
L52559 33464
" />
<path d="M62598 30118
L62598 31102
" />
<path d="M59251 32677
L52559 32677
" />
<path d="M52559 31102
L59251 31102
" />
<path d="M42716 31102
L49409 31102
" />
<path d="M49409 31102
L49409 30118
" />
<path d="M42716 30118
L42716 31102
" />
<path d="M62598 31102
L69291 31102
" />
<path d="M52559 30118
L52559 31102
" />
<path d="M42716 32677
L42716 33464
" />
<path d="M79330 32677
L72637 32677
" />
<path d="M69291 32677
L62598 32677
" />
<path d="M39370 33464
L39370 32677
" />
<path d="M32677 32677
L32677 33464
" />
<path d="M39370 32677
L32677 32677
" />
<path d="M49409 32677
L42716 32677
" />
<path d="M59251 33464
L59251 32677
" />
<path d="M79330 31102
L79330 30118
" />
<path d="M72637 32677
L72637 33464
" />
<path d="M25787 13385
L29330 13385
" />
<path d="M25787 10039
L25787 13385
" />
<path d="M29330 10039
L25787 10039
" />
<path d="M27362 63779
L29330 63779
" />
<path d="M29330 60039
L27362 60039
" />
<path d="M84645 63779
L82677 63779
" />
<path d="M82677 60039
L84645 60039
" />
<path d="M86220 10039
L82677 10039
" />
<path d="M86220 13385
L86220 10039
" />
<path d="M82677 13385
L86220 13385
" />
<path d="M64173 63779
L82677 63779
" />
<path d="M47834 63779
L29330 63779
" />
<path d="M47834 67519
L47834 63779
" />
<path d="M64173 67519
L47834 67519
" />
<path d="M64173 63779
L64173 67519
" />
<path d="M49409 13385
L49409 12795
" />
<path d="M41732 13385
L41732 20078
" />
<path d="M69291 13385
L69291 12795
" />
<path d="M61614 13385
L61614 20078
" />
<path d="M61614 20078
L62598 20078
" />
<path d="M62598 21062
L69291 21062
" />
<path d="M62598 12795
L62598 13385
" />
<path d="M70275 13385
L69291 13385
" />
<path d="M62598 13385
L61614 13385
" />
<path d="M70275 20078
L70275 13385
" />
<path d="M79330 13385
L79330 12795
" />
<path d="M71653 13385
L71653 20078
" />
<path d="M71653 20078
L72637 20078
" />
<path d="M52559 20078
L52559 21062
" />
<path d="M60236 20078
L60236 13385
" />
<path d="M52559 13385
L51574 13385
" />
<path d="M52559 21062
L59251 21062
" />
<path d="M52559 12795
L52559 13385
" />
<path d="M59251 20078
L60236 20078
" />
<path d="M59251 12795
L52559 12795
" />
<path d="M49409 21062
L49409 20078
" />
<path d="M42716 20078
L42716 21062
" />
<path d="M41732 20078
L42716 20078
" />
<path d="M42716 21062
L49409 21062
" />
<path d="M42716 12795
L42716 13385
" />
<path d="M50393 13385
L49409 13385
" />
<path d="M42716 13385
L41732 13385
" />
<path d="M50393 20078
L50393 13385
" />
<path d="M49409 20078
L50393 20078
" />
<path d="M72637 13385
L71653 13385
" />
<path d="M80314 20078
L80314 13385
" />
<path d="M79330 20078
L80314 20078
" />
<path d="M79330 12795
L72637 12795
" />
<path d="M69291 21062
L69291 20078
" />
<path d="M69291 12795
L62598 12795
" />
<path d="M72637 20078
L72637 21062
" />
<path d="M51574 13385
L51574 20078
" />
<path d="M51574 20078
L52559 20078
" />
<path d="M59251 21062
L59251 20078
" />
<path d="M32677 13385
L31692 13385
" />
<path d="M39370 13385
L39370 12795
" />
<path d="M32677 21062
L39370 21062
" />
<path d="M32677 12795
L32677 13385
" />
<path d="M39370 20078
L40354 20078
" />
<path d="M39370 12795
L32677 12795
" />
<path d="M31692 13385
L31692 20078
" />
<path d="M31692 20078
L32677 20078
" />
<path d="M40354 20078
L40354 13385
" />
<path d="M39370 21062
L39370 20078
" />
<path d="M32677 20078
L32677 21062
" />
<path d="M40354 13385
L39370 13385
" />
<path d="M49409 12795
L42716 12795
" />
<path d="M59251 13385
L59251 12795
" />
<path d="M60236 13385
L59251 13385
" />
<path d="M72637 21062
L79330 21062
" />
<path d="M72637 12795
L72637 13385
" />
<path d="M80314 13385
L79330 13385
" />
<path d="M69291 20078
L70275 20078
" />
<path d="M62598 20078
L62598 21062
" />
<path d="M79330 21062
L79330 20078
" />
<path d="M39370 23425
L39370 22637
" />
<path d="M31692 23425
L31692 30118
" />
<path d="M31692 30118
L32677 30118
" />
<path d="M32677 22637
L32677 23425
" />
<path d="M40354 23425
L39370 23425
" />
<path d="M32677 23425
L31692 23425
" />
<path d="M40354 30118
L40354 23425
" />
<path d="M39370 30118
L40354 30118
" />
<path d="M39370 22637
L32677 22637
" />
<path d="M49409 23425
L49409 22637
" />
<path d="M41732 23425
L41732 30118
" />
<path d="M41732 30118
L42716 30118
" />
<path d="M42716 22637
L42716 23425
" />
<path d="M50393 23425
L49409 23425
" />
<path d="M42716 23425
L41732 23425
" />
<path d="M50393 30118
L50393 23425
" />
<path d="M49409 30118
L50393 30118
" />
<path d="M49409 22637
L42716 22637
" />
<path d="M59251 23425
L59251 22637
" />
<path d="M51574 23425
L51574 30118
" />
<path d="M51574 30118
L52559 30118
" />
<path d="M52559 22637
L52559 23425
" />
<path d="M60236 23425
L59251 23425
" />
<path d="M52559 23425
L51574 23425
" />
<path d="M60236 30118
L60236 23425
" />
<path d="M59251 30118
L60236 30118
" />
<path d="M59251 22637
L52559 22637
" />
<path d="M69291 23425
L69291 22637
" />
<path d="M61614 23425
L61614 30118
" />
<path d="M61614 30118
L62598 30118
" />
<path d="M62598 22637
L62598 23425
" />
<path d="M70275 23425
L69291 23425
" />
<path d="M62598 23425
L61614 23425
" />
<path d="M70275 30118
L70275 23425
" />
<path d="M69291 30118
L70275 30118
" />
<path d="M69291 22637
L62598 22637
" />
<path d="M79330 23425
L79330 22637
" />
<path d="M71653 23425
L71653 30118
" />
<path d="M71653 30118
L72637 30118
" />
<path d="M72637 22637
L72637 23425
" />
<path d="M80314 23425
L79330 23425
" />
<path d="M72637 23425
L71653 23425
" />
<path d="M80314 30118
L80314 23425
" />
<path d="M79330 30118
L80314 30118
" />
<path d="M79330 22637
L72637 22637
" />
<path d="M71653 33464
L71653 40157
" />
<path d="M71653 40157
L72637 40157
" />
<path d="M80314 33464
L79330 33464
" />
<path d="M72637 33464
L71653 33464
" />
<path d="M80314 39960
L80314 33464
" />
<path d="M79330 39960
L80314 39960
" />
<path d="M61614 33464
L61614 40157
" />
<path d="M61614 40157
L62598 40157
" />
<path d="M70275 33464
L69291 33464
" />
<path d="M62598 33464
L61614 33464
" />
<path d="M70275 40157
L70275 33464
" />
<path d="M69291 40157
L70275 40157
" />
<path d="M51771 33464
L51771 40157
" />
<path d="M51771 40157
L52559 40157
" />
<path d="M60433 33464
L59251 33464
" />
<path d="M52559 33464
L51771 33464
" />
<path d="M60433 40157
L60433 33464
" />
<path d="M59251 40157
L60433 40157
" />
<path d="M41732 33464
L41732 40157
" />
<path d="M41732 40157
L42716 40157
" />
<path d="M50393 33464
L49409 33464
" />
<path d="M42716 33464
L41732 33464
" />
<path d="M50393 40157
L50393 33464
" />
<path d="M49409 40157
L50393 40157
" />
<path d="M31692 33464
L31692 40157
" />
<path d="M31692 40157
L32677 40157
" />
<path d="M40354 33464
L39370 33464
" />
<path d="M32677 33464
L31692 33464
" />
<path d="M40354 40157
L40354 33464
" />
<path d="M39370 40157
L40354 40157
" />
<path d="M31692 43307
L31692 50000
" />
<path d="M31692 50000
L32677 50000
" />
<path d="M40354 43307
L39370 43307
" />
<path d="M32677 43307
L31692 43307
" />
<path d="M40354 50000
L40354 43307
" />
<path d="M39370 50000
L40354 50000
" />
<path d="M41732 43307
L41732 50000
" />
<path d="M41732 50000
L42716 50000
" />
<path d="M50393 43307
L49409 43307
" />
<path d="M42716 43307
L41732 43307
" />
<path d="M50393 50000
L50393 43307
" />
<path d="M49409 50000
L50393 50000
" />
<path d="M51771 43307
L51771 50000
" />
<path d="M51771 50000
L52559 50000
" />
<path d="M60433 43307
L59251 43307
" />
<path d="M52559 43307
L51771 43307
" />
<path d="M60433 50000
L60433 43307
" />
<path d="M59448 50000
L60433 50000
" />
<path d="M61614 43307
L61614 50000
" />
<path d="M61614 50000
L62598 50000
" />
<path d="M70275 43307
L69291 43307
" />
<path d="M62598 43307
L61614 43307
" />
<path d="M70275 50000
L70275 43307
" />
<path d="M69291 50000
L70275 50000
" />
<path d="M71653 43307
L71653 50000
" />
<path d="M71653 50000
L72637 50000
" />
<path d="M80314 43307
L79330 43307
" />
<path d="M72637 43307
L71653 43307
" />
<path d="M80314 50000
L80314 43307
" />
<path d="M79330 50000
L80314 50000
" />
<path d="M71653 53346
L71653 60039
" />
<path d="M71653 60039
L72637 60039
" />
<path d="M72637 60826
L79330 60826
" />
<path d="M80314 53346
L79330 53346
" />
<path d="M72637 53346
L71653 53346
" />
<path d="M80314 60039
L80314 53346
" />
<path d="M79330 60039
L80314 60039
" />
<path d="M72637 60039
L72637 60826
" />
<path d="M79330 60826
L79330 60039
" />
<path d="M61614 53346
L61614 60039
" />
<path d="M61614 60039
L62598 60039
" />
<path d="M62598 60826
L69291 60826
" />
<path d="M70275 53346
L69291 53346
" />
<path d="M62598 53346
L61614 53346
" />
<path d="M70275 60039
L70275 53346
" />
<path d="M69291 60039
L70275 60039
" />
<path d="M62598 60039
L62598 60826
" />
<path d="M69291 60826
L69291 60039
" />
<path d="M51574 53346
L51574 60039
" />
<path d="M51574 60039
L52559 60039
" />
<path d="M52559 60826
L59251 60826
" />
<path d="M60236 53346
L59251 53346
" />
<path d="M52559 53346
L51574 53346
" />
<path d="M60236 60039
L60236 53346
" />
<path d="M59251 60039
L60236 60039
" />
<path d="M52559 60039
L52559 60826
" />
<path d="M59251 60826
L59251 60039
" />
<path d="M41732 53346
L41732 60039
" />
<path d="M41732 60039
L42716 60039
" />
<path d="M42716 60826
L49409 60826
" />
<path d="M50393 53346
L49409 53346
" />
<path d="M42716 53346
L41732 53346
" />
<path d="M50393 60039
L50393 53346
" />
<path d="M49409 60039
L50393 60039
" />
<path d="M42716 60039
L42716 60826
" />
<path d="M49409 60826
L49409 60039
" />
<path d="M31692 60039
L32677 60039
" />
<path d="M31692 53346
L31692 60039
" />
<path d="M32677 53346
L31692 53346
" />
<path d="M40354 53346
L39370 53346
" />
<path d="M40354 60039
L40354 53346
" />
<path d="M39370 60039
L40354 60039
" />
<path d="M39370 60826
L39370 60039
" />
<path d="M32677 60826
L39370 60826
" />
<path d="M32677 60039
L32677 60826
" />
<path d="M30314 60039
L29330 60039
" />
<path d="M30314 53346
L30314 60039
" />
<path d="M29330 53346
L30314 53346
" />
<path d="M29330 50000
L29330 53346
" />
<path d="M30314 50000
L29330 50000
" />
<path d="M30314 43503
L30314 50000
" />
<path d="M29330 43503
L30314 43503
" />
<path d="M29330 39960
L29330 43503
" />
<path d="M30314 39960
L29330 39960
" />
<path d="M30314 33464
L30314 39960
" />
<path d="M29330 33464
L30314 33464
" />
<path d="M29330 30118
L29330 33464
" />
<path d="M30314 30118
L29330 30118
" />
<path d="M30314 23425
L30314 30118
" />
<path d="M29330 23425
L30314 23425
" />
<path d="M29330 20078
L29330 23425
" />
<path d="M30314 20078
L29330 20078
" />
<path d="M30314 13385
L30314 20078
" />
<path d="M29330 13385
L30314 13385
" />
<path d="M32677 10039
L29330 10039
" />
<path d="M32677 10629
L32677 10039
" />
<path d="M39370 10629
L32677 10629
" />
<path d="M39370 10039
L39370 10629
" />
<path d="M42716 10039
L39370 10039
" />
<path d="M42716 10629
L42716 10039
" />
<path d="M49409 10629
L42716 10629
" />
<path d="M49409 10039
L49409 10629
" />
<path d="M52755 10039
L49409 10039
" />
<path d="M52755 10629
L52755 10039
" />
<path d="M59251 10629
L52755 10629
" />
<path d="M59251 10039
L59251 10629
" />
<path d="M62795 10039
L59251 10039
" />
<path d="M62795 10629
L62795 10039
" />
<path d="M69291 10629
L62795 10629
" />
<path d="M69291 10039
L69291 10629
" />
<path d="M72637 10039
L69291 10039
" />
<path d="M72637 10629
L72637 10039
" />
<path d="M79330 10629
L72637 10629
" />
<path d="M79330 10039
L79330 10629
" />
<path d="M82677 10039
L79330 10039
" />
<path d="M81692 13385
L82677 13385
" />
<path d="M81692 20078
L81692 13385
" />
<path d="M82677 20078
L81692 20078
" />
<path d="M82677 23425
L82677 20078
" />
<path d="M81692 23425
L82677 23425
" />
<path d="M81692 30118
L81692 23425
" />
<path d="M82677 30118
L81692 30118
" />
<path d="M82677 33464
L82677 30118
" />
<path d="M81692 33464
L82677 33464
" />
<path d="M81692 39960
L81692 33464
" />
<path d="M82677 39960
L81692 39960
" />
<path d="M82677 43503
L82677 39960
" />
<path d="M81692 43503
L82677 43503
" />
<path d="M81692 50000
L81692 43503
" />
<path d="M82677 50000
L81692 50000
" />
<path d="M82677 53346
L82677 50000
" />
<path d="M81692 53346
L82677 53346
" />
<path d="M81692 60039
L81692 53346
" />
<path d="M82677 60039
L81692 60039
" />
</g>
<g style="fill:#000000; fill-opacity:0.0; 
stroke:#000000; stroke-width:47.2441; stroke-opacity:1; 
stroke-linecap:round; stroke-linejoin:round;">
<path d="M81425 62757
L81608 62757
" />
<path d="M80391 62757
L80574 62757
" />
<path d="M81425.2 62637.7 A984.252 984.252 0.0 0 0 81425.4 60862.4 " />
<path d="M80574.6 60862.4 A984.252 984.252 0.0 0 0 80574.8 62637.7 " />
<path d="M81608.2 62757.9 A1177.17 1177.17 0.0 0 0 81425.5 60652.4 " />
<path d="M80574.5 60652.4 A1177.17 1177.17 0.0 0 0 80391.8 62757.9 " />
<path d="M31425.5 12847.6 A1177.17 1177.17 0.0 0 0 31608.2 10742.1 " />
<path d="M30391.8 10742.1 A1177.17 1177.17 0.0 0 0 30574.5 12847.6 " />
<path d="M31425.4 12637.6 A984.252 984.252 0.0 0 0 31425.2 10862.3 " />
<path d="M30574.8 10862.3 A984.252 984.252 0.0 0 0 30574.6 12637.6 " />
<path d="M31608 10742
L31425 10742
" />
<path d="M30574 10742
L30391 10742
" />
<path d="M30574 20742
L30391 20742
" />
<path d="M31608 20742
L31425 20742
" />
<path d="M30574.8 20862.3 A984.252 984.252 0.0 0 0 30574.6 22637.6 " />
<path d="M31425.4 22637.6 A984.252 984.252 0.0 0 0 31425.2 20862.3 " />
<path d="M30391.8 20742.1 A1177.17 1177.17 0.0 0 0 30574.5 22847.6 " />
<path d="M31425.5 22847.6 A1177.17 1177.17 0.0 0 0 31608.2 20742.1 " />
<path d="M31425.5 32847.6 A1177.17 1177.17 0.0 0 0 31608.2 30742.1 " />
<path d="M30391.8 30742.1 A1177.17 1177.17 0.0 0 0 30574.5 32847.6 " />
<path d="M31425.4 32637.6 A984.252 984.252 0.0 0 0 31425.2 30862.3 " />
<path d="M30574.8 30862.3 A984.252 984.252 0.0 0 0 30574.6 32637.6 " />
<path d="M31608 30742
L31425 30742
" />
<path d="M30574 30742
L30391 30742
" />
<path d="M30574 40742
L30391 40742
" />
<path d="M31608 40742
L31425 40742
" />
<path d="M30574.8 40862.3 A984.252 984.252 0.0 0 0 30574.6 42637.6 " />
<path d="M31425.4 42637.6 A984.252 984.252 0.0 0 0 31425.2 40862.3 " />
<path d="M30391.8 40742.1 A1177.17 1177.17 0.0 0 0 30574.5 42847.6 " />
<path d="M31425.5 42847.6 A1177.17 1177.17 0.0 0 0 31608.2 40742.1 " />
<path d="M30574 50742
L30391 50742
" />
<path d="M31608 50742
L31425 50742
" />
<path d="M30574.8 50862.3 A984.252 984.252 0.0 0 0 30574.6 52637.6 " />
<path d="M31425.4 52637.6 A984.252 984.252 0.0 0 0 31425.2 50862.3 " />
<path d="M30391.8 50742.1 A1177.17 1177.17 0.0 0 0 30574.5 52847.6 " />
<path d="M31425.5 52847.6 A1177.17 1177.17 0.0 0 0 31608.2 50742.1 " />
<path d="M30574 60742
L30391 60742
" />
<path d="M31608 60742
L31425 60742
" />
<path d="M30574.8 60862.3 A984.252 984.252 0.0 0 0 30574.6 62637.6 " />
<path d="M31425.4 62637.6 A984.252 984.252 0.0 0 0 31425.2 60862.3 " />
<path d="M30391.8 60742.1 A1177.17 1177.17 0.0 0 0 30574.5 62847.6 " />
<path d="M31425.5 62847.6 A1177.17 1177.17 0.0 0 0 31608.2 60742.1 " />
<path d="M40574.5 10652.4 A1177.17 1177.17 0.0 0 0 40391.8 12757.9 " />
<path d="M41608.2 12757.9 A1177.17 1177.17 0.0 0 0 41425.5 10652.4 " />
<path d="M40574.6 10862.4 A984.252 984.252 0.0 0 0 40574.8 12637.7 " />
<path d="M41425.2 12637.7 A984.252 984.252 0.0 0 0 41425.4 10862.4 " />
<path d="M40391 12757
L40574 12757
" />
<path d="M41425 12757
L41608 12757
" />
<path d="M41425 22757
L41608 22757
" />
<path d="M40391 22757
L40574 22757
" />
<path d="M41425.2 22637.7 A984.252 984.252 0.0 0 0 41425.4 20862.4 " />
<path d="M40574.6 20862.4 A984.252 984.252 0.0 0 0 40574.8 22637.7 " />
<path d="M41608.2 22757.9 A1177.17 1177.17 0.0 0 0 41425.5 20652.4 " />
<path d="M40574.5 20652.4 A1177.17 1177.17 0.0 0 0 40391.8 22757.9 " />
<path d="M40574.5 30652.4 A1177.17 1177.17 0.0 0 0 40391.8 32757.9 " />
<path d="M41608.2 32757.9 A1177.17 1177.17 0.0 0 0 41425.5 30652.4 " />
<path d="M40574.6 30862.4 A984.252 984.252 0.0 0 0 40574.8 32637.7 " />
<path d="M41425.2 32637.7 A984.252 984.252 0.0 0 0 41425.4 30862.4 " />
<path d="M40391 32757
L40574 32757
" />
<path d="M41425 32757
L41608 32757
" />
<path d="M41425 42757
L41608 42757
" />
<path d="M40391 42757
L40574 42757
" />
<path d="M41425.2 42637.7 A984.252 984.252 0.0 0 0 41425.4 40862.4 " />
<path d="M40574.6 40862.4 A984.252 984.252 0.0 0 0 40574.8 42637.7 " />
<path d="M41608.2 42757.9 A1177.17 1177.17 0.0 0 0 41425.5 40652.4 " />
<path d="M40574.5 40652.4 A1177.17 1177.17 0.0 0 0 40391.8 42757.9 " />
<path d="M41425 52757
L41608 52757
" />
<path d="M40391 52757
L40574 52757
" />
<path d="M41425.2 52637.7 A984.252 984.252 0.0 0 0 41425.4 50862.4 " />
<path d="M40574.6 50862.4 A984.252 984.252 0.0 0 0 40574.8 52637.7 " />
<path d="M41608.2 52757.9 A1177.17 1177.17 0.0 0 0 41425.5 50652.4 " />
<path d="M40574.5 50652.4 A1177.17 1177.17 0.0 0 0 40391.8 52757.9 " />
<path d="M41425 62757
L41608 62757
" />
<path d="M40391 62757
L40574 62757
" />
<path d="M41425.2 62637.7 A984.252 984.252 0.0 0 0 41425.4 60862.4 " />
<path d="M40574.6 60862.4 A984.252 984.252 0.0 0 0 40574.8 62637.7 " />
<path d="M41608.2 62757.9 A1177.17 1177.17 0.0 0 0 41425.5 60652.4 " />
<path d="M40574.5 60652.4 A1177.17 1177.17 0.0 0 0 40391.8 62757.9 " />
<path d="M51425.5 12847.6 A1177.17 1177.17 0.0 0 0 51608.2 10742.1 " />
<path d="M50391.8 10742.1 A1177.17 1177.17 0.0 0 0 50574.5 12847.6 " />
<path d="M51425.4 12637.6 A984.252 984.252 0.0 0 0 51425.2 10862.3 " />
<path d="M50574.8 10862.3 A984.252 984.252 0.0 0 0 50574.6 12637.6 " />
<path d="M51608 10742
L51425 10742
" />
<path d="M50574 10742
L50391 10742
" />
<path d="M50574 20742
L50391 20742
" />
<path d="M51608 20742
L51425 20742
" />
<path d="M50574.8 20862.3 A984.252 984.252 0.0 0 0 50574.6 22637.6 " />
<path d="M51425.4 22637.6 A984.252 984.252 0.0 0 0 51425.2 20862.3 " />
<path d="M50391.8 20742.1 A1177.17 1177.17 0.0 0 0 50574.5 22847.6 " />
<path d="M51425.5 22847.6 A1177.17 1177.17 0.0 0 0 51608.2 20742.1 " />
<path d="M51425.5 32847.6 A1177.17 1177.17 0.0 0 0 51608.2 30742.1 " />
<path d="M50391.8 30742.1 A1177.17 1177.17 0.0 0 0 50574.5 32847.6 " />
<path d="M51425.4 32637.6 A984.252 984.252 0.0 0 0 51425.2 30862.3 " />
<path d="M50574.8 30862.3 A984.252 984.252 0.0 0 0 50574.6 32637.6 " />
<path d="M51608 30742
L51425 30742
" />
<path d="M50574 30742
L50391 30742
" />
<path d="M50574 40742
L50391 40742
" />
<path d="M51608 40742
L51425 40742
" />
<path d="M50574.8 40862.3 A984.252 984.252 0.0 0 0 50574.6 42637.6 " />
<path d="M51425.4 42637.6 A984.252 984.252 0.0 0 0 51425.2 40862.3 " />
<path d="M50391.8 40742.1 A1177.17 1177.17 0.0 0 0 50574.5 42847.6 " />
<path d="M51425.5 42847.6 A1177.17 1177.17 0.0 0 0 51608.2 40742.1 " />
<path d="M50574 50742
L50391 50742
" />
<path d="M51608 50742
L51425 50742
" />
<path d="M50574.8 50862.3 A984.252 984.252 0.0 0 0 50574.6 52637.6 " />
<path d="M51425.4 52637.6 A984.252 984.252 0.0 0 0 51425.2 50862.3 " />
<path d="M50391.8 50742.1 A1177.17 1177.17 0.0 0 0 50574.5 52847.6 " />
<path d="M51425.5 52847.6 A1177.17 1177.17 0.0 0 0 51608.2 50742.1 " />
<path d="M50574 60742
L50391 60742
" />
<path d="M51608 60742
L51425 60742
" />
<path d="M50574.8 60862.3 A984.252 984.252 0.0 0 0 50574.6 62637.6 " />
<path d="M51425.4 62637.6 A984.252 984.252 0.0 0 0 51425.2 60862.3 " />
<path d="M50391.8 60742.1 A1177.17 1177.17 0.0 0 0 50574.5 62847.6 " />
<path d="M51425.5 62847.6 A1177.17 1177.17 0.0 0 0 51608.2 60742.1 " />
<path d="M61425 12757
L61608 12757
" />
<path d="M60391 12757
L60574 12757
" />
<path d="M61425.2 12637.7 A984.252 984.252 0.0 0 0 61425.4 10862.4 " />
<path d="M60574.6 10862.4 A984.252 984.252 0.0 0 0 60574.8 12637.7 " />
<path d="M61608.2 12757.9 A1177.17 1177.17 0.0 0 0 61425.5 10652.4 " />
<path d="M60574.5 10652.4 A1177.17 1177.17 0.0 0 0 60391.8 12757.9 " />
<path d="M61425 22757
L61608 22757
" />
<path d="M60391 22757
L60574 22757
" />
<path d="M61425.2 22637.7 A984.252 984.252 0.0 0 0 61425.4 20862.4 " />
<path d="M60574.6 20862.4 A984.252 984.252 0.0 0 0 60574.8 22637.7 " />
<path d="M61608.2 22757.9 A1177.17 1177.17 0.0 0 0 61425.5 20652.4 " />
<path d="M60574.5 20652.4 A1177.17 1177.17 0.0 0 0 60391.8 22757.9 " />
<path d="M60574.5 30652.4 A1177.17 1177.17 0.0 0 0 60391.8 32757.9 " />
<path d="M61608.2 32757.9 A1177.17 1177.17 0.0 0 0 61425.5 30652.4 " />
<path d="M60574.6 30862.4 A984.252 984.252 0.0 0 0 60574.8 32637.7 " />
<path d="M61425.2 32637.7 A984.252 984.252 0.0 0 0 61425.4 30862.4 " />
<path d="M60391 32757
L60574 32757
" />
<path d="M61425 32757
L61608 32757
" />
<path d="M61425 42757
L61608 42757
" />
<path d="M60391 42757
L60574 42757
" />
<path d="M61425.2 42637.7 A984.252 984.252 0.0 0 0 61425.4 40862.4 " />
<path d="M60574.6 40862.4 A984.252 984.252 0.0 0 0 60574.8 42637.7 " />
<path d="M61608.2 42757.9 A1177.17 1177.17 0.0 0 0 61425.5 40652.4 " />
<path d="M60574.5 40652.4 A1177.17 1177.17 0.0 0 0 60391.8 42757.9 " />
<path d="M61425 52757
L61608 52757
" />
<path d="M60391 52757
L60574 52757
" />
<path d="M61425.2 52637.7 A984.252 984.252 0.0 0 0 61425.4 50862.4 " />
<path d="M60574.6 50862.4 A984.252 984.252 0.0 0 0 60574.8 52637.7 " />
<path d="M61608.2 52757.9 A1177.17 1177.17 0.0 0 0 61425.5 50652.4 " />
<path d="M60574.5 50652.4 A1177.17 1177.17 0.0 0 0 60391.8 52757.9 " />
<path d="M61425 62757
L61608 62757
" />
<path d="M60391 62757
L60574 62757
" />
<path d="M61425.2 62637.7 A984.252 984.252 0.0 0 0 61425.4 60862.4 " />
<path d="M60574.6 60862.4 A984.252 984.252 0.0 0 0 60574.8 62637.7 " />
<path d="M61608.2 62757.9 A1177.17 1177.17 0.0 0 0 61425.5 60652.4 " />
<path d="M60574.5 60652.4 A1177.17 1177.17 0.0 0 0 60391.8 62757.9 " />
<path d="M71425.5 12847.6 A1177.17 1177.17 0.0 0 0 71608.2 10742.1 " />
<path d="M70391.8 10742.1 A1177.17 1177.17 0.0 0 0 70574.5 12847.6 " />
<path d="M71425.4 12637.6 A984.252 984.252 0.0 0 0 71425.2 10862.3 " />
<path d="M70574.8 10862.3 A984.252 984.252 0.0 0 0 70574.6 12637.6 " />
<path d="M71608 10742
L71425 10742
" />
<path d="M70574 10742
L70391 10742
" />
<path d="M70574 20742
L70391 20742
" />
<path d="M71608 20742
L71425 20742
" />
<path d="M70574.8 20862.3 A984.252 984.252 0.0 0 0 70574.6 22637.6 " />
<path d="M71425.4 22637.6 A984.252 984.252 0.0 0 0 71425.2 20862.3 " />
<path d="M70391.8 20742.1 A1177.17 1177.17 0.0 0 0 70574.5 22847.6 " />
<path d="M71425.5 22847.6 A1177.17 1177.17 0.0 0 0 71608.2 20742.1 " />
<path d="M71425.5 32847.6 A1177.17 1177.17 0.0 0 0 71608.2 30742.1 " />
<path d="M70391.8 30742.1 A1177.17 1177.17 0.0 0 0 70574.5 32847.6 " />
<path d="M71425.4 32637.6 A984.252 984.252 0.0 0 0 71425.2 30862.3 " />
<path d="M70574.8 30862.3 A984.252 984.252 0.0 0 0 70574.6 32637.6 " />
<path d="M71608 30742
L71425 30742
" />
<path d="M70574 30742
L70391 30742
" />
<path d="M70574 40742
L70391 40742
" />
<path d="M71608 40742
L71425 40742
" />
<path d="M70574.8 40862.3 A984.252 984.252 0.0 0 0 70574.6 42637.6 " />
<path d="M71425.4 42637.6 A984.252 984.252 0.0 0 0 71425.2 40862.3 " />
<path d="M70391.8 40742.1 A1177.17 1177.17 0.0 0 0 70574.5 42847.6 " />
<path d="M71425.5 42847.6 A1177.17 1177.17 0.0 0 0 71608.2 40742.1 " />
<path d="M70574 50742
L70391 50742
" />
<path d="M71608 50742
L71425 50742
" />
<path d="M70574.8 50862.3 A984.252 984.252 0.0 0 0 70574.6 52637.6 " />
<path d="M71425.4 52637.6 A984.252 984.252 0.0 0 0 71425.2 50862.3 " />
<path d="M70391.8 50742.1 A1177.17 1177.17 0.0 0 0 70574.5 52847.6 " />
<path d="M71425.5 52847.6 A1177.17 1177.17 0.0 0 0 71608.2 50742.1 " />
<path d="M70574 60742
L70391 60742
" />
<path d="M71608 60742
L71425 60742
" />
<path d="M70574.8 60862.3 A984.252 984.252 0.0 0 0 70574.6 62637.6 " />
<path d="M71425.4 62637.6 A984.252 984.252 0.0 0 0 71425.2 60862.3 " />
<path d="M70391.8 60742.1 A1177.17 1177.17 0.0 0 0 70574.5 62847.6 " />
<path d="M71425.5 62847.6 A1177.17 1177.17 0.0 0 0 71608.2 60742.1 " />
<path d="M80574.5 10652.4 A1177.17 1177.17 0.0 0 0 80391.8 12757.9 " />
<path d="M81608.2 12757.9 A1177.17 1177.17 0.0 0 0 81425.5 10652.4 " />
<path d="M80574.6 10862.4 A984.252 984.252 0.0 0 0 80574.8 12637.7 " />
<path d="M81425.2 12637.7 A984.252 984.252 0.0 0 0 81425.4 10862.4 " />
<path d="M80391 12757
L80574 12757
" />
<path d="M81425 12757
L81608 12757
" />
<path d="M81425 22757
L81608 22757
" />
<path d="M80391 22757
L80574 22757
" />
<path d="M81425.2 22637.7 A984.252 984.252 0.0 0 0 81425.4 20862.4 " />
<path d="M80574.6 20862.4 A984.252 984.252 0.0 0 0 80574.8 22637.7 " />
<path d="M81608.2 22757.9 A1177.17 1177.17 0.0 0 0 81425.5 20652.4 " />
<path d="M80574.5 20652.4 A1177.17 1177.17 0.0 0 0 80391.8 22757.9 " />
<path d="M80574.5 30652.4 A1177.17 1177.17 0.0 0 0 80391.8 32757.9 " />
<path d="M81608.2 32757.9 A1177.17 1177.17 0.0 0 0 81425.5 30652.4 " />
<path d="M80574.6 30862.4 A984.252 984.252 0.0 0 0 80574.8 32637.7 " />
<path d="M81425.2 32637.7 A984.252 984.252 0.0 0 0 81425.4 30862.4 " />
<path d="M80391 32757
L80574 32757
" />
<path d="M81425 32757
L81608 32757
" />
<path d="M81425 42757
L81608 42757
" />
<path d="M80391 42757
L80574 42757
" />
<path d="M81425.2 42637.7 A984.252 984.252 0.0 0 0 81425.4 40862.4 " />
<path d="M80574.6 40862.4 A984.252 984.252 0.0 0 0 80574.8 42637.7 " />
<path d="M81608.2 42757.9 A1177.17 1177.17 0.0 0 0 81425.5 40652.4 " />
<path d="M80574.5 40652.4 A1177.17 1177.17 0.0 0 0 80391.8 42757.9 " />
<path d="M81425 52757
L81608 52757
" />
<path d="M80391 52757
L80574 52757
" />
<path d="M81425.2 52637.7 A984.252 984.252 0.0 0 0 81425.4 50862.4 " />
<path d="M80574.6 50862.4 A984.252 984.252 0.0 0 0 80574.8 52637.7 " />
<path d="M81608.2 52757.9 A1177.17 1177.17 0.0 0 0 81425.5 50652.4 " />
<path d="M80574.5 50652.4 A1177.17 1177.17 0.0 0 0 80391.8 52757.9 " />
<path d="M63149 63818
L62559 63818
" />
<path d="M63149 64503
L63149 63818
" />
<path d="M48952 66716
L48952 63913
" />
<path d="M63055 66716
L63055 63913
" />
<path d="M63055 63913
L48952 63913
" />
<path d="M63055 66716
L48952 66716
" />
<path d="M63055 64527
L48952 64527
" />
<circle cx="49803.1" cy="65354.3" r="612.205" /> 
<circle cx="51181.1" cy="65354.3" r="612.205" /> 
<circle cx="52559.1" cy="65354.3" r="612.205" /> 
<circle cx="53937" cy="65354.3" r="612.205" /> 
<circle cx="55315" cy="65354.3" r="612.205" /> 
<circle cx="56692.9" cy="65354.3" r="612.205" /> 
<circle cx="58070.9" cy="65354.3" r="612.205" /> 
<circle cx="59448.8" cy="65354.3" r="612.205" /> 
<circle cx="60826.8" cy="65354.3" r="612.205" /> 
<path d="M62444.1 64790.6 A612.491 612.491 0.0 0 0 62194.1 64741.9 " />
<path d="M62768.5 65593.7 A612.491 612.491 0.0 0 0 62768.5 65115.1 " />
<path d="M61965.4 65918.1 A612.491 612.491 0.0 0 0 62444 65918.2 " />
<path d="M61640.9 65115 A612.491 612.491 0.0 0 0 61640.9 65593.6 " />
<path d="M62204.7 64742.1 A612.205 612.205 0.0 0 0 61965.5 64790.8 " />
<path d="M78046 62090
L78252 62090
" />
<path d="M78046 61531
L78252 61531
" />
<path d="M78046 52051
L78252 52051
" />
<path d="M78046 51492
L78252 51492
" />
<path d="M78046 42011
L78252 42011
" />
<path d="M78046 41452
L78252 41452
" />
<path d="M78046 32169
L78252 32169
" />
<path d="M78046 31610
L78252 31610
" />
<path d="M78046 22129
L78252 22129
" />
<path d="M78046 21570
L78252 21570
" />
<path d="M78046 12090
L78252 12090
" />
<path d="M78046 11531
L78252 11531
" />
<path d="M73921 61531
L73716 61531
" />
<path d="M73921 62090
L73716 62090
" />
<path d="M73921 52051
L73716 52051
" />
<path d="M73921 51492
L73716 51492
" />
<path d="M73921 41452
L73716 41452
" />
<path d="M73921 42011
L73716 42011
" />
<path d="M73921 31610
L73716 31610
" />
<path d="M73921 32169
L73716 32169
" />
<path d="M73921 21570
L73716 21570
" />
<path d="M73921 22129
L73716 22129
" />
<path d="M73921 11531
L73716 11531
" />
<path d="M73921 12090
L73716 12090
" />
<path d="M63882 61531
L63676 61531
" />
<path d="M63882 62090
L63676 62090
" />
<path d="M63882 51492
L63676 51492
" />
<path d="M63882 52051
L63676 52051
" />
<path d="M63882 41452
L63676 41452
" />
<path d="M63882 42011
L63676 42011
" />
<path d="M63882 31610
L63676 31610
" />
<path d="M63882 32169
L63676 32169
" />
<path d="M63882 21570
L63676 21570
" />
<path d="M63882 22129
L63676 22129
" />
<path d="M63882 11531
L63676 11531
" />
<path d="M63882 12090
L63676 12090
" />
<path d="M53843 61531
L53637 61531
" />
<path d="M53843 62090
L53637 62090
" />
<path d="M53843 51492
L53637 51492
" />
<path d="M53843 52051
L53637 52051
" />
<path d="M53843 41452
L53637 41452
" />
<path d="M53843 42011
L53637 42011
" />
<path d="M53843 31610
L53637 31610
" />
<path d="M53843 32169
L53637 32169
" />
<path d="M53843 21374
L53637 21374
" />
<path d="M53843 21933
L53637 21933
" />
<path d="M53843 11531
L53637 11531
" />
<path d="M53843 12090
L53637 12090
" />
<path d="M44000 62090
L43794 62090
" />
<path d="M44000 61531
L43794 61531
" />
<path d="M44000 51492
L43794 51492
" />
<path d="M44000 52051
L43794 52051
" />
<path d="M44000 42011
L43794 42011
" />
<path d="M44000 41452
L43794 41452
" />
<path d="M44000 32169
L43794 32169
" />
<path d="M44000 31610
L43794 31610
" />
<path d="M44000 22129
L43794 22129
" />
<path d="M44000 21570
L43794 21570
" />
<path d="M44000 12090
L43794 12090
" />
<path d="M44000 11531
L43794 11531
" />
<path d="M33764 61531
L33558 61531
" />
<path d="M33764 62090
L33558 62090
" />
<path d="M33764 52051
L33558 52051
" />
<path d="M33764 51492
L33558 51492
" />
<path d="M33764 41452
L33558 41452
" />
<path d="M33764 42011
L33558 42011
" />
<path d="M33754 31610
L33548 31610
" />
<path d="M33754 32169
L33548 32169
" />
<path d="M33764 21570
L33558 21570
" />
<path d="M33764 22129
L33558 22129
" />
<path d="M33764 11531
L33558 11531
" />
<path d="M33764 12090
L33558 12090
" />
<g >
</g>
<g >
</g>
<g >
</g>
<g >
</g>
<g >
</g>
<g >
</g>
<g >
</g>
<g >
</g>
<g >
</g>
<g >
</g>
<g >
</g>
<g >
</g>
<g >
</g>
<g >
</g>
<g >
</g>
<g >
</g>
<g >
</g>
<g >
</g>
<g >
</g>
<g >
</g>
<g >
</g>
<g >
</g>
<g >
</g>
<g >
</g>
<g >
</g>
<g >
</g>
<g >
</g>
<g >
</g>
<g >
</g>
<g >
</g>
<g >
</g>
<g >
</g>
<g >
</g>
<g >
</g>
<g >
</g>
<g >
</g>
<g >
</g>
<g >
</g>
<g >
</g>
<g >
</g>
<g >
</g>
<g >
</g>
<g >
</g>
<g >
</g>
<g >
</g>
<g >
</g>
<g >
</g>
<g >
</g>
<g >
</g>
<g >
</g>
<g >
</g>
<g >
</g>
<g >
</g>
<g >
</g>
<g >
</g>
<g >
</g>
<g >
</g>
<g >
</g>
<g >
</g>
<g >
</g>
<g >
</g>
<g >
</g>
<g >
</g>
<g >
</g>
<g >
</g>
<g >
</g>
<g >
</g>
<g >
</g>
<g >
</g>
<g >
</g>
<g >
</g>
<g >
</g>
<g >
</g>
<g >
</g>
<g >
</g>
<g >
</g>
<g >
</g>
</g>
<g style="fill:#000000; fill-opacity:0.0; 
stroke:#000000; stroke-width:47.2441; stroke-opacity:1; 
stroke-linecap:round; stroke-linejoin:round;">
</g>
<g style="fill:#000000; fill-opacity:0.0; 
stroke:#000000; stroke-width:59.0551; stroke-opacity:1; 
stroke-linecap:round; stroke-linejoin:round;">
<text x="27559.1" y="12992.1"
textLength="1464.1" font-size="524.934" lengthAdjust="spacingAndGlyphs"
text-anchor="middle" opacity="0">M2.5</text>
<path d="M26959 12973
L26959 12579
L27090 12860
L27221 12579
L27221 12973
" />
<path d="M27390 12617
L27409 12598
L27446 12579
L27540 12579
L27577 12598
L27596 12617
L27615 12654
L27615 12692
L27596 12748
L27371 12973
L27615 12973
" />
<path d="M27784 12935
L27802 12954
L27784 12973
L27765 12954
L27784 12935
L27784 12973
" />
<path d="M28158 12579
L27971 12579
L27952 12767
L27971 12748
L28008 12729
L28102 12729
L28140 12748
L28158 12767
L28177 12804
L28177 12898
L28158 12935
L28140 12954
L28102 12973
L28008 12973
L27971 12954
L27952 12935
" />
<text x="27559.1" y="63189"
textLength="1464.1" font-size="524.934" lengthAdjust="spacingAndGlyphs"
text-anchor="middle" opacity="0">M2.5</text>
<path d="M26959 63170
L26959 62776
L27090 63057
L27221 62776
L27221 63170
" />
<path d="M27390 62814
L27409 62795
L27446 62776
L27540 62776
L27577 62795
L27596 62814
L27615 62851
L27615 62889
L27596 62945
L27371 63170
L27615 63170
" />
<path d="M27784 63132
L27802 63151
L27784 63170
L27765 63151
L27784 63132
L27784 63170
" />
<path d="M28158 62776
L27971 62776
L27952 62964
L27971 62945
L28008 62926
L28102 62926
L28140 62945
L28158 62964
L28177 63001
L28177 63095
L28158 63132
L28140 63151
L28102 63170
L28008 63170
L27971 63151
L27952 63132
" />
<text x="84448.8" y="63189"
textLength="1464.1" font-size="524.934" lengthAdjust="spacingAndGlyphs"
text-anchor="middle" opacity="0">M2.5</text>
<path d="M83848 63170
L83848 62776
L83980 63057
L84111 62776
L84111 63170
" />
<path d="M84280 62814
L84298 62795
L84336 62776
L84430 62776
L84467 62795
L84486 62814
L84505 62851
L84505 62889
L84486 62945
L84261 63170
L84505 63170
" />
<path d="M84673 63132
L84692 63151
L84673 63170
L84655 63151
L84673 63132
L84673 63170
" />
<path d="M85048 62776
L84861 62776
L84842 62964
L84861 62945
L84898 62926
L84992 62926
L85029 62945
L85048 62964
L85067 63001
L85067 63095
L85048 63132
L85029 63151
L84992 63170
L84898 63170
L84861 63151
L84842 63132
" />
<text x="84448.8" y="12992.1"
textLength="1464.1" font-size="524.934" lengthAdjust="spacingAndGlyphs"
text-anchor="middle" opacity="0">M2.5</text>
<path d="M83848 12973
L83848 12579
L83980 12860
L84111 12579
L84111 12973
" />
<path d="M84280 12617
L84298 12598
L84336 12579
L84430 12579
L84467 12598
L84486 12617
L84505 12654
L84505 12692
L84486 12748
L84261 12973
L84505 12973
" />
<path d="M84673 12935
L84692 12954
L84673 12973
L84655 12954
L84673 12935
L84673 12973
" />
<path d="M85048 12579
L84861 12579
L84842 12767
L84861 12748
L84898 12729
L84992 12729
L85029 12748
L85048 12767
L85067 12804
L85067 12898
L85048 12935
L85029 12954
L84992 12973
L84898 12973
L84861 12954
L84842 12935
" />
<g transform="rotate(-90 79440.9 61750)">
<text x="79440.9" y="61946.9"
textLength="1220.38" font-size="524.934" lengthAdjust="spacingAndGlyphs"
text-anchor="middle" opacity="0">D36</text>
</g>
<path d="M79619 62228
L79225 62228
L79225 62134
L79244 62078
L79281 62040
L79319 62021
L79394 62003
L79450 62003
L79525 62021
L79562 62040
L79600 62078
L79619 62134
L79619 62228
" />
<path d="M79225 61871
L79225 61628
L79375 61759
L79375 61703
L79394 61665
L79412 61646
L79450 61628
L79544 61628
L79581 61646
L79600 61665
L79619 61703
L79619 61815
L79600 61853
L79581 61871
" />
<path d="M79225 61290
L79225 61365
L79244 61403
L79262 61421
L79319 61459
L79394 61478
L79544 61478
L79581 61459
L79600 61440
L79619 61403
L79619 61328
L79600 61290
L79581 61271
L79544 61253
L79450 61253
L79412 61271
L79394 61290
L79375 61328
L79375 61403
L79394 61440
L79412 61459
L79450 61478
" />
<g transform="rotate(-90 32559.1 11750)">
<text x="32559.1" y="11946.9"
textLength="845.426" font-size="524.934" lengthAdjust="spacingAndGlyphs"
text-anchor="middle" opacity="0">D1</text>
</g>
<path d="M32737 12040
L32343 12040
L32343 11946
L32362 11890
L32399 11853
L32437 11834
L32512 11815
L32568 11815
L32643 11834
L32680 11853
L32718 11890
L32737 11946
L32737 12040
" />
<path d="M32737 11440
L32737 11665
" />
<path d="M32737 11553
L32343 11553
L32399 11590
L32437 11628
L32455 11665
" />
<g transform="rotate(-90 32559.1 21750)">
<text x="32559.1" y="21946.9"
textLength="845.426" font-size="524.934" lengthAdjust="spacingAndGlyphs"
text-anchor="middle" opacity="0">D2</text>
</g>
<path d="M32737 22040
L32343 22040
L32343 21946
L32362 21890
L32399 21853
L32437 21834
L32512 21815
L32568 21815
L32643 21834
L32680 21853
L32718 21890
L32737 21946
L32737 22040
" />
<path d="M32380 21665
L32362 21646
L32343 21609
L32343 21515
L32362 21478
L32380 21459
L32418 21440
L32455 21440
L32512 21459
L32737 21684
L32737 21440
" />
<g transform="rotate(-90 32559.1 31750)">
<text x="32559.1" y="31946.9"
textLength="845.426" font-size="524.934" lengthAdjust="spacingAndGlyphs"
text-anchor="middle" opacity="0">D3</text>
</g>
<path d="M32737 32040
L32343 32040
L32343 31946
L32362 31890
L32399 31853
L32437 31834
L32512 31815
L32568 31815
L32643 31834
L32680 31853
L32718 31890
L32737 31946
L32737 32040
" />
<path d="M32343 31684
L32343 31440
L32493 31571
L32493 31515
L32512 31478
L32530 31459
L32568 31440
L32662 31440
L32699 31459
L32718 31478
L32737 31515
L32737 31628
L32718 31665
L32699 31684
" />
<g transform="rotate(-90 32559.1 41750)">
<text x="32559.1" y="41946.9"
textLength="845.426" font-size="524.934" lengthAdjust="spacingAndGlyphs"
text-anchor="middle" opacity="0">D4</text>
</g>
<path d="M32737 42040
L32343 42040
L32343 41946
L32362 41890
L32399 41853
L32437 41834
L32512 41815
L32568 41815
L32643 41834
L32680 41853
L32718 41890
L32737 41946
L32737 42040
" />
<path d="M32474 41478
L32737 41478
" />
<path d="M32324 41571
L32605 41665
L32605 41421
" />
<g transform="rotate(-90 32559.1 51750)">
<text x="32559.1" y="51946.9"
textLength="845.426" font-size="524.934" lengthAdjust="spacingAndGlyphs"
text-anchor="middle" opacity="0">D5</text>
</g>
<path d="M32737 52040
L32343 52040
L32343 51946
L32362 51890
L32399 51853
L32437 51834
L32512 51815
L32568 51815
L32643 51834
L32680 51853
L32718 51890
L32737 51946
L32737 52040
" />
<path d="M32343 51459
L32343 51646
L32530 51665
L32512 51646
L32493 51609
L32493 51515
L32512 51478
L32530 51459
L32568 51440
L32662 51440
L32699 51459
L32718 51478
L32737 51515
L32737 51609
L32718 51646
L32699 51665
" />
<g transform="rotate(-90 32559.1 61750)">
<text x="32559.1" y="61946.9"
textLength="845.426" font-size="524.934" lengthAdjust="spacingAndGlyphs"
text-anchor="middle" opacity="0">D6</text>
</g>
<path d="M32737 62040
L32343 62040
L32343 61946
L32362 61890
L32399 61853
L32437 61834
L32512 61815
L32568 61815
L32643 61834
L32680 61853
L32718 61890
L32737 61946
L32737 62040
" />
<path d="M32343 61478
L32343 61553
L32362 61590
L32380 61609
L32437 61646
L32512 61665
L32662 61665
L32699 61646
L32718 61628
L32737 61590
L32737 61515
L32718 61478
L32699 61459
L32662 61440
L32568 61440
L32530 61459
L32512 61478
L32493 61515
L32493 61590
L32512 61628
L32530 61646
L32568 61665
" />
<g transform="rotate(-90 39440.9 11750)">
<text x="39440.9" y="11946.9"
textLength="845.426" font-size="524.934" lengthAdjust="spacingAndGlyphs"
text-anchor="middle" opacity="0">D7</text>
</g>
<path d="M39619 12040
L39225 12040
L39225 11946
L39244 11890
L39281 11853
L39319 11834
L39394 11815
L39450 11815
L39525 11834
L39562 11853
L39600 11890
L39619 11946
L39619 12040
" />
<path d="M39225 11684
L39225 11421
L39619 11590
" />
<g transform="rotate(-90 39440.9 21750)">
<text x="39440.9" y="21946.9"
textLength="845.426" font-size="524.934" lengthAdjust="spacingAndGlyphs"
text-anchor="middle" opacity="0">D8</text>
</g>
<path d="M39619 22040
L39225 22040
L39225 21946
L39244 21890
L39281 21853
L39319 21834
L39394 21815
L39450 21815
L39525 21834
L39562 21853
L39600 21890
L39619 21946
L39619 22040
" />
<path d="M39394 21590
L39375 21628
L39356 21646
L39319 21665
L39300 21665
L39262 21646
L39244 21628
L39225 21590
L39225 21515
L39244 21478
L39262 21459
L39300 21440
L39319 21440
L39356 21459
L39375 21478
L39394 21515
L39394 21590
L39412 21628
L39431 21646
L39469 21665
L39544 21665
L39581 21646
L39600 21628
L39619 21590
L39619 21515
L39600 21478
L39581 21459
L39544 21440
L39469 21440
L39431 21459
L39412 21478
L39394 21515
" />
<g transform="rotate(-90 39440.9 31750)">
<text x="39440.9" y="31946.9"
textLength="845.426" font-size="524.934" lengthAdjust="spacingAndGlyphs"
text-anchor="middle" opacity="0">D9</text>
</g>
<path d="M39619 32040
L39225 32040
L39225 31946
L39244 31890
L39281 31853
L39319 31834
L39394 31815
L39450 31815
L39525 31834
L39562 31853
L39600 31890
L39619 31946
L39619 32040
" />
<path d="M39619 31628
L39619 31553
L39600 31515
L39581 31496
L39525 31459
L39450 31440
L39300 31440
L39262 31459
L39244 31478
L39225 31515
L39225 31590
L39244 31628
L39262 31646
L39300 31665
L39394 31665
L39431 31646
L39450 31628
L39469 31590
L39469 31515
L39450 31478
L39431 31459
L39394 31440
" />
<g transform="rotate(-90 39440.9 41750)">
<text x="39440.9" y="41946.9"
textLength="1220.38" font-size="524.934" lengthAdjust="spacingAndGlyphs"
text-anchor="middle" opacity="0">D10</text>
</g>
<path d="M39619 42228
L39225 42228
L39225 42134
L39244 42078
L39281 42040
L39319 42021
L39394 42003
L39450 42003
L39525 42021
L39562 42040
L39600 42078
L39619 42134
L39619 42228
" />
<path d="M39619 41628
L39619 41853
" />
<path d="M39619 41740
L39225 41740
L39281 41778
L39319 41815
L39337 41853
" />
<path d="M39225 41384
L39225 41346
L39244 41309
L39262 41290
L39300 41271
L39375 41253
L39469 41253
L39544 41271
L39581 41290
L39600 41309
L39619 41346
L39619 41384
L39600 41421
L39581 41440
L39544 41459
L39469 41478
L39375 41478
L39300 41459
L39262 41440
L39244 41421
L39225 41384
" />
<g transform="rotate(-90 39440.9 51750)">
<text x="39440.9" y="51946.9"
textLength="1220.38" font-size="524.934" lengthAdjust="spacingAndGlyphs"
text-anchor="middle" opacity="0">D11</text>
</g>
<path d="M39619 52228
L39225 52228
L39225 52134
L39244 52078
L39281 52040
L39319 52021
L39394 52003
L39450 52003
L39525 52021
L39562 52040
L39600 52078
L39619 52134
L39619 52228
" />
<path d="M39619 51628
L39619 51853
" />
<path d="M39619 51740
L39225 51740
L39281 51778
L39319 51815
L39337 51853
" />
<path d="M39619 51253
L39619 51478
" />
<path d="M39619 51365
L39225 51365
L39281 51403
L39319 51440
L39337 51478
" />
<g transform="rotate(-90 39440.9 61750)">
<text x="39440.9" y="61946.9"
textLength="1220.38" font-size="524.934" lengthAdjust="spacingAndGlyphs"
text-anchor="middle" opacity="0">D12</text>
</g>
<path d="M39619 62228
L39225 62228
L39225 62134
L39244 62078
L39281 62040
L39319 62021
L39394 62003
L39450 62003
L39525 62021
L39562 62040
L39600 62078
L39619 62134
L39619 62228
" />
<path d="M39619 61628
L39619 61853
" />
<path d="M39619 61740
L39225 61740
L39281 61778
L39319 61815
L39337 61853
" />
<path d="M39262 61478
L39244 61459
L39225 61421
L39225 61328
L39244 61290
L39262 61271
L39300 61253
L39337 61253
L39394 61271
L39619 61496
L39619 61253
" />
<g transform="rotate(-90 52559.1 11750)">
<text x="52559.1" y="11946.9"
textLength="1220.38" font-size="524.934" lengthAdjust="spacingAndGlyphs"
text-anchor="middle" opacity="0">D13</text>
</g>
<path d="M52737 12228
L52343 12228
L52343 12134
L52362 12078
L52399 12040
L52437 12021
L52512 12003
L52568 12003
L52643 12021
L52680 12040
L52718 12078
L52737 12134
L52737 12228
" />
<path d="M52737 11628
L52737 11853
" />
<path d="M52737 11740
L52343 11740
L52399 11778
L52437 11815
L52455 11853
" />
<path d="M52343 11496
L52343 11253
L52493 11384
L52493 11328
L52512 11290
L52530 11271
L52568 11253
L52662 11253
L52699 11271
L52718 11290
L52737 11328
L52737 11440
L52718 11478
L52699 11496
" />
<g transform="rotate(-90 52559.1 21750)">
<text x="52559.1" y="21946.9"
textLength="1220.38" font-size="524.934" lengthAdjust="spacingAndGlyphs"
text-anchor="middle" opacity="0">D14</text>
</g>
<path d="M52737 22228
L52343 22228
L52343 22134
L52362 22078
L52399 22040
L52437 22021
L52512 22003
L52568 22003
L52643 22021
L52680 22040
L52718 22078
L52737 22134
L52737 22228
" />
<path d="M52737 21628
L52737 21853
" />
<path d="M52737 21740
L52343 21740
L52399 21778
L52437 21815
L52455 21853
" />
<path d="M52474 21290
L52737 21290
" />
<path d="M52324 21384
L52605 21478
L52605 21234
" />
<g transform="rotate(-90 52559.1 31750)">
<text x="52559.1" y="31946.9"
textLength="1220.38" font-size="524.934" lengthAdjust="spacingAndGlyphs"
text-anchor="middle" opacity="0">D15</text>
</g>
<path d="M52737 32228
L52343 32228
L52343 32134
L52362 32078
L52399 32040
L52437 32021
L52512 32003
L52568 32003
L52643 32021
L52680 32040
L52718 32078
L52737 32134
L52737 32228
" />
<path d="M52737 31628
L52737 31853
" />
<path d="M52737 31740
L52343 31740
L52399 31778
L52437 31815
L52455 31853
" />
<path d="M52343 31271
L52343 31459
L52530 31478
L52512 31459
L52493 31421
L52493 31328
L52512 31290
L52530 31271
L52568 31253
L52662 31253
L52699 31271
L52718 31290
L52737 31328
L52737 31421
L52718 31459
L52699 31478
" />
<g transform="rotate(-90 52559.1 41750)">
<text x="52559.1" y="41946.9"
textLength="1220.38" font-size="524.934" lengthAdjust="spacingAndGlyphs"
text-anchor="middle" opacity="0">D16</text>
</g>
<path d="M52737 42228
L52343 42228
L52343 42134
L52362 42078
L52399 42040
L52437 42021
L52512 42003
L52568 42003
L52643 42021
L52680 42040
L52718 42078
L52737 42134
L52737 42228
" />
<path d="M52737 41628
L52737 41853
" />
<path d="M52737 41740
L52343 41740
L52399 41778
L52437 41815
L52455 41853
" />
<path d="M52343 41290
L52343 41365
L52362 41403
L52380 41421
L52437 41459
L52512 41478
L52662 41478
L52699 41459
L52718 41440
L52737 41403
L52737 41328
L52718 41290
L52699 41271
L52662 41253
L52568 41253
L52530 41271
L52512 41290
L52493 41328
L52493 41403
L52512 41440
L52530 41459
L52568 41478
" />
<g transform="rotate(-90 52559.1 51750)">
<text x="52559.1" y="51946.9"
textLength="1220.38" font-size="524.934" lengthAdjust="spacingAndGlyphs"
text-anchor="middle" opacity="0">D17</text>
</g>
<path d="M52737 52228
L52343 52228
L52343 52134
L52362 52078
L52399 52040
L52437 52021
L52512 52003
L52568 52003
L52643 52021
L52680 52040
L52718 52078
L52737 52134
L52737 52228
" />
<path d="M52737 51628
L52737 51853
" />
<path d="M52737 51740
L52343 51740
L52399 51778
L52437 51815
L52455 51853
" />
<path d="M52343 51496
L52343 51234
L52737 51403
" />
<g transform="rotate(-90 52559.1 61750)">
<text x="52559.1" y="61946.9"
textLength="1220.38" font-size="524.934" lengthAdjust="spacingAndGlyphs"
text-anchor="middle" opacity="0">D18</text>
</g>
<path d="M52737 62228
L52343 62228
L52343 62134
L52362 62078
L52399 62040
L52437 62021
L52512 62003
L52568 62003
L52643 62021
L52680 62040
L52718 62078
L52737 62134
L52737 62228
" />
<path d="M52737 61628
L52737 61853
" />
<path d="M52737 61740
L52343 61740
L52399 61778
L52437 61815
L52455 61853
" />
<path d="M52512 61403
L52493 61440
L52474 61459
L52437 61478
L52418 61478
L52380 61459
L52362 61440
L52343 61403
L52343 61328
L52362 61290
L52380 61271
L52418 61253
L52437 61253
L52474 61271
L52493 61290
L52512 61328
L52512 61403
L52530 61440
L52549 61459
L52587 61478
L52662 61478
L52699 61459
L52718 61440
L52737 61403
L52737 61328
L52718 61290
L52699 61271
L52662 61253
L52587 61253
L52549 61271
L52530 61290
L52512 61328
" />
<g transform="rotate(-90 59440.9 11750)">
<text x="59440.9" y="11946.9"
textLength="1220.38" font-size="524.934" lengthAdjust="spacingAndGlyphs"
text-anchor="middle" opacity="0">D19</text>
</g>
<path d="M59619 12228
L59225 12228
L59225 12134
L59244 12078
L59281 12040
L59319 12021
L59394 12003
L59450 12003
L59525 12021
L59562 12040
L59600 12078
L59619 12134
L59619 12228
" />
<path d="M59619 11628
L59619 11853
" />
<path d="M59619 11740
L59225 11740
L59281 11778
L59319 11815
L59337 11853
" />
<path d="M59619 11440
L59619 11365
L59600 11328
L59581 11309
L59525 11271
L59450 11253
L59300 11253
L59262 11271
L59244 11290
L59225 11328
L59225 11403
L59244 11440
L59262 11459
L59300 11478
L59394 11478
L59431 11459
L59450 11440
L59469 11403
L59469 11328
L59450 11290
L59431 11271
L59394 11253
" />
<g transform="rotate(-90 59440.9 21750)">
<text x="59440.9" y="21946.9"
textLength="1220.38" font-size="524.934" lengthAdjust="spacingAndGlyphs"
text-anchor="middle" opacity="0">D20</text>
</g>
<path d="M59619 22228
L59225 22228
L59225 22134
L59244 22078
L59281 22040
L59319 22021
L59394 22003
L59450 22003
L59525 22021
L59562 22040
L59600 22078
L59619 22134
L59619 22228
" />
<path d="M59262 21853
L59244 21834
L59225 21796
L59225 21703
L59244 21665
L59262 21646
L59300 21628
L59337 21628
L59394 21646
L59619 21871
L59619 21628
" />
<path d="M59225 21384
L59225 21346
L59244 21309
L59262 21290
L59300 21271
L59375 21253
L59469 21253
L59544 21271
L59581 21290
L59600 21309
L59619 21346
L59619 21384
L59600 21421
L59581 21440
L59544 21459
L59469 21478
L59375 21478
L59300 21459
L59262 21440
L59244 21421
L59225 21384
" />
<g transform="rotate(-90 59440.9 31750)">
<text x="59440.9" y="31946.9"
textLength="1220.38" font-size="524.934" lengthAdjust="spacingAndGlyphs"
text-anchor="middle" opacity="0">D21</text>
</g>
<path d="M59619 32228
L59225 32228
L59225 32134
L59244 32078
L59281 32040
L59319 32021
L59394 32003
L59450 32003
L59525 32021
L59562 32040
L59600 32078
L59619 32134
L59619 32228
" />
<path d="M59262 31853
L59244 31834
L59225 31796
L59225 31703
L59244 31665
L59262 31646
L59300 31628
L59337 31628
L59394 31646
L59619 31871
L59619 31628
" />
<path d="M59619 31253
L59619 31478
" />
<path d="M59619 31365
L59225 31365
L59281 31403
L59319 31440
L59337 31478
" />
<g transform="rotate(-90 59440.9 41750)">
<text x="59440.9" y="41946.9"
textLength="1220.38" font-size="524.934" lengthAdjust="spacingAndGlyphs"
text-anchor="middle" opacity="0">D22</text>
</g>
<path d="M59619 42228
L59225 42228
L59225 42134
L59244 42078
L59281 42040
L59319 42021
L59394 42003
L59450 42003
L59525 42021
L59562 42040
L59600 42078
L59619 42134
L59619 42228
" />
<path d="M59262 41853
L59244 41834
L59225 41796
L59225 41703
L59244 41665
L59262 41646
L59300 41628
L59337 41628
L59394 41646
L59619 41871
L59619 41628
" />
<path d="M59262 41478
L59244 41459
L59225 41421
L59225 41328
L59244 41290
L59262 41271
L59300 41253
L59337 41253
L59394 41271
L59619 41496
L59619 41253
" />
<g transform="rotate(-90 59440.9 51750)">
<text x="59440.9" y="51946.9"
textLength="1220.38" font-size="524.934" lengthAdjust="spacingAndGlyphs"
text-anchor="middle" opacity="0">D23</text>
</g>
<path d="M59619 52228
L59225 52228
L59225 52134
L59244 52078
L59281 52040
L59319 52021
L59394 52003
L59450 52003
L59525 52021
L59562 52040
L59600 52078
L59619 52134
L59619 52228
" />
<path d="M59262 51853
L59244 51834
L59225 51796
L59225 51703
L59244 51665
L59262 51646
L59300 51628
L59337 51628
L59394 51646
L59619 51871
L59619 51628
" />
<path d="M59225 51496
L59225 51253
L59375 51384
L59375 51328
L59394 51290
L59412 51271
L59450 51253
L59544 51253
L59581 51271
L59600 51290
L59619 51328
L59619 51440
L59600 51478
L59581 51496
" />
<g transform="rotate(-90 59440.9 61750)">
<text x="59440.9" y="61946.9"
textLength="1220.38" font-size="524.934" lengthAdjust="spacingAndGlyphs"
text-anchor="middle" opacity="0">D24</text>
</g>
<path d="M59619 62228
L59225 62228
L59225 62134
L59244 62078
L59281 62040
L59319 62021
L59394 62003
L59450 62003
L59525 62021
L59562 62040
L59600 62078
L59619 62134
L59619 62228
" />
<path d="M59262 61853
L59244 61834
L59225 61796
L59225 61703
L59244 61665
L59262 61646
L59300 61628
L59337 61628
L59394 61646
L59619 61871
L59619 61628
" />
<path d="M59356 61290
L59619 61290
" />
<path d="M59206 61384
L59487 61478
L59487 61234
" />
<g transform="rotate(-90 72559.1 11750)">
<text x="72559.1" y="11946.9"
textLength="1220.38" font-size="524.934" lengthAdjust="spacingAndGlyphs"
text-anchor="middle" opacity="0">D25</text>
</g>
<path d="M72737 12228
L72343 12228
L72343 12134
L72362 12078
L72399 12040
L72437 12021
L72512 12003
L72568 12003
L72643 12021
L72680 12040
L72718 12078
L72737 12134
L72737 12228
" />
<path d="M72380 11853
L72362 11834
L72343 11796
L72343 11703
L72362 11665
L72380 11646
L72418 11628
L72455 11628
L72512 11646
L72737 11871
L72737 11628
" />
<path d="M72343 11271
L72343 11459
L72530 11478
L72512 11459
L72493 11421
L72493 11328
L72512 11290
L72530 11271
L72568 11253
L72662 11253
L72699 11271
L72718 11290
L72737 11328
L72737 11421
L72718 11459
L72699 11478
" />
<g transform="rotate(-90 72559.1 21750)">
<text x="72559.1" y="21946.9"
textLength="1220.38" font-size="524.934" lengthAdjust="spacingAndGlyphs"
text-anchor="middle" opacity="0">D26</text>
</g>
<path d="M72737 22228
L72343 22228
L72343 22134
L72362 22078
L72399 22040
L72437 22021
L72512 22003
L72568 22003
L72643 22021
L72680 22040
L72718 22078
L72737 22134
L72737 22228
" />
<path d="M72380 21853
L72362 21834
L72343 21796
L72343 21703
L72362 21665
L72380 21646
L72418 21628
L72455 21628
L72512 21646
L72737 21871
L72737 21628
" />
<path d="M72343 21290
L72343 21365
L72362 21403
L72380 21421
L72437 21459
L72512 21478
L72662 21478
L72699 21459
L72718 21440
L72737 21403
L72737 21328
L72718 21290
L72699 21271
L72662 21253
L72568 21253
L72530 21271
L72512 21290
L72493 21328
L72493 21403
L72512 21440
L72530 21459
L72568 21478
" />
<g transform="rotate(-90 72559.1 31750)">
<text x="72559.1" y="31946.9"
textLength="1220.38" font-size="524.934" lengthAdjust="spacingAndGlyphs"
text-anchor="middle" opacity="0">D27</text>
</g>
<path d="M72737 32228
L72343 32228
L72343 32134
L72362 32078
L72399 32040
L72437 32021
L72512 32003
L72568 32003
L72643 32021
L72680 32040
L72718 32078
L72737 32134
L72737 32228
" />
<path d="M72380 31853
L72362 31834
L72343 31796
L72343 31703
L72362 31665
L72380 31646
L72418 31628
L72455 31628
L72512 31646
L72737 31871
L72737 31628
" />
<path d="M72343 31496
L72343 31234
L72737 31403
" />
<g transform="rotate(-90 72559.1 41750)">
<text x="72559.1" y="41946.9"
textLength="1220.38" font-size="524.934" lengthAdjust="spacingAndGlyphs"
text-anchor="middle" opacity="0">D28</text>
</g>
<path d="M72737 42228
L72343 42228
L72343 42134
L72362 42078
L72399 42040
L72437 42021
L72512 42003
L72568 42003
L72643 42021
L72680 42040
L72718 42078
L72737 42134
L72737 42228
" />
<path d="M72380 41853
L72362 41834
L72343 41796
L72343 41703
L72362 41665
L72380 41646
L72418 41628
L72455 41628
L72512 41646
L72737 41871
L72737 41628
" />
<path d="M72512 41403
L72493 41440
L72474 41459
L72437 41478
L72418 41478
L72380 41459
L72362 41440
L72343 41403
L72343 41328
L72362 41290
L72380 41271
L72418 41253
L72437 41253
L72474 41271
L72493 41290
L72512 41328
L72512 41403
L72530 41440
L72549 41459
L72587 41478
L72662 41478
L72699 41459
L72718 41440
L72737 41403
L72737 41328
L72718 41290
L72699 41271
L72662 41253
L72587 41253
L72549 41271
L72530 41290
L72512 41328
" />
<g transform="rotate(-90 72559.1 51750)">
<text x="72559.1" y="51946.9"
textLength="1220.38" font-size="524.934" lengthAdjust="spacingAndGlyphs"
text-anchor="middle" opacity="0">D29</text>
</g>
<path d="M72737 52228
L72343 52228
L72343 52134
L72362 52078
L72399 52040
L72437 52021
L72512 52003
L72568 52003
L72643 52021
L72680 52040
L72718 52078
L72737 52134
L72737 52228
" />
<path d="M72380 51853
L72362 51834
L72343 51796
L72343 51703
L72362 51665
L72380 51646
L72418 51628
L72455 51628
L72512 51646
L72737 51871
L72737 51628
" />
<path d="M72737 51440
L72737 51365
L72718 51328
L72699 51309
L72643 51271
L72568 51253
L72418 51253
L72380 51271
L72362 51290
L72343 51328
L72343 51403
L72362 51440
L72380 51459
L72418 51478
L72512 51478
L72549 51459
L72568 51440
L72587 51403
L72587 51328
L72568 51290
L72549 51271
L72512 51253
" />
<g transform="rotate(-90 72559.1 61750)">
<text x="72559.1" y="61946.9"
textLength="1220.38" font-size="524.934" lengthAdjust="spacingAndGlyphs"
text-anchor="middle" opacity="0">D30</text>
</g>
<path d="M72737 62228
L72343 62228
L72343 62134
L72362 62078
L72399 62040
L72437 62021
L72512 62003
L72568 62003
L72643 62021
L72680 62040
L72718 62078
L72737 62134
L72737 62228
" />
<path d="M72343 61871
L72343 61628
L72493 61759
L72493 61703
L72512 61665
L72530 61646
L72568 61628
L72662 61628
L72699 61646
L72718 61665
L72737 61703
L72737 61815
L72718 61853
L72699 61871
" />
<path d="M72343 61384
L72343 61346
L72362 61309
L72380 61290
L72418 61271
L72493 61253
L72587 61253
L72662 61271
L72699 61290
L72718 61309
L72737 61346
L72737 61384
L72718 61421
L72699 61440
L72662 61459
L72587 61478
L72493 61478
L72418 61459
L72380 61440
L72362 61421
L72343 61384
" />
<g transform="rotate(-90 79440.9 11750)">
<text x="79440.9" y="11946.9"
textLength="1220.38" font-size="524.934" lengthAdjust="spacingAndGlyphs"
text-anchor="middle" opacity="0">D31</text>
</g>
<path d="M79619 12228
L79225 12228
L79225 12134
L79244 12078
L79281 12040
L79319 12021
L79394 12003
L79450 12003
L79525 12021
L79562 12040
L79600 12078
L79619 12134
L79619 12228
" />
<path d="M79225 11871
L79225 11628
L79375 11759
L79375 11703
L79394 11665
L79412 11646
L79450 11628
L79544 11628
L79581 11646
L79600 11665
L79619 11703
L79619 11815
L79600 11853
L79581 11871
" />
<path d="M79619 11253
L79619 11478
" />
<path d="M79619 11365
L79225 11365
L79281 11403
L79319 11440
L79337 11478
" />
<g transform="rotate(-90 79440.9 21750)">
<text x="79440.9" y="21946.9"
textLength="1220.38" font-size="524.934" lengthAdjust="spacingAndGlyphs"
text-anchor="middle" opacity="0">D32</text>
</g>
<path d="M79619 22228
L79225 22228
L79225 22134
L79244 22078
L79281 22040
L79319 22021
L79394 22003
L79450 22003
L79525 22021
L79562 22040
L79600 22078
L79619 22134
L79619 22228
" />
<path d="M79225 21871
L79225 21628
L79375 21759
L79375 21703
L79394 21665
L79412 21646
L79450 21628
L79544 21628
L79581 21646
L79600 21665
L79619 21703
L79619 21815
L79600 21853
L79581 21871
" />
<path d="M79262 21478
L79244 21459
L79225 21421
L79225 21328
L79244 21290
L79262 21271
L79300 21253
L79337 21253
L79394 21271
L79619 21496
L79619 21253
" />
<g transform="rotate(-90 79440.9 31750)">
<text x="79440.9" y="31946.9"
textLength="1220.38" font-size="524.934" lengthAdjust="spacingAndGlyphs"
text-anchor="middle" opacity="0">D33</text>
</g>
<path d="M79619 32228
L79225 32228
L79225 32134
L79244 32078
L79281 32040
L79319 32021
L79394 32003
L79450 32003
L79525 32021
L79562 32040
L79600 32078
L79619 32134
L79619 32228
" />
<path d="M79225 31871
L79225 31628
L79375 31759
L79375 31703
L79394 31665
L79412 31646
L79450 31628
L79544 31628
L79581 31646
L79600 31665
L79619 31703
L79619 31815
L79600 31853
L79581 31871
" />
<path d="M79225 31496
L79225 31253
L79375 31384
L79375 31328
L79394 31290
L79412 31271
L79450 31253
L79544 31253
L79581 31271
L79600 31290
L79619 31328
L79619 31440
L79600 31478
L79581 31496
" />
<g transform="rotate(-90 79440.9 41750)">
<text x="79440.9" y="41946.9"
textLength="1220.38" font-size="524.934" lengthAdjust="spacingAndGlyphs"
text-anchor="middle" opacity="0">D34</text>
</g>
<path d="M79619 42228
L79225 42228
L79225 42134
L79244 42078
L79281 42040
L79319 42021
L79394 42003
L79450 42003
L79525 42021
L79562 42040
L79600 42078
L79619 42134
L79619 42228
" />
<path d="M79225 41871
L79225 41628
L79375 41759
L79375 41703
L79394 41665
L79412 41646
L79450 41628
L79544 41628
L79581 41646
L79600 41665
L79619 41703
L79619 41815
L79600 41853
L79581 41871
" />
<path d="M79356 41290
L79619 41290
" />
<path d="M79206 41384
L79487 41478
L79487 41234
" />
<g transform="rotate(-90 79440.9 51750)">
<text x="79440.9" y="51946.9"
textLength="1220.38" font-size="524.934" lengthAdjust="spacingAndGlyphs"
text-anchor="middle" opacity="0">D35</text>
</g>
<path d="M79619 52228
L79225 52228
L79225 52134
L79244 52078
L79281 52040
L79319 52021
L79394 52003
L79450 52003
L79525 52021
L79562 52040
L79600 52078
L79619 52134
L79619 52228
" />
<path d="M79225 51871
L79225 51628
L79375 51759
L79375 51703
L79394 51665
L79412 51646
L79450 51628
L79544 51628
L79581 51646
L79600 51665
L79619 51703
L79619 51815
L79600 51853
L79581 51871
" />
<path d="M79225 51271
L79225 51459
L79412 51478
L79394 51459
L79375 51421
L79375 51328
L79394 51290
L79412 51271
L79450 51253
L79544 51253
L79581 51271
L79600 51290
L79619 51328
L79619 51421
L79600 51459
L79581 51478
" />
<text x="56003.9" y="63582.7"
textLength="751.687" font-size="524.934" lengthAdjust="spacingAndGlyphs"
text-anchor="middle" opacity="0">J1</text>
<path d="M55872 63170
L55872 63451
L55853 63507
L55816 63545
L55760 63563
L55722 63563
" />
<path d="M56266 63563
L56041 63563
" />
<path d="M56153 63563
L56153 63170
L56116 63226
L56078 63263
L56041 63282
" />
<text x="76771.7" y="62007.9"
textLength="1220.38" font-size="524.934" lengthAdjust="spacingAndGlyphs"
text-anchor="middle" opacity="0">C36</text>
<path d="M76518 61951
L76499 61970
L76443 61989
L76406 61989
L76349 61970
L76312 61932
L76293 61895
L76274 61820
L76274 61764
L76293 61689
L76312 61651
L76349 61614
L76406 61595
L76443 61595
L76499 61614
L76518 61632
" />
<path d="M76649 61595
L76893 61595
L76762 61745
L76818 61745
L76856 61764
L76874 61782
L76893 61820
L76893 61914
L76874 61951
L76856 61970
L76818 61989
L76706 61989
L76668 61970
L76649 61951
" />
<path d="M77230 61595
L77155 61595
L77118 61614
L77099 61632
L77062 61689
L77043 61764
L77043 61914
L77062 61951
L77080 61970
L77118 61989
L77193 61989
L77230 61970
L77249 61951
L77268 61914
L77268 61820
L77249 61782
L77230 61764
L77193 61745
L77118 61745
L77080 61764
L77062 61782
L77043 61820
" />
<text x="76771.7" y="51968.5"
textLength="1220.38" font-size="524.934" lengthAdjust="spacingAndGlyphs"
text-anchor="middle" opacity="0">C35</text>
<path d="M76518 51912
L76499 51931
L76443 51949
L76406 51949
L76349 51931
L76312 51893
L76293 51856
L76274 51781
L76274 51724
L76293 51649
L76312 51612
L76349 51574
L76406 51556
L76443 51556
L76499 51574
L76518 51593
" />
<path d="M76649 51556
L76893 51556
L76762 51706
L76818 51706
L76856 51724
L76874 51743
L76893 51781
L76893 51874
L76874 51912
L76856 51931
L76818 51949
L76706 51949
L76668 51931
L76649 51912
" />
<path d="M77249 51556
L77062 51556
L77043 51743
L77062 51724
L77099 51706
L77193 51706
L77230 51724
L77249 51743
L77268 51781
L77268 51874
L77249 51912
L77230 51931
L77193 51949
L77099 51949
L77062 51931
L77043 51912
" />
<text x="76771.7" y="41929.1"
textLength="1220.38" font-size="524.934" lengthAdjust="spacingAndGlyphs"
text-anchor="middle" opacity="0">C34</text>
<path d="M76518 41872
L76499 41891
L76443 41910
L76406 41910
L76349 41891
L76312 41854
L76293 41816
L76274 41741
L76274 41685
L76293 41610
L76312 41572
L76349 41535
L76406 41516
L76443 41516
L76499 41535
L76518 41554
" />
<path d="M76649 41516
L76893 41516
L76762 41666
L76818 41666
L76856 41685
L76874 41704
L76893 41741
L76893 41835
L76874 41872
L76856 41891
L76818 41910
L76706 41910
L76668 41891
L76649 41872
" />
<path d="M77230 41647
L77230 41910
" />
<path d="M77137 41497
L77043 41779
L77287 41779
" />
<text x="76771.7" y="32086.6"
textLength="1220.38" font-size="524.934" lengthAdjust="spacingAndGlyphs"
text-anchor="middle" opacity="0">C33</text>
<path d="M76518 32030
L76499 32049
L76443 32067
L76406 32067
L76349 32049
L76312 32011
L76293 31974
L76274 31899
L76274 31842
L76293 31767
L76312 31730
L76349 31692
L76406 31674
L76443 31674
L76499 31692
L76518 31711
" />
<path d="M76649 31674
L76893 31674
L76762 31824
L76818 31824
L76856 31842
L76874 31861
L76893 31899
L76893 31992
L76874 32030
L76856 32049
L76818 32067
L76706 32067
L76668 32049
L76649 32030
" />
<path d="M77024 31674
L77268 31674
L77137 31824
L77193 31824
L77230 31842
L77249 31861
L77268 31899
L77268 31992
L77249 32030
L77230 32049
L77193 32067
L77080 32067
L77043 32049
L77024 32030
" />
<text x="76771.7" y="22047.2"
textLength="1220.38" font-size="524.934" lengthAdjust="spacingAndGlyphs"
text-anchor="middle" opacity="0">C32</text>
<path d="M76518 21991
L76499 22009
L76443 22028
L76406 22028
L76349 22009
L76312 21972
L76293 21934
L76274 21859
L76274 21803
L76293 21728
L76312 21691
L76349 21653
L76406 21634
L76443 21634
L76499 21653
L76518 21672
" />
<path d="M76649 21634
L76893 21634
L76762 21784
L76818 21784
L76856 21803
L76874 21822
L76893 21859
L76893 21953
L76874 21991
L76856 22009
L76818 22028
L76706 22028
L76668 22009
L76649 21991
" />
<path d="M77043 21672
L77062 21653
L77099 21634
L77193 21634
L77230 21653
L77249 21672
L77268 21709
L77268 21747
L77249 21803
L77024 22028
L77268 22028
" />
<text x="76771.7" y="12007.9"
textLength="1220.38" font-size="524.934" lengthAdjust="spacingAndGlyphs"
text-anchor="middle" opacity="0">C31</text>
<path d="M76518 11951
L76499 11970
L76443 11989
L76406 11989
L76349 11970
L76312 11932
L76293 11895
L76274 11820
L76274 11764
L76293 11689
L76312 11651
L76349 11614
L76406 11595
L76443 11595
L76499 11614
L76518 11632
" />
<path d="M76649 11595
L76893 11595
L76762 11745
L76818 11745
L76856 11764
L76874 11782
L76893 11820
L76893 11914
L76874 11951
L76856 11970
L76818 11989
L76706 11989
L76668 11970
L76649 11951
" />
<path d="M77268 11989
L77043 11989
" />
<path d="M77155 11989
L77155 11595
L77118 11651
L77080 11689
L77043 11707
" />
<text x="75196.9" y="62007.9"
textLength="1220.38" font-size="524.934" lengthAdjust="spacingAndGlyphs"
text-anchor="middle" opacity="0">C30</text>
<path d="M74943 61951
L74925 61970
L74868 61989
L74831 61989
L74775 61970
L74737 61932
L74718 61895
L74700 61820
L74700 61764
L74718 61689
L74737 61651
L74775 61614
L74831 61595
L74868 61595
L74925 61614
L74943 61632
" />
<path d="M75074 61595
L75318 61595
L75187 61745
L75243 61745
L75281 61764
L75299 61782
L75318 61820
L75318 61914
L75299 61951
L75281 61970
L75243 61989
L75131 61989
L75093 61970
L75074 61951
" />
<path d="M75562 61595
L75599 61595
L75637 61614
L75656 61632
L75674 61670
L75693 61745
L75693 61839
L75674 61914
L75656 61951
L75637 61970
L75599 61989
L75562 61989
L75524 61970
L75506 61951
L75487 61914
L75468 61839
L75468 61745
L75487 61670
L75506 61632
L75524 61614
L75562 61595
" />
<text x="75196.9" y="51968.5"
textLength="1220.38" font-size="524.934" lengthAdjust="spacingAndGlyphs"
text-anchor="middle" opacity="0">C29</text>
<path d="M74943 51912
L74925 51931
L74868 51949
L74831 51949
L74775 51931
L74737 51893
L74718 51856
L74700 51781
L74700 51724
L74718 51649
L74737 51612
L74775 51574
L74831 51556
L74868 51556
L74925 51574
L74943 51593
" />
<path d="M75093 51593
L75112 51574
L75149 51556
L75243 51556
L75281 51574
L75299 51593
L75318 51631
L75318 51668
L75299 51724
L75074 51949
L75318 51949
" />
<path d="M75506 51949
L75581 51949
L75618 51931
L75637 51912
L75674 51856
L75693 51781
L75693 51631
L75674 51593
L75656 51574
L75618 51556
L75543 51556
L75506 51574
L75487 51593
L75468 51631
L75468 51724
L75487 51762
L75506 51781
L75543 51799
L75618 51799
L75656 51781
L75674 51762
L75693 51724
" />
<text x="75196.9" y="41929.1"
textLength="1220.38" font-size="524.934" lengthAdjust="spacingAndGlyphs"
text-anchor="middle" opacity="0">C28</text>
<path d="M74943 41872
L74925 41891
L74868 41910
L74831 41910
L74775 41891
L74737 41854
L74718 41816
L74700 41741
L74700 41685
L74718 41610
L74737 41572
L74775 41535
L74831 41516
L74868 41516
L74925 41535
L74943 41554
" />
<path d="M75093 41554
L75112 41535
L75149 41516
L75243 41516
L75281 41535
L75299 41554
L75318 41591
L75318 41629
L75299 41685
L75074 41910
L75318 41910
" />
<path d="M75543 41685
L75506 41666
L75487 41647
L75468 41610
L75468 41591
L75487 41554
L75506 41535
L75543 41516
L75618 41516
L75656 41535
L75674 41554
L75693 41591
L75693 41610
L75674 41647
L75656 41666
L75618 41685
L75543 41685
L75506 41704
L75487 41722
L75468 41760
L75468 41835
L75487 41872
L75506 41891
L75543 41910
L75618 41910
L75656 41891
L75674 41872
L75693 41835
L75693 41760
L75674 41722
L75656 41704
L75618 41685
" />
<text x="75196.9" y="32086.6"
textLength="1220.38" font-size="524.934" lengthAdjust="spacingAndGlyphs"
text-anchor="middle" opacity="0">C27</text>
<path d="M74943 32030
L74925 32049
L74868 32067
L74831 32067
L74775 32049
L74737 32011
L74718 31974
L74700 31899
L74700 31842
L74718 31767
L74737 31730
L74775 31692
L74831 31674
L74868 31674
L74925 31692
L74943 31711
" />
<path d="M75093 31711
L75112 31692
L75149 31674
L75243 31674
L75281 31692
L75299 31711
L75318 31749
L75318 31786
L75299 31842
L75074 32067
L75318 32067
" />
<path d="M75449 31674
L75712 31674
L75543 32067
" />
<text x="75196.9" y="22047.2"
textLength="1220.38" font-size="524.934" lengthAdjust="spacingAndGlyphs"
text-anchor="middle" opacity="0">C26</text>
<path d="M74943 21991
L74925 22009
L74868 22028
L74831 22028
L74775 22009
L74737 21972
L74718 21934
L74700 21859
L74700 21803
L74718 21728
L74737 21691
L74775 21653
L74831 21634
L74868 21634
L74925 21653
L74943 21672
" />
<path d="M75093 21672
L75112 21653
L75149 21634
L75243 21634
L75281 21653
L75299 21672
L75318 21709
L75318 21747
L75299 21803
L75074 22028
L75318 22028
" />
<path d="M75656 21634
L75581 21634
L75543 21653
L75524 21672
L75487 21728
L75468 21803
L75468 21953
L75487 21991
L75506 22009
L75543 22028
L75618 22028
L75656 22009
L75674 21991
L75693 21953
L75693 21859
L75674 21822
L75656 21803
L75618 21784
L75543 21784
L75506 21803
L75487 21822
L75468 21859
" />
<text x="75196.9" y="12007.9"
textLength="1220.38" font-size="524.934" lengthAdjust="spacingAndGlyphs"
text-anchor="middle" opacity="0">C25</text>
<path d="M74943 11951
L74925 11970
L74868 11989
L74831 11989
L74775 11970
L74737 11932
L74718 11895
L74700 11820
L74700 11764
L74718 11689
L74737 11651
L74775 11614
L74831 11595
L74868 11595
L74925 11614
L74943 11632
" />
<path d="M75093 11632
L75112 11614
L75149 11595
L75243 11595
L75281 11614
L75299 11632
L75318 11670
L75318 11707
L75299 11764
L75074 11989
L75318 11989
" />
<path d="M75674 11595
L75487 11595
L75468 11782
L75487 11764
L75524 11745
L75618 11745
L75656 11764
L75674 11782
L75693 11820
L75693 11914
L75674 11951
L75656 11970
L75618 11989
L75524 11989
L75487 11970
L75468 11951
" />
<text x="65157.5" y="62007.9"
textLength="1220.38" font-size="524.934" lengthAdjust="spacingAndGlyphs"
text-anchor="middle" opacity="0">C24</text>
<path d="M64904 61951
L64885 61970
L64829 61989
L64791 61989
L64735 61970
L64698 61932
L64679 61895
L64660 61820
L64660 61764
L64679 61689
L64698 61651
L64735 61614
L64791 61595
L64829 61595
L64885 61614
L64904 61632
" />
<path d="M65054 61632
L65073 61614
L65110 61595
L65204 61595
L65241 61614
L65260 61632
L65279 61670
L65279 61707
L65260 61764
L65035 61989
L65279 61989
" />
<path d="M65616 61726
L65616 61989
" />
<path d="M65523 61576
L65429 61857
L65673 61857
" />
<text x="65157.5" y="51968.5"
textLength="1220.38" font-size="524.934" lengthAdjust="spacingAndGlyphs"
text-anchor="middle" opacity="0">C23</text>
<path d="M64904 51912
L64885 51931
L64829 51949
L64791 51949
L64735 51931
L64698 51893
L64679 51856
L64660 51781
L64660 51724
L64679 51649
L64698 51612
L64735 51574
L64791 51556
L64829 51556
L64885 51574
L64904 51593
" />
<path d="M65054 51593
L65073 51574
L65110 51556
L65204 51556
L65241 51574
L65260 51593
L65279 51631
L65279 51668
L65260 51724
L65035 51949
L65279 51949
" />
<path d="M65410 51556
L65654 51556
L65523 51706
L65579 51706
L65616 51724
L65635 51743
L65654 51781
L65654 51874
L65635 51912
L65616 51931
L65579 51949
L65466 51949
L65429 51931
L65410 51912
" />
<text x="65157.5" y="41929.1"
textLength="1220.38" font-size="524.934" lengthAdjust="spacingAndGlyphs"
text-anchor="middle" opacity="0">C22</text>
<path d="M64904 41872
L64885 41891
L64829 41910
L64791 41910
L64735 41891
L64698 41854
L64679 41816
L64660 41741
L64660 41685
L64679 41610
L64698 41572
L64735 41535
L64791 41516
L64829 41516
L64885 41535
L64904 41554
" />
<path d="M65054 41554
L65073 41535
L65110 41516
L65204 41516
L65241 41535
L65260 41554
L65279 41591
L65279 41629
L65260 41685
L65035 41910
L65279 41910
" />
<path d="M65429 41554
L65448 41535
L65485 41516
L65579 41516
L65616 41535
L65635 41554
L65654 41591
L65654 41629
L65635 41685
L65410 41910
L65654 41910
" />
<text x="65157.5" y="32086.6"
textLength="1220.38" font-size="524.934" lengthAdjust="spacingAndGlyphs"
text-anchor="middle" opacity="0">C21</text>
<path d="M64904 32030
L64885 32049
L64829 32067
L64791 32067
L64735 32049
L64698 32011
L64679 31974
L64660 31899
L64660 31842
L64679 31767
L64698 31730
L64735 31692
L64791 31674
L64829 31674
L64885 31692
L64904 31711
" />
<path d="M65054 31711
L65073 31692
L65110 31674
L65204 31674
L65241 31692
L65260 31711
L65279 31749
L65279 31786
L65260 31842
L65035 32067
L65279 32067
" />
<path d="M65654 32067
L65429 32067
" />
<path d="M65541 32067
L65541 31674
L65504 31730
L65466 31767
L65429 31786
" />
<text x="65157.5" y="22047.2"
textLength="1220.38" font-size="524.934" lengthAdjust="spacingAndGlyphs"
text-anchor="middle" opacity="0">C20</text>
<path d="M64904 21991
L64885 22009
L64829 22028
L64791 22028
L64735 22009
L64698 21972
L64679 21934
L64660 21859
L64660 21803
L64679 21728
L64698 21691
L64735 21653
L64791 21634
L64829 21634
L64885 21653
L64904 21672
" />
<path d="M65054 21672
L65073 21653
L65110 21634
L65204 21634
L65241 21653
L65260 21672
L65279 21709
L65279 21747
L65260 21803
L65035 22028
L65279 22028
" />
<path d="M65523 21634
L65560 21634
L65598 21653
L65616 21672
L65635 21709
L65654 21784
L65654 21878
L65635 21953
L65616 21991
L65598 22009
L65560 22028
L65523 22028
L65485 22009
L65466 21991
L65448 21953
L65429 21878
L65429 21784
L65448 21709
L65466 21672
L65485 21653
L65523 21634
" />
<text x="65157.5" y="12007.9"
textLength="1220.38" font-size="524.934" lengthAdjust="spacingAndGlyphs"
text-anchor="middle" opacity="0">C19</text>
<path d="M64904 11951
L64885 11970
L64829 11989
L64791 11989
L64735 11970
L64698 11932
L64679 11895
L64660 11820
L64660 11764
L64679 11689
L64698 11651
L64735 11614
L64791 11595
L64829 11595
L64885 11614
L64904 11632
" />
<path d="M65279 11989
L65054 11989
" />
<path d="M65166 11989
L65166 11595
L65129 11651
L65091 11689
L65054 11707
" />
<path d="M65466 11989
L65541 11989
L65579 11970
L65598 11951
L65635 11895
L65654 11820
L65654 11670
L65635 11632
L65616 11614
L65579 11595
L65504 11595
L65466 11614
L65448 11632
L65429 11670
L65429 11764
L65448 11801
L65466 11820
L65504 11839
L65579 11839
L65616 11820
L65635 11801
L65654 11764
" />
<text x="55118.1" y="62007.9"
textLength="1220.38" font-size="524.934" lengthAdjust="spacingAndGlyphs"
text-anchor="middle" opacity="0">C18</text>
<path d="M54865 61951
L54846 61970
L54790 61989
L54752 61989
L54696 61970
L54658 61932
L54640 61895
L54621 61820
L54621 61764
L54640 61689
L54658 61651
L54696 61614
L54752 61595
L54790 61595
L54846 61614
L54865 61632
" />
<path d="M55239 61989
L55014 61989
" />
<path d="M55127 61989
L55127 61595
L55089 61651
L55052 61689
L55014 61707
" />
<path d="M55464 61764
L55427 61745
L55408 61726
L55389 61689
L55389 61670
L55408 61632
L55427 61614
L55464 61595
L55539 61595
L55577 61614
L55596 61632
L55614 61670
L55614 61689
L55596 61726
L55577 61745
L55539 61764
L55464 61764
L55427 61782
L55408 61801
L55389 61839
L55389 61914
L55408 61951
L55427 61970
L55464 61989
L55539 61989
L55577 61970
L55596 61951
L55614 61914
L55614 61839
L55596 61801
L55577 61782
L55539 61764
" />
<text x="55118.1" y="51968.5"
textLength="1220.38" font-size="524.934" lengthAdjust="spacingAndGlyphs"
text-anchor="middle" opacity="0">C17</text>
<path d="M54865 51912
L54846 51931
L54790 51949
L54752 51949
L54696 51931
L54658 51893
L54640 51856
L54621 51781
L54621 51724
L54640 51649
L54658 51612
L54696 51574
L54752 51556
L54790 51556
L54846 51574
L54865 51593
" />
<path d="M55239 51949
L55014 51949
" />
<path d="M55127 51949
L55127 51556
L55089 51612
L55052 51649
L55014 51668
" />
<path d="M55371 51556
L55633 51556
L55464 51949
" />
<text x="55118.1" y="41929.1"
textLength="1220.38" font-size="524.934" lengthAdjust="spacingAndGlyphs"
text-anchor="middle" opacity="0">C16</text>
<path d="M54865 41872
L54846 41891
L54790 41910
L54752 41910
L54696 41891
L54658 41854
L54640 41816
L54621 41741
L54621 41685
L54640 41610
L54658 41572
L54696 41535
L54752 41516
L54790 41516
L54846 41535
L54865 41554
" />
<path d="M55239 41910
L55014 41910
" />
<path d="M55127 41910
L55127 41516
L55089 41572
L55052 41610
L55014 41629
" />
<path d="M55577 41516
L55502 41516
L55464 41535
L55446 41554
L55408 41610
L55389 41685
L55389 41835
L55408 41872
L55427 41891
L55464 41910
L55539 41910
L55577 41891
L55596 41872
L55614 41835
L55614 41741
L55596 41704
L55577 41685
L55539 41666
L55464 41666
L55427 41685
L55408 41704
L55389 41741
" />
<text x="55118.1" y="32086.6"
textLength="1220.38" font-size="524.934" lengthAdjust="spacingAndGlyphs"
text-anchor="middle" opacity="0">C15</text>
<path d="M54865 32030
L54846 32049
L54790 32067
L54752 32067
L54696 32049
L54658 32011
L54640 31974
L54621 31899
L54621 31842
L54640 31767
L54658 31730
L54696 31692
L54752 31674
L54790 31674
L54846 31692
L54865 31711
" />
<path d="M55239 32067
L55014 32067
" />
<path d="M55127 32067
L55127 31674
L55089 31730
L55052 31767
L55014 31786
" />
<path d="M55596 31674
L55408 31674
L55389 31861
L55408 31842
L55446 31824
L55539 31824
L55577 31842
L55596 31861
L55614 31899
L55614 31992
L55596 32030
L55577 32049
L55539 32067
L55446 32067
L55408 32049
L55389 32030
" />
<text x="55118.1" y="21850.4"
textLength="1220.38" font-size="524.934" lengthAdjust="spacingAndGlyphs"
text-anchor="middle" opacity="0">C14</text>
<path d="M54865 21794
L54846 21812
L54790 21831
L54752 21831
L54696 21812
L54658 21775
L54640 21737
L54621 21662
L54621 21606
L54640 21531
L54658 21494
L54696 21456
L54752 21437
L54790 21437
L54846 21456
L54865 21475
" />
<path d="M55239 21831
L55014 21831
" />
<path d="M55127 21831
L55127 21437
L55089 21494
L55052 21531
L55014 21550
" />
<path d="M55577 21569
L55577 21831
" />
<path d="M55483 21419
L55389 21700
L55633 21700
" />
<text x="55118.1" y="12007.9"
textLength="1220.38" font-size="524.934" lengthAdjust="spacingAndGlyphs"
text-anchor="middle" opacity="0">C13</text>
<path d="M54865 11951
L54846 11970
L54790 11989
L54752 11989
L54696 11970
L54658 11932
L54640 11895
L54621 11820
L54621 11764
L54640 11689
L54658 11651
L54696 11614
L54752 11595
L54790 11595
L54846 11614
L54865 11632
" />
<path d="M55239 11989
L55014 11989
" />
<path d="M55127 11989
L55127 11595
L55089 11651
L55052 11689
L55014 11707
" />
<path d="M55371 11595
L55614 11595
L55483 11745
L55539 11745
L55577 11764
L55596 11782
L55614 11820
L55614 11914
L55596 11951
L55577 11970
L55539 11989
L55427 11989
L55389 11970
L55371 11951
" />
<text x="45275.6" y="62007.9"
textLength="1220.38" font-size="524.934" lengthAdjust="spacingAndGlyphs"
text-anchor="middle" opacity="0">C12</text>
<path d="M45022 61951
L45003 61970
L44947 61989
L44910 61989
L44853 61970
L44816 61932
L44797 61895
L44778 61820
L44778 61764
L44797 61689
L44816 61651
L44853 61614
L44910 61595
L44947 61595
L45003 61614
L45022 61632
" />
<path d="M45397 61989
L45172 61989
" />
<path d="M45284 61989
L45284 61595
L45247 61651
L45209 61689
L45172 61707
" />
<path d="M45547 61632
L45566 61614
L45603 61595
L45697 61595
L45734 61614
L45753 61632
L45772 61670
L45772 61707
L45753 61764
L45528 61989
L45772 61989
" />
<text x="45275.6" y="51968.5"
textLength="1220.38" font-size="524.934" lengthAdjust="spacingAndGlyphs"
text-anchor="middle" opacity="0">C11</text>
<path d="M45022 51912
L45003 51931
L44947 51949
L44910 51949
L44853 51931
L44816 51893
L44797 51856
L44778 51781
L44778 51724
L44797 51649
L44816 51612
L44853 51574
L44910 51556
L44947 51556
L45003 51574
L45022 51593
" />
<path d="M45397 51949
L45172 51949
" />
<path d="M45284 51949
L45284 51556
L45247 51612
L45209 51649
L45172 51668
" />
<path d="M45772 51949
L45547 51949
" />
<path d="M45659 51949
L45659 51556
L45622 51612
L45584 51649
L45547 51668
" />
<text x="45275.6" y="41929.1"
textLength="1220.38" font-size="524.934" lengthAdjust="spacingAndGlyphs"
text-anchor="middle" opacity="0">C10</text>
<path d="M45022 41872
L45003 41891
L44947 41910
L44910 41910
L44853 41891
L44816 41854
L44797 41816
L44778 41741
L44778 41685
L44797 41610
L44816 41572
L44853 41535
L44910 41516
L44947 41516
L45003 41535
L45022 41554
" />
<path d="M45397 41910
L45172 41910
" />
<path d="M45284 41910
L45284 41516
L45247 41572
L45209 41610
L45172 41629
" />
<path d="M45641 41516
L45678 41516
L45716 41535
L45734 41554
L45753 41591
L45772 41666
L45772 41760
L45753 41835
L45734 41872
L45716 41891
L45678 41910
L45641 41910
L45603 41891
L45584 41872
L45566 41835
L45547 41760
L45547 41666
L45566 41591
L45584 41554
L45603 41535
L45641 41516
" />
<text x="45078.7" y="32086.6"
textLength="845.426" font-size="524.934" lengthAdjust="spacingAndGlyphs"
text-anchor="middle" opacity="0">C9</text>
<path d="M45013 32030
L44994 32049
L44938 32067
L44900 32067
L44844 32049
L44806 32011
L44788 31974
L44769 31899
L44769 31842
L44788 31767
L44806 31730
L44844 31692
L44900 31674
L44938 31674
L44994 31692
L45013 31711
" />
<path d="M45200 32067
L45275 32067
L45313 32049
L45331 32030
L45369 31974
L45388 31899
L45388 31749
L45369 31711
L45350 31692
L45313 31674
L45238 31674
L45200 31692
L45181 31711
L45163 31749
L45163 31842
L45181 31880
L45200 31899
L45238 31917
L45313 31917
L45350 31899
L45369 31880
L45388 31842
" />
<text x="45078.7" y="22047.2"
textLength="845.426" font-size="524.934" lengthAdjust="spacingAndGlyphs"
text-anchor="middle" opacity="0">C8</text>
<path d="M45013 21991
L44994 22009
L44938 22028
L44900 22028
L44844 22009
L44806 21972
L44788 21934
L44769 21859
L44769 21803
L44788 21728
L44806 21691
L44844 21653
L44900 21634
L44938 21634
L44994 21653
L45013 21672
" />
<path d="M45238 21803
L45200 21784
L45181 21766
L45163 21728
L45163 21709
L45181 21672
L45200 21653
L45238 21634
L45313 21634
L45350 21653
L45369 21672
L45388 21709
L45388 21728
L45369 21766
L45350 21784
L45313 21803
L45238 21803
L45200 21822
L45181 21841
L45163 21878
L45163 21953
L45181 21991
L45200 22009
L45238 22028
L45313 22028
L45350 22009
L45369 21991
L45388 21953
L45388 21878
L45369 21841
L45350 21822
L45313 21803
" />
<text x="45078.7" y="12007.9"
textLength="845.426" font-size="524.934" lengthAdjust="spacingAndGlyphs"
text-anchor="middle" opacity="0">C7</text>
<path d="M45013 11951
L44994 11970
L44938 11989
L44900 11989
L44844 11970
L44806 11932
L44788 11895
L44769 11820
L44769 11764
L44788 11689
L44806 11651
L44844 11614
L44900 11595
L44938 11595
L44994 11614
L45013 11632
" />
<path d="M45144 11595
L45406 11595
L45238 11989
" />
<text x="34842.5" y="62007.9"
textLength="845.426" font-size="524.934" lengthAdjust="spacingAndGlyphs"
text-anchor="middle" opacity="0">C6</text>
<path d="M34776 61951
L34758 61970
L34701 61989
L34664 61989
L34608 61970
L34570 61932
L34551 61895
L34533 61820
L34533 61764
L34551 61689
L34570 61651
L34608 61614
L34664 61595
L34701 61595
L34758 61614
L34776 61632
" />
<path d="M35114 61595
L35039 61595
L35001 61614
L34983 61632
L34945 61689
L34926 61764
L34926 61914
L34945 61951
L34964 61970
L35001 61989
L35076 61989
L35114 61970
L35133 61951
L35151 61914
L35151 61820
L35133 61782
L35114 61764
L35076 61745
L35001 61745
L34964 61764
L34945 61782
L34926 61820
" />
<text x="34842.5" y="51968.5"
textLength="845.426" font-size="524.934" lengthAdjust="spacingAndGlyphs"
text-anchor="middle" opacity="0">C5</text>
<path d="M34776 51912
L34758 51931
L34701 51949
L34664 51949
L34608 51931
L34570 51893
L34551 51856
L34533 51781
L34533 51724
L34551 51649
L34570 51612
L34608 51574
L34664 51556
L34701 51556
L34758 51574
L34776 51593
" />
<path d="M35133 51556
L34945 51556
L34926 51743
L34945 51724
L34983 51706
L35076 51706
L35114 51724
L35133 51743
L35151 51781
L35151 51874
L35133 51912
L35114 51931
L35076 51949
L34983 51949
L34945 51931
L34926 51912
" />
<text x="34842.5" y="41929.1"
textLength="845.426" font-size="524.934" lengthAdjust="spacingAndGlyphs"
text-anchor="middle" opacity="0">C4</text>
<path d="M34776 41872
L34758 41891
L34701 41910
L34664 41910
L34608 41891
L34570 41854
L34551 41816
L34533 41741
L34533 41685
L34551 41610
L34570 41572
L34608 41535
L34664 41516
L34701 41516
L34758 41535
L34776 41554
" />
<path d="M35114 41647
L35114 41910
" />
<path d="M35020 41497
L34926 41779
L35170 41779
" />
<text x="34842.5" y="32086.6"
textLength="845.426" font-size="524.934" lengthAdjust="spacingAndGlyphs"
text-anchor="middle" opacity="0">C3</text>
<path d="M34776 32030
L34758 32049
L34701 32067
L34664 32067
L34608 32049
L34570 32011
L34551 31974
L34533 31899
L34533 31842
L34551 31767
L34570 31730
L34608 31692
L34664 31674
L34701 31674
L34758 31692
L34776 31711
" />
<path d="M34908 31674
L35151 31674
L35020 31824
L35076 31824
L35114 31842
L35133 31861
L35151 31899
L35151 31992
L35133 32030
L35114 32049
L35076 32067
L34964 32067
L34926 32049
L34908 32030
" />
<text x="34842.5" y="22047.2"
textLength="845.426" font-size="524.934" lengthAdjust="spacingAndGlyphs"
text-anchor="middle" opacity="0">C2</text>
<path d="M34776 21991
L34758 22009
L34701 22028
L34664 22028
L34608 22009
L34570 21972
L34551 21934
L34533 21859
L34533 21803
L34551 21728
L34570 21691
L34608 21653
L34664 21634
L34701 21634
L34758 21653
L34776 21672
" />
<path d="M34926 21672
L34945 21653
L34983 21634
L35076 21634
L35114 21653
L35133 21672
L35151 21709
L35151 21747
L35133 21803
L34908 22028
L35151 22028
" />
<text x="34842.5" y="12007.9"
textLength="845.426" font-size="524.934" lengthAdjust="spacingAndGlyphs"
text-anchor="middle" opacity="0">C1</text>
<path d="M34776 11951
L34758 11970
L34701 11989
L34664 11989
L34608 11970
L34570 11932
L34551 11895
L34533 11820
L34533 11764
L34551 11689
L34570 11651
L34608 11614
L34664 11595
L34701 11595
L34758 11614
L34776 11632
" />
<path d="M35151 11989
L34926 11989
" />
<path d="M35039 11989
L35039 11595
L35001 11651
L34964 11689
L34926 11707
" />
<g >
</g>
</g> 
</svg>
